<?xml version="1.0" standalone="no"?><!DOCTYPE svg PUBLIC "-//W3C//DTD SVG 1.1//EN" "http://www.w3.org/Graphics/SVG/1.1/DTD/svg11.dtd"><svg t="1653628709238" class="icon" viewBox="0 0 1024 1024" version="1.1" xmlns="http://www.w3.org/2000/svg" p-id="11513" xmlns:xlink="http://www.w3.org/1999/xlink" width="128" height="128"><defs><style type="text/css"></style></defs><path d="M172.328393 386.614178a17.982471 17.982471 0 0 1-17.982471-17.918477v-46.524046c0-15.614673 7.103396-30.077443 19.518341-39.548638a49.403801 49.403801 0 0 1 43.196328-8.511276l26.429753 7.16739a17.982471 17.982471 0 0 1-9.4072 34.749047l-26.365759-7.167391a13.694836 13.694836 0 0 0-11.966983 2.367799 13.630841 13.630841 0 0 0-5.439537 10.879075v46.524045a17.982471 17.982471 0 0 1-17.918477 18.046466z m0 69.626082a17.982471 17.982471 0 0 1-17.982471-17.982472v-10.559102a17.982471 17.982471 0 0 1 35.964943 0v10.559102a17.982471 17.982471 0 0 1-17.918477 17.982472z" fill="#FFFFFF" p-id="11514"></path><path d="M1022.880096 511.53156c5.119565 317.41302-193.903518 516.308114-511.316538 511.380532-317.477014 4.927581-516.308114-193.903518-511.444527-511.316538C-4.744556 194.054545 194.022549-4.776554 511.499564 0.087033c317.41302-4.863587 516.308114 193.903518 511.380532 511.380532z" fill="#F9C85D" p-id="11515"></path><path d="M1021.408221 566.182914c-15.486684-226.028788-169.969553-365.152962-407.64535-361.441277-253.802427-4.095652-413.148882 155.250804-409.05323 409.05323-3.903668 237.675798 135.41249 392.158667 361.185299 407.645351 267.753241-16.318613 439.194668-187.76004 455.577276-455.257304z" fill="#FFB74A" p-id="11516"></path><path d="M1014.496809 629.345546c-29.693476-138.228251-138.868196-222.509087-298.406636-220.077294-190.447812-3.071739-309.925656 116.406105-306.853917 306.853918-2.431793 159.538439 81.849043 268.777154 219.88531 298.406635 210.862077-34.365079 351.010164-174.513166 385.375243-385.183259z" fill="#FFA41B" p-id="11517"></path><path d="M996.706321 705.051111c-32.957199-58.874996-95.543879-92.47214-178.35284-91.256244-127.029203-2.047826-206.638436 77.561407-204.59061 204.59061-1.40788 82.808961 32.317253 145.395641 91.06426 178.35284a430.747386 430.747386 0 0 0 291.815195-291.687206z" fill="#FF9900" p-id="11518"></path><path d="M622.146159 532.009819l-101.239395-243.17933a10.23913 10.23913 0 0 0-18.814401 0l-101.239395 243.17933-152.563032-125.429338a10.23913 10.23913 0 0 0-16.638585 9.471195l45.628121 310.053645c4.479619 30.333422 30.717389 52.731518 61.434778 52.347551h347.682447a61.370783 61.370783 0 0 0 61.370784-52.347551l45.628121-310.053645a10.23913 10.23913 0 0 0-16.638585-9.471195l-154.610858 125.429338z" fill="#FFE2B7" p-id="11519"></path><path d="M470.607039 204.741637a40.956519 40.956519 0 1 0 81.785049 0 40.956519 40.956519 0 0 0-81.785049 0zM163.753122 343.801817a40.956519 40.956519 0 1 0 81.849043 0 40.956519 40.956519 0 0 0-81.849043 0zM777.396962 343.801817a40.956519 40.956519 0 1 0 81.849043 0 40.956519 40.956519 0 0 0-81.849043 0z" fill="#FFFFFF" p-id="11520"></path></svg>