<?xml version="1.0" standalone="no"?><!DOCTYPE svg PUBLIC "-//W3C//DTD SVG 1.1//EN" "http://www.w3.org/Graphics/SVG/1.1/DTD/svg11.dtd"><svg t="1722439401904" class="icon" viewBox="0 0 1024 1024" version="1.1" xmlns="http://www.w3.org/2000/svg" p-id="206376" xmlns:xlink="http://www.w3.org/1999/xlink" width="128" height="128"><path d="M52.512821 0h918.974358c28.882051 0 52.512821 23.630769 52.512821 52.512821v918.974358c0 28.882051-23.630769 52.512821-52.512821 52.512821H52.512821c-28.882051 0-52.512821-23.630769-52.512821-52.512821V52.512821c0-28.882051 23.630769-52.512821 52.512821-52.512821z m739.117948 319.015385l-116.841025-66.953847c-5.251282-2.625641-13.128205-2.625641-18.379488 0l-116.841025 65.641026c-6.564103 3.938462-10.502564 10.502564-10.502564 17.066667v6.564102l-6.564103-3.938461c-6.564103-3.938462-14.441026-3.938462-19.692308 0l-6.564102 3.938461v-5.251282c0-6.564103-3.938462-13.128205-10.502564-17.066666l-116.841026-66.953847c-6.564103-3.938462-14.441026-3.938462-19.692308 0l-116.841025 66.953847c-5.251282 2.625641-9.189744 9.189744-9.189744 17.066666v132.594872c0 6.564103 3.938462 13.128205 10.502564 17.066667l116.841026 66.953846c6.564103 3.938462 14.441026 3.938462 19.692308 0l6.564102-3.938462v5.251282c0 6.564103 3.938462 13.128205 10.502564 17.066667l3.938462 2.625641-3.938462 2.625641c-6.564103 3.938462-10.502564 10.502564-10.502564 17.066667v132.594872c0 6.564103 3.938462 13.128205 10.502564 17.066666l116.841026 66.953846c6.564103 3.938462 14.441026 3.938462 19.692308 0l116.841025-66.953846c6.564103-3.938462 10.502564-10.502564 10.502564-17.066666V593.394872c0-6.564103-3.938462-13.128205-10.502564-17.066667l-3.938461-2.625641 3.938461-2.625641c6.564103-3.938462 10.502564-10.502564 10.502564-17.066667v-5.251282l6.564103 3.938462c6.564103 3.938462 14.441026 3.938462 19.692308 0l116.841025-66.953846c6.564103-3.938462 10.502564-10.502564 10.502564-17.066667V336.082051c-2.625641-7.876923-6.564103-14.441026-13.128205-17.066666zM359.712821 506.748718l-90.584616-51.2v-103.712821l90.584616-51.2 90.584615 51.2V367.589744l-64.328205 36.758974c-6.564103 3.938462-10.502564 10.502564-10.502564 17.066667v74.830769l-15.753846 10.502564z m90.584615-105.025641v53.825641l-44.635898 26.25641v-53.825641l44.635898-26.25641zM603.897436 609.148718v103.71282l-90.584615 51.2-90.584616-51.2v-103.71282l14.441026-7.876923 66.953846 38.071795c6.564103 3.938462 14.441026 3.938462 19.692308 0l66.953846-38.071795 13.128205 7.876923z m-137.846154-24.94359l47.261539-26.25641 47.261538 26.25641-47.261538 26.25641-47.261539-26.25641z m153.6-34.133333l-14.441026 7.876923-82.707692-47.261539c-6.564103-3.938462-14.441026-3.938462-19.692308 0L420.102564 557.948718l-14.441026-7.876923v-17.066667l80.082052-45.948718c6.564103-3.938462 10.502564-10.502564 10.502564-17.066666v-94.523077l17.066667-9.189744 17.066666 9.189744v94.523077c0 6.564103 3.938462 13.128205 10.502564 17.066666l81.394872 45.948718-2.625641 17.066667z m0-69.579487l-44.635897-26.256411v-53.825641l44.635897 26.256411v53.825641z m136.533333-26.256411l-90.584615 51.2-17.066667-9.189743v-74.830769c0-6.564103-3.938462-13.128205-10.502564-17.066667L575.015385 367.589744v-17.066667l90.584615-51.2 90.584615 51.2v103.71282z" p-id="206377" fill="#1890FF"></path></svg>