<?xml version="1.0" standalone="no"?><!DOCTYPE svg PUBLIC "-//W3C//DTD SVG 1.1//EN" "http://www.w3.org/Graphics/SVG/1.1/DTD/svg11.dtd"><svg t="1722527368459" class="icon" viewBox="0 0 1024 1024" version="1.1" xmlns="http://www.w3.org/2000/svg" p-id="191712" xmlns:xlink="http://www.w3.org/1999/xlink" width="128" height="128"><path d="M787.691 0H236.309C106.337 0 0 106.337 0 236.309v551.382C0 917.662 106.337 1024 236.309 1024h551.382C917.662 1024 1024 917.662 1024 787.691V236.309C1024 106.337 917.662 0 787.691 0zM492.362 763.35c-128.029 0-231.712-103.682-231.712-231.712 0-128.032 103.682-231.714 231.712-231.714v231.712h231.714c0 128.031-103.682 231.714-231.714 231.714z m39.274-270.988V260.65c126.852 0.787 230.927 104.859 231.714 231.712H531.636z" p-id="191713" fill="#1890FF"></path></svg>