<?xml version="1.0" standalone="no"?><!DOCTYPE svg PUBLIC "-//W3C//DTD SVG 1.1//EN" "http://www.w3.org/Graphics/SVG/1.1/DTD/svg11.dtd"><svg t="1721705150362" class="icon" viewBox="0 0 1024 1024" version="1.1" xmlns="http://www.w3.org/2000/svg" p-id="2828" xmlns:xlink="http://www.w3.org/1999/xlink" width="128" height="128"><path d="M806.4 680H218.24c-7.04 0-12.8 6.272-12.8 14.016l-0.128 83.968c0 7.68 5.76 14.016 12.8 14.016H806.4c7.04 0 12.8-6.336 12.8-14.016v-83.968c0-7.68-5.76-14.08-12.8-14.08z m0 168H217.792c-7.04 0-12.8 6.272-12.8 14.016L204.8 945.92c0 7.68 5.76 14.016 12.8 14.016h588.8c7.04 0 12.8-6.272 12.8-14.016V862.08c0-7.68-5.76-14.08-12.8-14.08z m0-336H218.56c-7.04 0-12.8 6.272-12.8 13.952l-0.128 84.032c0 7.68 5.76 14.016 12.8 14.016H806.4c7.04 0 12.8-6.336 12.8-14.016V525.952c0-7.68-5.76-13.952-12.8-13.952z m170.368-243.264L541.44 70.4a70.976 70.976 0 0 0-59.072 0L47.168 268.8C18.688 281.856 0 312.256 0 346.24v599.744c0 7.68 5.76 14.016 12.8 14.016h128c7.04 0 12.8-6.272 12.8-14.016V512c0-30.848 23.36-56 52.16-56h612.48c28.8 0 52.16 25.152 52.16 56v433.984c0 7.68 5.76 14.016 12.8 14.016h128c7.04 0 12.8-6.272 12.8-14.016v-599.68c0-33.984-18.752-64.448-47.232-77.568z" p-id="2829" fill="#1196db"></path></svg>