<?xml version="1.0" standalone="no"?><!DOCTYPE svg PUBLIC "-//W3C//DTD SVG 1.1//EN" "http://www.w3.org/Graphics/SVG/1.1/DTD/svg11.dtd"><svg t="1653498438708" class="icon" viewBox="0 0 1024 1024" version="1.1" xmlns="http://www.w3.org/2000/svg" p-id="7322" xmlns:xlink="http://www.w3.org/1999/xlink" width="128" height="128"><defs><style type="text/css"></style></defs><path d="M885.7 194.7l-37-0.6c-0.9 0-83.8-1.8-169.4-36.5-87.9-35.7-144.5-76.6-145-77L512 64.4l-22.2 16.2c-0.5 0.4-57.2 41.3-145 77-85.6 34.7-168.6 36.5-169.3 36.5l-37.2 0.6v376.7c0 189.1 243.1 389 373.8 389 130.8 0 373.8-199.9 373.8-389l-0.2-376.7z" fill="#FF7F67" p-id="7323"></path><path d="M672.9 759L512.4 655.9 351.8 759l48.5-184.7-147.6-120.7 190.2-11.2 69.5-176.6 69 177.1 190.1 11.2L624 574.7z" fill="#FFFFFF" p-id="7324"></path></svg>