<?xml version="1.0" encoding="utf-8"?>
<!-- Generator: Adobe Illustrator 25.0.1, SVG Export Plug-In . SVG Version: 6.00 Build 0)  -->
<svg version="1.1" id="图层_1" xmlns="http://www.w3.org/2000/svg" xmlns:xlink="http://www.w3.org/1999/xlink" x="0px" y="0px"
	 viewBox="0 0 2500 2500" style="enable-background:new 0 0 2500 2500;" xml:space="preserve">
<style type="text/css">
	.st0{fill:#FF451F;}
</style>
<path class="st0" d="M1696,1435c-63.1,346-360.2,629.1-818.7,629.1C329.7,2064.1,0,1661.9,0,1203.5c0-449.2,313.4-861.1,872.5-861.1
	c479.6,0,776.8,301.7,821.1,678.3h-395.3c-35-191.8-180.1-336.7-421-336.7c-313.6,0-491.3,248-491.3,519.5
	c0,287.6,198.8,519.3,496,519.3c219.9,0,364.9-126.4,411.7-287.7H1696L1696,1435z M2155.2,380.6l-241.6,103.5l302.8,708
	l-302.9,708.3l241.7,103.3l203.2-478.6l1.1,2.2l140.6-335.2L2155.2,380.6z"/>
</svg>
