<?xml version="1.0" encoding="utf-8"?>
<!-- Generator: Adobe Illustrator 25.4.1, SVG Export Plug-In . SVG Version: 6.00 Build 0)  -->
<svg version="1.1" id="Layer_1" xmlns="http://www.w3.org/2000/svg" xmlns:xlink="http://www.w3.org/1999/xlink" x="0px" y="0px"
	 viewBox="0 0 102.3 104.5" style="enable-background:new 0 0 102.3 104.5;" xml:space="preserve">
<style type="text/css">
	.st0{fill-rule:evenodd;clip-rule:evenodd;fill:#6699CB;}
	
		.st1{clip-path:url(#SVGID_00000182486446684003062240000005366179573293007519_);fill:url(#SVGID_00000017499587098165909270000000966121275340291259_);}
	.st2{fill-rule:evenodd;clip-rule:evenodd;fill:#7BA7D3;}
	.st3{fill-rule:evenodd;clip-rule:evenodd;fill:#2F6799;}
</style>
<path class="st0" d="M51.2,53L0.1,23.4v47.5l51.1,33.7V53z"/>
<g>
	<defs>
		<polygon id="SVGID_1_" points="0,23.4 51.2,53 102.3,25.8 49.9,0 		"/>
	</defs>
	<clipPath id="SVGID_00000138551370114260909630000002540981280252920480_">
		<use xlink:href="#SVGID_1_"  style="overflow:visible;"/>
	</clipPath>
	
		<linearGradient id="SVGID_00000160182506923161937820000007286772904056725174_" gradientUnits="userSpaceOnUse" x1="76.106" y1="65.616" x2="45.139" y2="83.508" gradientTransform="matrix(1 0 0 -1 0 106.54)">
		<stop  offset="0" style="stop-color:#AFD5E6"/>
		<stop  offset="1" style="stop-color:#AFD5E6"/>
	</linearGradient>
	
		<path style="clip-path:url(#SVGID_00000138551370114260909630000002540981280252920480_);fill:url(#SVGID_00000160182506923161937820000007286772904056725174_);" d="
		M0,0h102.3v53H0V0z"/>
</g>
<path class="st2" d="M51.2,53l51.1-27.2v47.5l-51.1,31.3V53z"/>
<path class="st0" d="M51.4,12.8l-3,0.3L48,13.3l-0.5,0l-0.4,0.2L44.8,14l-0.3,0.1l-0.3,0l-0.3,0.2L39.7,16l-0.2,0.2
	c-1.9,0.8-3.5,1.8-5.2,2.7L34.1,19c-1.5,0.8-2,1.3-3.1,2.3l-0.2,0.2l-1.1,1.4l-0.2,0.2l-0.4,0.7L28.9,24c-1.2,2.8-1.2,3.2-0.9,6.4
	l0.2,0.3v0.3l0.1,0.3l0.4,1l0.2,0.2l0.2,0.5l0.2,0.2c0.6,1.1,1.4,2,2.1,2.8c0.4,0.4,2.2,1.9,2.9,2.2l0.2,0.2
	c1.4,0.7,2.4,1.5,4.2,2.1l0.2,0.2l3.4,1.1l0.4,0.2c1.2,0.1,2.4,0.5,3.8,0.7c1.4,0.2,2.2-0.5,3.4-1l0.2-0.2h0.2l0.2-0.2l5.5-2.5
	l0.2-0.2h0.2l0.2-0.2l3.1-1.5l-0.3-0.1c-1.9-0.1-4,0.2-6,0.2c-2,0-3.9-0.4-5.7-0.5l-0.4-0.2c-1.3-0.1-2.7-0.7-3.8-1.1l-0.2-0.2
	c-1.9-0.7-3.6-2.1-4.4-3.6c-1.3-2.4-0.5-4.2,0.5-6.2l0.2-0.2l0.2-0.3l0.2-0.2c1-1.4,3.4-3.4,5.8-4.1l0.2-0.2l2.5-0.7l0.4-0.2l0.4,0
	l0.4-0.2l1.7-0.1c0.4-0.3,0.6-0.2,1.2-0.2h3.9c0.6,0,1.2,0,1.6,0.2l2.3,0.3l0.3,0.2c1.4,0.2,2.6,1,3.7,1.4l0.2,0.2l0.7,0.3l0.2,0.2
	c1.2,0.6,3.4,2.6,3.9,4.2l0.2,0.3c0.5,1.8,0.4,2.4,0,4.2l-0.2,0.3L68.9,32l1-0.4l0.2-0.2l7.6-3.9l0.2-0.2l1.8-0.9l0.2-0.2l1.8-0.9
	l0.2-0.2c0.1-0.4-2.3-2.3-2.8-2.8l-0.2-0.2c-0.6-0.5-1.5-1.3-2.2-1.7l-0.2-0.2c-0.7-0.4-1.3-1-2-1.4l-0.2-0.2l-1.8-1l-0.2-0.2
	l-2.4-1.2L69.7,16l-3.1-1.3l-0.3-0.2L64.5,14l-0.3-0.2h-0.3l-0.4-0.2h-0.3l-0.3-0.2c-1.5-0.1-3.2-0.6-4.9-0.8c-2-0.2-4,0-5.8-0.1
	L51.4,12.8L51.4,12.8z"/>
<path class="st3" d="M77.6,38.9l1.9-1v49.3l-1.9,1.2V38.9z"/>
</svg>
