<?xml version="1.0" standalone="no"?><!DOCTYPE svg PUBLIC "-//W3C//DTD SVG 1.1//EN" "http://www.w3.org/Graphics/SVG/1.1/DTD/svg11.dtd"><svg t="1735023725145" class="icon" viewBox="0 0 1024 1024" version="1.1" xmlns="http://www.w3.org/2000/svg" p-id="40196" xmlns:xlink="http://www.w3.org/1999/xlink" width="128" height="128"><path d="M488.092887 1024c-7.097825-1.349526-14.323769-1.135994-21.481383-1.776591a511.709596 511.709596 0 0 1-237.533698-82.944615 10.095823 10.095823 0 0 1-4.988122-7.687175c-3.262779-22.480715-5.978914-45.029761-7.909249-67.66422-1.315361-15.698919-2.220739-31.432003-2.365941-47.207794 0-2.912585 0.683304-4.014413 3.758174-3.869211 22.010944 1.007874 44.030428 0.905378 66.049913 0.051248 14.340851-0.563726 28.630455-1.776591 42.877352-3.416523a6.93554 6.93554 0 0 1 4.808755 0.854131A343.633792 343.633792 0 0 0 464.826371 857.547044c57.952756 7.78967 114.45349 1.597224 169.186174-18.944615 65.093287-24.41105 118.220206-64.91392 159.34659-120.850928A340.405178 340.405178 0 0 0 857.026024 561.163753c9.993327-71.243027-0.700387-139.317229-32.610703-203.701588-33.524623-67.647137-84.140398-119.065795-150.890698-154.384092a340.48205 340.48205 0 0 0-117.946884-36.941145 350.543707 350.543707 0 0 0-80.194314-0.905379c0.854131-3.040705 3.254237-4.757507 4.97958-6.833044a775.319899 775.319899 0 0 1 68.091286-71.055118c2.613639-2.408648 2.246363-3.5361-0.12812-5.765381C519.089283 54.168958 488.682237 28.186307 455.695716 5.227279a2.562392 2.562392 0 0 1-1.392233-2.02429c5.321233-0.52102 10.625384-1.135994 15.938076-1.545976 77.785667-5.978914 153.25664 4.270653 226.054184 32.576538 92.843988 36.087015 168.844522 94.441212 228.163886 174.370746 42.46737 57.226745 71.32844 120.86801 87.121313 190.325905a512.922461 512.922461 0 0 1-272.971573 572.378486 503.860136 503.860136 0 0 1-132.014414 44.064594 474.768451 474.768451 0 0 1-68.432937 7.994661c-0.854131 0-1.708261-0.230615-2.323235 0.632057z" fill="#44A849" p-id="40197"></path><path d="M0.025624 483.882023c1.443481-6.499933 1.247031-13.162151 1.853463-19.747497a502.83518 502.83518 0 0 1 18.876285-97.943147c1.093287-3.655679 2.178033-7.311357 3.561724-11.957828 3.595889 7.422394 6.730549 14.041906 10.001868 20.601629q14.65688 29.356466 31.935941 57.226744c1.37515 2.212198 1.469104 3.46777-0.71747 5.218738a695.783264 695.783264 0 0 0-63.205659 57.739223c-0.649139 0.674763-1.127452 1.708261-2.331776 1.614307zM154.759909 274.833578c2.365942-0.606433 1.981583 1.366609 2.178033 2.844255 2.810089 21.233685 6.619512 42.305085 11.291606 63.205658 1.520352 6.781796 3.126118 13.54651 4.902709 20.259976 0.632057 2.400107 0.350194 3.715468-2.02429 5.013746a672.772988 672.772988 0 0 0-69.227278 43.509409c-1.708261 1.238489-2.716135 1.836381-4.202323-0.58935a692.862138 692.862138 0 0 1-51.077005-101.504871c-0.854131-2.032831-0.948085-3.211531 1.605766-4.125451a701.292406 701.292406 0 0 1 105.442413-28.493794c0.281863-0.051248 0.572267-0.059789 1.110369-0.119578zM180.366742 779.932203c-19.943948-2.254905-39.016682-4.953957-57.969838-8.541305-16.570132-3.134659-32.91819-7.191779-49.300414-11.103697-3.681303-0.854131-4.270653-2.101161-3.117576-5.69705A694.408114 694.408114 0 0 1 106.791939 661.208061c3.86067-8.003203 3.954624-7.98612 11.84679-3.715468a660.046443 660.046443 0 0 0 67.98879 32.354464c3.416522 1.366609 3.971707 3.177366 3.484853 6.380355-3.98879 26.409716-5.782464 53.00734-6.551182 79.681837-0.111037 2.818631-0.281863 4.988122-3.194448 4.022954zM12.376351 541.458962a651.505138 651.505138 0 0 1 55.928467-55.569732c6.286401-5.534766 12.752169-10.86454 19.064193-16.373682 1.76805-1.545976 2.622181-1.528894 4.12545 0.597891a672.465501 672.465501 0 0 0 49.069799 61.582811c1.802215 2.007207 1.708261 3.262779 0.170826 5.36394A680.161217 680.161217 0 0 0 98.780195 602.162018c-1.11037 1.9645-1.759509 2.707594-4.014414 1.255572a681.775524 681.775524 0 0 1-80.732417-60.404111c-0.529561-0.469772-1.033498-0.965167-1.657013-1.554517zM193.844922 169.117843c0.597891-13.034032 1.238489-26.059522 1.793674-39.093554 0.153743-3.758174 0.91392-5.423729 5.620179-4.731883a709.876418 709.876418 0 0 1 89.777659 18.918991c2.066996 0.580809 4.005872 0.563726 2.869879 3.98879a708.569598 708.569598 0 0 0-18.918991 68.84292c-0.597891 2.673429-1.648472 3.416522-4.270653 3.416522a621.345789 621.345789 0 0 0-72.601094 4.330442c-2.468437 0.298946-3.237155-0.384359-3.296944-2.869879-0.427065-17.569465-1.443481-35.156012-0.973709-52.802349zM423.802482 144.125984l-1.83638-0.896837c-20.362472-9.754171-41.040972-18.790871-62.257574-26.478046-2.041372-0.743094-2.861337-1.426398-1.819298-3.894835a701.6426 701.6426 0 0 1 39.717069-79.63913c1.563059-2.699052 2.690511-2.835713 5.124783-1.238489a713.557721 713.557721 0 0 1 70.593888 52.101962c2.058455 1.708261 1.708261 2.562392 0.162285 4.219404q-24.727079 26.213266-47.344455 54.262912c-0.580809 0.708928-0.973709 1.827839-2.340318 1.563059zM190.855465 911.024156a516.877085 516.877085 0 0 1-106.655278-117.015882c9.002536 1.913252 17.219271 3.724009 25.461631 5.406647a631.962632 631.962632 0 0 0 70.200987 10.522888c1.930335 0.170826 3.501935 0.222074 3.553183 2.997998a902.183905 902.183905 0 0 0 7.439477 98.088349zM4.526892 580.441479c5.227279 4.108368 10.249566 7.994662 15.18644 11.957827a638.778593 638.778593 0 0 0 57.722141 40.733485c2.94675 1.853463 3.237155 3.185907 1.708261 6.243694a663.138396 663.138396 0 0 0-32.901108 77.495262c-0.452689 1.289737-0.922461 2.562392-1.417856 3.980248C32.772988 705.511811 5.150407 609.422127 4.526892 580.441479zM71.840918 249.756306a516.330442 516.330442 0 0 1 79.160817-101.223008c0 4.748966 0.162285 8.729214 0 12.700921-1.050581 22.301348-0.111037 44.568531 1.144535 66.81863 0.12812 2.331776-0.3929 3.356733-2.664887 3.766716a728.522087 728.522087 0 0 0-76.085947 17.99653 6.166822 6.166822 0 0 1-1.554518-0.059789zM233.305752 82.372348a508.4639 508.4639 0 0 1 111.891098-54.578941c0.811424 1.460563-0.435607 2.391565-0.965167 3.416522Q326.790338 63.67543 312.637395 97.738156c-0.734552 1.776591-1.229948 2.989457-3.544642 2.314693a728.846657 728.846657 0 0 0-75.787001-17.680501zM219.947151 703.709596a370.231416 370.231416 0 0 0 71.225944 78.409182c-6.909916 0.401441-12.726545 0.939544-18.551715 1.042039-18.457761 0.333111-36.915521 0.606433-55.36474-0.555185-1.938876-0.119578-3.416522 0-3.416523-2.827172a557.747231 557.747231 0 0 1 6.107034-76.068864zM166.47858 561.044175A353.362338 353.362338 0 0 0 193.913252 655.587882c-6.337648-2.784466-11.838249-5.124783-17.253436-7.601762Q152.914987 637.019084 129.990124 624.369411c-2.263446-1.238489-3.032163-2.169492-1.554517-4.731883 11.300147-19.533965 23.369011-38.572534 36.368877-57.013212a15.741626 15.741626 0 0 1 1.674096-1.580141zM179.452823 406.036567c-9.61751 30.347257-14.580008 60.566395-16.185774 91.836114-2.673429-1.545976-3.86067-3.715468-5.363939-5.492059q-18.577339-21.942613-35.190178-45.41412c-1.204324-1.708261-2.323235-2.869879 0.264781-4.697718 17.979447-12.69238 36.38596-24.692913 56.47511-36.232217zM266.787668 263.815294a359.494995 359.494995 0 0 0-55.595355 71.422395c-1.776591-8.541305-3.416522-15.989323-4.877085-23.48859-2.622181-13.358601-4.800214-26.785533-6.645136-40.263713-0.350194-2.562392 0.153743-3.698385 2.801548-3.929 20.225811-1.776591 40.425998-3.783798 60.754304-3.894835 0.819965-0.008541 1.639931 0.06833 3.561724 0.153743zM323.493394 218.572001c4.475644-19.516882 9.839584-37.974643 15.83558-56.270119 0.91392-2.793007 2.442813-1.614307 3.929-1.067663q21.780328 7.977579 42.868811 17.646336l9.463766 4.338983a357.470706 357.470706 0 0 0-72.097157 35.352463z" fill="#44A949" p-id="40198"></path></svg>