<?xml version="1.0" standalone="no"?><!DOCTYPE svg PUBLIC "-//W3C//DTD SVG 1.1//EN" "http://www.w3.org/Graphics/SVG/1.1/DTD/svg11.dtd"><svg t="1653738181838" class="icon" viewBox="0 0 1024 1024" version="1.1" xmlns="http://www.w3.org/2000/svg" p-id="3678" xmlns:xlink="http://www.w3.org/1999/xlink" width="128" height="128"><defs><style type="text/css"></style></defs><path d="M1000.506514 783.213714l-106.671543-705.097143-0.175542-0.877714C884.970057 30.427429 853.577143 0 813.436343 0H208.778971c-22.908343 1.784686-63.546514 13.867886-77.736228 75.776l-0.175543 0.702171L1.989486 796.408686l0.731428 0.175543c-1.784686 9.069714-2.6624 18.490514-2.6624 28.086857v24.195657c0 83.382857 67.584 151.3472 151.025372 151.3472H855.186286c83.236571 0 151.025371-67.935086 151.025371-151.3472v-24.195657c0-14.394514-1.930971-28.2624-5.675886-41.428115zM204.536686 101.814857c6.085486-24.517486 16.062171-26.711771 21.650285-27.384686h572.708572c14.043429 0 19.104914 21.123657 19.953371 26.185143l86.776686 573.118172a143.915886 143.915886 0 0 0-66.998857-16.559543H167.643429c-23.669029 0-45.992229 5.7344-65.799315 15.886628L204.536686 101.814857z m732.218514 740.732343c0 46.606629-39.789714 84.348343-88.970971 84.348343H158.456686c-49.152 0-88.941714-37.741714-88.941715-84.348343v-22.410971c0-46.635886 39.789714-84.348343 88.941715-84.348343h689.298285c39.1168 0 72.323657 23.873829 84.289829 57.168457l4.183771 26.331428h0.526629v23.259429z" fill="#ffffff" p-id="3679"></path><path d="M251.026286 806.356114H130.486857c-16.676571 0-30.134857 13.5168-30.134857 30.222629 0 16.735086 13.633829 30.251886 30.134857 30.251886h120.539429c16.501029 0 30.134857-13.5168 30.134857-30.251886 0-16.705829-13.663086-30.222629-30.134857-30.222629z m123.4944-241.342171h316.474514c34.581943 0 65.828571-13.312 87.478857-36.981029 25.570743-28.086857 37.098057-68.988343 32.855772-115.068343-6.407314-71.826286-66.033371-105.091657-109.860572-125.191314-10.122971-80.193829-74.722743-142.453029-151.932343-142.453028-42.773943 0-83.587657 19.397486-112.522971 52.662857-47.396571 0.351086-89.468343 32.3584-105.969372 78.409143-47.191771 16.003657-112.347429 45.173029-122.821485 129.989485-4.096 32.738743 5.149257 63.868343 26.097371 89.994972 34.084571 41.808457 94.968686 64.746057 140.200229 68.637257z m-95.202743-154.360686c5.9392-49.883429 41.486629-64.804571 91.457828-81.1008l16.764343-5.588114 3.364572-16.471772c5.441829-26.126629 26.097371-45.290057 49.9712-45.290057 2.545371 0 5.061486 0.175543 7.606857 0.672915l18.285714 3.042742 10.532572-15.096685c16.910629-24.7808 42.656914-38.853486 70.421942-38.853486 48.420571 0 88.210286 44.295314 88.8832 98.245486l0.175543 18.490514 18.6368 8.309029c44.178286 19.514514 81.276343 38.677943 84.992 78.409142 2.691657 27.794286-3.042743 51.053714-16.413257 65.828572-10.005943 11.351771-23.873829 16.7936-40.989257 16.7936H384.994743c-31.158857-3.218286-72.469943-19.192686-92.9792-44.6464-10.474057-13.048686-14.716343-26.975086-12.6976-42.744686z" fill="#ffffff" p-id="3680"></path></svg>