<?xml version="1.0" standalone="no"?><!DOCTYPE svg PUBLIC "-//W3C//DTD SVG 1.1//EN" "http://www.w3.org/Graphics/SVG/1.1/DTD/svg11.dtd"><svg t="1651640482621" class="icon" viewBox="0 0 1024 1024" version="1.1" xmlns="http://www.w3.org/2000/svg" p-id="8560" xmlns:xlink="http://www.w3.org/1999/xlink" width="600" height="600"><defs><style type="text/css"></style></defs><path d="M670.72 921.6H411.794286C281.6 921.6 175.542857 815.542857 175.542857 685.348571V426.422857C175.542857 296.228571 281.6 190.171429 411.794286 190.171429h258.925714c130.194286 0 236.251429 106.057143 236.251429 236.251428v258.925714c0 130.194286-106.057143 236.251429-236.251429 236.251429z" fill="#046DC5" p-id="8561"></path><path d="M391.314286 585.142857c201.142857 0 381.805714-87.771429 505.417143-226.742857-29.257143-97.28-119.222857-168.228571-226.011429-168.228571H411.794286C281.6 190.171429 175.542857 296.228571 175.542857 426.422857v123.611429c68.022857 22.674286 140.434286 35.108571 215.771429 35.108571z" fill="#1FA4E5" p-id="8562"></path><path d="M369.371429 376.685714m-87.771429 0a87.771429 87.771429 0 1 0 175.542857 0 87.771429 87.771429 0 1 0-175.542857 0Z" fill="#FFFFFF" p-id="8563"></path><path d="M672.914286 680.228571m-146.285715 0a146.285714 146.285714 0 1 0 292.571429 0 146.285714 146.285714 0 1 0-292.571429 0Z" fill="#FFFFFF" p-id="8564"></path><path d="M153.6 153.6m-65.828571 0a65.828571 65.828571 0 1 0 131.657142 0 65.828571 65.828571 0 1 0-131.657142 0Z" fill="#046DC5" p-id="8565"></path></svg>