<?xml version="1.0" standalone="no"?><!DOCTYPE svg PUBLIC "-//W3C//DTD SVG 1.1//EN" "http://www.w3.org/Graphics/SVG/1.1/DTD/svg11.dtd"><svg t="1722411397210" class="icon" viewBox="0 0 1024 1024" version="1.1" xmlns="http://www.w3.org/2000/svg" p-id="7343" xmlns:xlink="http://www.w3.org/1999/xlink" width="128" height="128"><path d="M269.9264 102.4v212.8384c0 19.968 14.848 36.5568 34.1504 39.168l5.376 0.3584h276.9408c19.968 0 36.5568-14.848 39.168-34.1504l0.3584-5.376V102.4h81.5104l158.208 158.208v593.408c0 20.0192-14.848 36.5568-34.2016 39.168l-5.3248 0.4096H193.1776a39.5776 39.5776 0 0 1-39.2192-34.2016L153.6 854.016V141.9776c0-20.0704 14.848-36.608 34.2016-39.2192L193.1776 102.4h76.7488z m437.504 332.6976H311.808a39.5776 39.5776 0 0 0-39.2192 34.2016l-0.3584 5.3248v276.9408c0 20.0192 14.848 36.5568 34.2016 39.168l5.376 0.3584h395.5712c19.968 0 36.5568-14.848 39.168-34.1504l0.3584-5.376V474.624a39.5776 39.5776 0 0 0-39.5264-39.5264z m-41.984 221.1328a39.5776 39.5776 0 0 1 0 79.104h-316.416a39.5776 39.5776 0 0 1 0-79.104z m0-158.208a39.5776 39.5776 0 0 1 0 79.104h-316.416a39.5776 39.5776 0 0 1 0-79.1552zM544.512 102.4c26.368 0 39.5264 13.2096 39.5264 39.5776V260.608c0 26.368-13.1584 39.5264-39.5264 39.5264H346.624c-26.368 0-39.5264-13.1584-39.5264-39.5264V141.9776c0-26.368 13.1584-39.5776 39.5264-39.5776h197.8368z" fill="#749DDD" p-id="7344"></path></svg>