<?xml version="1.0" standalone="no"?><!DOCTYPE svg PUBLIC "-//W3C//DTD SVG 1.1//EN" "http://www.w3.org/Graphics/SVG/1.1/DTD/svg11.dtd"><svg t="1722411486201" class="icon" viewBox="0 0 1144 1024" version="1.1" xmlns="http://www.w3.org/2000/svg" p-id="8351" xmlns:xlink="http://www.w3.org/1999/xlink" width="143" height="128"><path d="M1079.717012 258.168921V225.882822c-1.987764-82.733128-70.143959-148.720854-153.419204-148.600383H473.87078A165.978255 165.978255 0 0 0 347.015325 0.000602H153.59991C70.324665-0.240339 2.108234 65.657034 0 148.329927V870.701267c2.108234 82.642775 70.264429 148.479913 153.479439 148.329324h832.631981c83.21501 0.180706 151.341087-65.656432 153.479439-148.329324V374.212147a154.804615 154.804615 0 0 0-59.843729-116.043226z m-153.539674-103.303469A72.914781 72.914781 0 0 1 999.604118 225.882822H573.921545a69.782547 69.782547 0 0 1-66.740667-51.501146l-6.686114-19.546341h425.682574z m126.855454 702.824999a72.914781 72.914781 0 0 1-73.456898 71.077605H146.853561a72.914781 72.914781 0 0 1-73.426781-71.077605V148.329927c0.903529-20.058341 9.938818-38.911977 25.02775-52.254087 15.058815-13.372227 34.93645-20.178812 55.115262-18.793401h193.716592a78.064895 78.064895 0 0 1 73.396663 51.802323l19.967988 64.542079a136.342508 136.342508 0 0 0 140.046976 103.303469h398.847766a72.914781 72.914781 0 0 1 73.42678 71.077605v489.682536h0.060235z m0 0l-525.733337-103.03241H226.876102a38.972212 38.972212 0 0 0-34.93645 18.883753 38.460213 38.460213 0 0 0 0 39.51433c7.288466 12.167522 20.690811 19.425871 34.93645 18.883754h300.333c14.245639 0.542117 27.647984-6.716231 34.93645-18.883754a38.460213 38.460213 0 0 0 0-39.51433 38.972212 38.972212 0 0 0-34.93645-18.883753l525.82369 103.03241z" fill="#1890FF" p-id="8352"></path></svg>