<?xml version="1.0" encoding="UTF-8"?>
<svg width="600px" height="400px" viewBox="0 0 600 400" version="1.1" xmlns="http://www.w3.org/2000/svg" xmlns:xlink="http://www.w3.org/1999/xlink">
    <title>3</title>
    <g id="页面-1" stroke="none" stroke-width="1" fill="none" fill-rule="evenodd">
        <g id="画板" transform="translate(-161.000000, -2197.000000)">
            <g id="3" transform="translate(161.000000, 2197.000000)">
                <rect id="矩形" x="0" y="0" width="600" height="400"></rect>
                <g transform="translate(40.677966, 213.559322)" fill-rule="nonzero">
                    <path d="M123.430833,84.3085489 C123.700427,84.3079913 123.967542,84.3612627 124.215509,84.4665184 C125.231048,84.8953728 125.704854,86.0620346 125.273788,87.0723393 L119.590312,100.392675 C115.426414,110.151595 105.811036,116.497335 95.1543752,116.519351 L59.665,116.638968 L42.9204554,155.912376 C38.5415784,166.116174 28.4651315,172.736262 17.3127888,172.736262 L2.09051175,172.736262 C0.935954166,172.736262 0,171.805136 0,170.656535 C0,170.375858 0.0571077503,170.098084 0.167885728,169.839948 L29.4189169,101.234149 C33.7977939,91.0303505 43.8742392,84.4102637 55.0265822,84.4102637 L70.2488608,84.4102637 C70.4421237,84.4102637 70.6292612,84.4363537 70.806909,84.4851864 L123.430833,84.3085489 Z M208.876171,26.4969719 C209.16443,26.4969719 209.439062,26.555014 209.688903,26.6599914 L250.119542,26.5451535 C250.665117,26.5131548 251.21388,26.4969719 251.765273,26.4969719 L266.987552,26.4969719 C268.142109,26.4969719 269.07806,27.4280972 269.07806,28.5766984 C269.07806,28.8573759 269.020954,29.1351492 268.910177,29.3932861 L219.121862,154.202025 C216.882467,159.420334 213.152938,163.701363 208.551438,166.63899 C204.05641,169.987971 198.514319,171.910011 192.657732,171.922111 L118.471276,172.113445 C118.201682,172.114003 117.934567,172.060731 117.6866,171.955476 C116.671062,171.526621 116.197255,170.359961 116.62832,169.349656 L122.311797,156.029319 C123.051991,154.294529 123.964452,152.667596 125.024408,151.16487 L168.046227,43.3208577 C172.425104,33.1170588 182.501549,26.4969719 193.653892,26.4969719 L208.876171,26.4969719 Z M327.52024,26.4969719 C328.674796,26.4969719 329.610748,27.4280972 329.610748,28.5766984 C329.610748,28.8573759 329.553641,29.1351492 329.442864,29.3932861 L285.383,139.840968 L322.770379,139.711306 C322.986054,139.71086 323.200142,139.744865 323.40411,139.812376 L323.555054,139.869277 C324.570593,140.29813 325.044399,141.464792 324.613334,142.475098 L318.929858,155.795433 C314.76596,165.554353 305.150581,171.900094 294.493921,171.922109 L239.536652,172.113445 C239.267058,172.114002 238.999943,172.06073 238.751976,171.955474 C238.160771,171.705813 237.753163,171.206102 237.600801,170.632759 C237.075983,170.255143 236.734094,169.640384 236.734094,168.946184 C236.734094,168.665507 236.791202,168.387733 236.901979,168.129596 L286.690295,43.3208577 C291.069172,33.1170588 301.145617,26.4969719 312.297961,26.4969719 L327.52024,26.4969719 Z M480.062611,26.4969691 C481.217169,26.4969691 482.153121,27.4280943 482.153121,28.5766955 C482.153121,28.857373 482.096014,29.1351464 481.985236,29.3932831 L459.930203,84.6793501 C464.670726,79.9594217 471.022337,77.1088487 477.760567,76.9751732 L519.052757,76.0543244 C519.311513,76.0491905 519.566958,76.0975603 519.80315,76.1978182 C520.770469,76.6063089 521.205185,77.7564636 520.77412,78.7667684 L517.744,85.8659677 L490.308302,154.202022 C486.077417,164.060965 476.527573,170.574339 465.82751,171.00334 C463.611286,171.600196 461.295127,171.917214 458.927572,171.922105 L392.079027,172.11344 C391.809433,172.113998 391.542318,172.060726 391.294351,171.95547 C390.702805,171.705665 390.295069,171.205522 390.142913,170.631763 C389.617959,170.254429 389.276466,169.639979 389.276466,168.946181 C389.276466,168.665504 389.333574,168.387731 389.444352,168.129594 L439.232668,43.3208544 C443.611545,33.1170558 453.68799,26.4969691 464.840333,26.4969691 L480.062611,26.4969691 Z M417.108617,26.4969719 C418.263174,26.4969719 419.199126,27.4280972 419.199126,28.5766984 C419.199126,28.8573759 419.142019,29.1351492 419.031242,29.3932861 L369.242927,154.202025 C364.864051,164.405824 354.787603,171.025911 343.635259,171.025911 L328.412983,171.025911 C327.258426,171.025911 326.322472,170.094785 326.322472,168.946184 C326.322472,168.665507 326.379579,168.387733 326.490356,168.129596 L376.278673,43.3208577 C380.657549,33.1170588 390.733995,26.4969719 401.886339,26.4969719 L417.108617,26.4969719 Z M471.312,108.958968 L450.068814,109.432887 C450.064781,109.432967 450.06075,109.433034 450.056719,109.433088 L437.921,139.851968 L458.933,139.791968 L471.312,108.958968 Z M219.998,58.7599677 L199.059,58.8199677 L166.735,139.850968 L187.671,139.796968 L219.998,58.7599677 Z M146.773099,26.4969721 C147.042692,26.4964145 147.309808,26.5496859 147.557775,26.6549415 C148.573314,27.0837961 149.047119,28.2504578 148.616054,29.2607625 L142.932578,42.5810985 C138.76868,52.3400183 129.153302,58.6857587 118.496641,58.7077747 L38.5681284,58.8991096 C38.2985347,58.8996675 38.0314198,58.8463957 37.7834528,58.74114 C36.7679139,58.3122861 36.2941072,57.1456256 36.7251726,56.1353204 L42.4086496,42.8149835 C46.5725474,33.0560638 56.1879251,26.7103249 66.8445856,26.6883082 L146.773099,26.4969721 Z" id="形状结合" fill="#1890FF"></path>
                    <path d="M429.215154,0 C430.369712,0 431.305663,0.931125153 431.305663,2.07972631 C431.305663,2.36040386 431.248556,2.63817727 431.137779,2.89631405 L423.013695,21.3587191 C421.403351,20.0532651 419.347867,19.270525 417.108617,19.270525 L401.886339,19.270525 C396.067075,19.270525 390.48014,20.7000543 385.53854,23.2877734 L388.38521,16.8238854 C392.764087,6.62008663 402.840532,0 413.992876,0 L429.215154,0 Z" id="形状结合备份-2" fill="#FF3200"></path>
                </g>
            </g>
        </g>
    </g>
</svg>
