<?xml version="1.0" standalone="no"?><!DOCTYPE svg PUBLIC "-//W3C//DTD SVG 1.1//EN" "http://www.w3.org/Graphics/SVG/1.1/DTD/svg11.dtd"><svg t="1653739750883" class="icon" viewBox="0 0 1024 1024" version="1.1" xmlns="http://www.w3.org/2000/svg" p-id="5231" xmlns:xlink="http://www.w3.org/1999/xlink" width="128" height="128"><defs><style type="text/css"></style></defs><path d="M128 166.4a4.266667 4.266667 0 0 0-4.266667 4.266667v170.666666a4.266667 4.266667 0 0 0 4.266667 4.266667h768a4.266667 4.266667 0 0 0 4.266667-4.266667V170.666667a4.266667 4.266667 0 0 0-4.266667-4.266667H128zM59.050667 640a80.682667 80.682667 0 0 1-12.117334-42.666667v-170.666666c0-15.658667 4.437333-30.293333 12.117334-42.666667A80.682667 80.682667 0 0 1 46.933333 341.333333V170.666667c0-44.8 36.266667-81.066667 81.066667-81.066667h768c44.8 0 81.066667 36.266667 81.066667 81.066667v170.666666c0 15.658667-4.437333 30.293333-12.117334 42.666667 7.68 12.373333 12.117333 27.008 12.117334 42.666667v170.666666c0 15.658667-4.437333 30.293333-12.117334 42.666667 7.68 12.373333 12.117333 27.008 12.117334 42.666667v170.666666a81.066667 81.066667 0 0 1-81.066667 81.066667H128A81.066667 81.066667 0 0 1 46.933333 853.333333v-170.666666c0-15.658667 4.437333-30.293333 12.117334-42.666667zM896 601.6a4.266667 4.266667 0 0 0 4.266667-4.266667v-170.666666a4.266667 4.266667 0 0 0-4.266667-4.266667H128a4.266667 4.266667 0 0 0-4.266667 4.266667v170.666666a4.266667 4.266667 0 0 0 4.266667 4.266667h768zM128 678.4a4.266667 4.266667 0 0 0-4.266667 4.266667v170.666666a4.266667 4.266667 0 0 0 4.266667 4.266667h768a4.266667 4.266667 0 0 0 4.266667-4.266667v-170.666666a4.266667 4.266667 0 0 0-4.266667-4.266667H128zM768 298.666667a42.666667 42.666667 0 1 0 0-85.333334 42.666667 42.666667 0 0 0 0 85.333334z m0 256a42.666667 42.666667 0 1 1 0-85.333334 42.666667 42.666667 0 0 1 0 85.333334z m0 256a42.666667 42.666667 0 1 1 0-85.333334 42.666667 42.666667 0 0 1 0 85.333334z" p-id="5232" fill="#ffffff"></path></svg>