<?xml version="1.0" standalone="no"?><!DOCTYPE svg PUBLIC "-//W3C//DTD SVG 1.1//EN" "http://www.w3.org/Graphics/SVG/1.1/DTD/svg11.dtd"><svg t="1729487599718" class="icon" viewBox="0 0 1024 1024" version="1.1" xmlns="http://www.w3.org/2000/svg" p-id="18489" width="16" height="16" xmlns:xlink="http://www.w3.org/1999/xlink"><path d="M512 20.48c271.4624 0 491.52 220.0576 491.52 491.52S783.4624 1003.52 512 1003.52 20.48 783.4624 20.48 512 240.5376 20.48 512 20.48z m7.18848 314.368l-3.31776 3.21536-3.85024 3.76832-6.3488-6.144c-70.22592-66.3552-180.38784-65.00352-248.6272 2.78528a176.35328 176.35328 0 0 0-3.64544 246.84544l3.21536 3.31776 215.7568 214.2208a56.25856 56.25856 0 0 0 74.38336 4.32128l1.82272-1.51552 3.05152-2.78528 215.32672-213.8112a176.37376 176.37376 0 0 0 0-250.59328c-68.096-67.62496-177.8688-69.12-247.76704-3.62496z" fill="#d81e06" p-id="18490"></path><path d="M386.56 527.5648l51.11808-96.93184 91.66848 140.96384 31.3344-51.87584h262.144v40.96H583.80288l-53.1456 88.04352-89.25184-137.27744-30.1056 57.07776H204.8v-40.96z" fill="#d81e06" p-id="18491"></path></svg>