<?xml version="1.0" standalone="no"?><!DOCTYPE svg PUBLIC "-//W3C//DTD SVG 1.1//EN" "http://www.w3.org/Graphics/SVG/1.1/DTD/svg11.dtd"><svg t="1653914546955" class="icon" viewBox="0 0 1024 1024" version="1.1" xmlns="http://www.w3.org/2000/svg" p-id="7053" xmlns:xlink="http://www.w3.org/1999/xlink" width="128" height="128"><defs><style type="text/css"></style></defs><path d="M1002.666667 597.333333v42.666667a85.333333 85.333333 0 0 1-85.333334 85.333333H106.666667a85.333333 85.333333 0 0 1-85.333334-85.333333V128a85.333333 85.333333 0 0 1 85.333334-85.333333h810.666666a85.333333 85.333333 0 0 1 85.333334 85.333333z" fill="#FED049" p-id="7054"></path><path d="M128 490.666667h768v106.666666H128z" fill="#F6B445" p-id="7055"></path><path d="M725.333333 170.666667m21.333334 0l128 0q21.333333 0 21.333333 21.333333l0 42.666667q0 21.333333-21.333333 21.333333l-128 0q-21.333333 0-21.333334-21.333333l0-42.666667q0-21.333333 21.333334-21.333333Z" fill="#D0D7DF" p-id="7056"></path><path d="M192 213.333333m-64 0a64 64 0 1 0 128 0 64 64 0 1 0-128 0Z" fill="#D0D7DF" p-id="7057"></path><path d="M682.666667 661.333333m-320 0a320 320 0 1 0 640 0 320 320 0 1 0-640 0Z" fill="#35DC86" p-id="7058"></path><path d="M917.333333 21.333333H106.666667a106.794667 106.794667 0 0 0-106.666667 106.666667v512a106.794667 106.794667 0 0 0 106.666667 106.666667h170.666666a21.333333 21.333333 0 0 0 0-42.666667H106.666667a64 64 0 0 1-64-64V128a64 64 0 0 1 64-64h810.666666a64 64 0 0 1 64 64v533.333333a298.666667 298.666667 0 1 1-74.666666-197.568 21.333333 21.333333 0 0 0 32-28.224A341.333333 341.333333 0 1 0 1024 661.333333V128a106.794667 106.794667 0 0 0-106.666667-106.666667z" fill="#474C54" p-id="7059"></path><path d="M128 618.666667h128a21.333333 21.333333 0 0 0 0-42.666667H128a21.333333 21.333333 0 0 0 0 42.666667zM192 298.666667a85.333333 85.333333 0 1 0-85.333333-85.333334 85.333333 85.333333 0 0 0 85.333333 85.333334z m0-128a42.666667 42.666667 0 1 1-42.666667 42.666666 42.666667 42.666667 0 0 1 42.666667-42.666666zM874.666667 277.333333a42.666667 42.666667 0 0 0 42.666666-42.666666V192a42.666667 42.666667 0 0 0-42.666666-42.666667h-128a42.666667 42.666667 0 0 0-42.666667 42.666667v42.666667a42.666667 42.666667 0 0 0 42.666667 42.666666z m-128-85.333333h128v42.666667h-128zM128 512h64a21.333333 21.333333 0 0 0 0-42.666667H128a21.333333 21.333333 0 0 0 0 42.666667zM298.666667 469.333333h-21.333334a21.333333 21.333333 0 0 0 0 42.666667h21.333334a21.333333 21.333333 0 0 0 0-42.666667zM838.250667 539.584L618.666667 759.168l-70.250667-70.250667a21.333333 21.333333 0 0 0-30.165333 30.165334l85.333333 85.333333a21.333333 21.333333 0 0 0 30.165333 0l234.666667-234.666667a21.333333 21.333333 0 0 0-30.165333-30.165333z" fill="#474C54" p-id="7060"></path></svg>