<?xml version="1.0" standalone="no"?><!DOCTYPE svg PUBLIC "-//W3C//DTD SVG 1.1//EN" "http://www.w3.org/Graphics/SVG/1.1/DTD/svg11.dtd"><svg t="1651735119343" class="icon" viewBox="0 0 1024 1024" version="1.1" xmlns="http://www.w3.org/2000/svg" p-id="4190" xmlns:xlink="http://www.w3.org/1999/xlink" width="600" height="600"><defs><style type="text/css"></style></defs><path d="M151.466667 443.733333v-29.866666c0-4.266667-25.6-38.4-6.4-34.133334 19.2 4.266667 17.066667 59.733333 17.066666 59.733334l6.4-4.266667s23.466667-6.4 27.733334 0c6.4 19.2 66.133333 17.066667 66.133333 12.8s-8.533333-42.666667-6.4-44.8c32-32 46.933333-104.533333 42.666667-100.266667-4.266667 4.266667-59.733333 32-64 32-4.266667 0-12.8 2.133333-12.8-10.666666C226.133333 209.066667 196.266667 192 196.266667 192c-29.866667 25.6-64 121.6-64 121.6-4.266667 2.133333-14.933333-4.266667-23.466667-6.4-23.466667-10.666667-42.666667 6.4-38.4 6.4 4.266667 0 2.133333 10.666667 8.533333 21.333333 12.8 40.533333 44.8 59.733333 40.533334 61.866667-4.266667 0-12.8 2.133333-14.933334 8.533333-4.266667 6.4-2.133333 23.466667 12.8 34.133334 10.666667 12.8 34.133333 4.266667 34.133334 4.266666zM157.866667 499.2c2.133333-4.266667 4.266667-6.4 6.4-8.533333l12.8-10.666667-8.533334-10.666667H121.6v78.933334l23.466667 32H149.333333v-34.133334-2.133333l6.4-6.4 6.4-4.266667-2.133333-4.266666h-2.133333l-2.133334-2.133334-2.133333-2.133333v-17.066667c4.266667-2.133333 4.266667-8.533333 4.266667-8.533333zM130.133333 614.4l8.533334-4.266667 8.533333-4.266666 4.266667-8.533334v-10.666666h-6.4c-2.133333 0-23.466667-19.2-23.466667-19.2v44.8l8.533333 2.133333zM134.4 706.133333V640l4.266667-4.266667 14.933333-6.4v-17.066666l-32 12.8v102.4h19.2v-17.066667z" fill="#649337" p-id="4191"></path><path d="M183.466667 627.2s23.466667 14.933333 25.6 27.733333c0 4.266667 6.4 34.133333-10.666667 49.066667-6.4 4.266667-40.533333 6.4-46.933333-34.133333 0-8.533333 2.133333-27.733333 6.4-34.133334l-17.066667 10.666667V704l4.266667 4.266667v19.2H234.666667v-102.4l-23.466667-25.6c0 2.133333-4.266667 23.466667-27.733333 27.733333zM236.8 580.266667c-8.533333 10.666667-19.2 12.8-19.2 12.8 4.266667 0 19.2 17.066667 19.2 17.066666v-29.866666z" fill="#649337" p-id="4192"></path><path d="M947.2 512c-6.4-2.133333-23.466667-2.133333-29.866667-21.333333-2.133333-6.4-17.066667 2.133333-23.466666 12.8-2.133333 2.133333-2.133333 4.266667-2.133334 6.4v8.533333s-14.933333-10.666667-23.466666-6.4c-8.533333 6.4-14.933333 8.533333-12.8 17.066667 0 0 6.4 2.133333 6.4 10.666666s-4.266667 27.733333-6.4 29.866667l-2.133334 2.133333s-8.533333-14.933333-25.6-21.333333l25.6-61.866667s10.666667-4.266667 19.2 2.133334c8.533333 6.4 17.066667 25.6 17.066667 25.6s0-6.4-8.533333-23.466667c-2.133333-4.266667-8.533333-8.533333-14.933334-10.666667-4.266667-2.133333-10.666667-2.133333-10.666666-2.133333l4.266666-10.666667h-17.066666s0-10.666667 6.4-12.8H868.266667l2.133333 19.2h4.266667l2.133333-6.4h32s-14.933333-10.666667-14.933333-12.8c0-2.133333 8.533333-6.4 12.8-8.533333s19.2-12.8 19.2-14.933333h-38.4l-2.133334-17.066667s-12.8 6.4-17.066666 21.333333c0 0-12.8-4.266667-12.8 10.666667v4.266667s-14.933333-4.266667-21.333334 17.066666H746.666667l-53.333334 166.4h-6.4L629.333333 469.333333h-177.066666l-59.733334 162.133334-57.6-162.133334H179.2s0 6.4 4.266667 6.4h19.2c4.266667 0 8.533333 2.133333 19.2 17.066667 2.133333 2.133333 8.533333 2.133333 10.666666 2.133333 2.133333 0 6.4 4.266667 8.533334 4.266667h14.933333c4.266667 0 8.533333-2.133333 12.8-4.266667 2.133333-2.133333 14.933333-6.4 17.066667-8.533333 2.133333 0 8.533333-4.266667 10.666666-4.266667 2.133333 0 4.266667-2.133333 8.533334-2.133333s14.933333-2.133333 19.2 0c4.266667 2.133333 4.266667 6.4 0 8.533333-4.266667 2.133333-6.4 2.133333-8.533334 2.133334h-14.933333c-2.133333 0-12.8 2.133333-14.933333 2.133333-2.133333 0-6.4 2.133333-10.666667 6.4-4.266667 2.133333-8.533333 4.266667-10.666667 6.4h-19.2c-4.266667 0-8.533333-2.133333-12.8-2.133333-4.266667-2.133333-6.4-2.133333-8.533333-4.266667h-6.4s2.133333 17.066667-4.266667 25.6c-2.133333 2.133333-10.666667 19.2-25.6 19.2v2.133333l4.266667 2.133334v17.066666l-8.533333 10.666667 2.133333 2.133333 2.133333-2.133333s17.066667-21.333333 19.2-21.333333h6.4c0 2.133333 2.133333 6.4 0 10.666666s-19.2 17.066667-19.2 17.066667-10.666667 6.4-10.666666 8.533333c0 2.133333-2.133333 6.4 4.266666 8.533334 0 0 38.4-25.6 40.533334-25.6h6.4v-64l106.666666 217.6h100.266667l98.133333-200.533334 98.133334 200.533334s-4.266667 19.2-34.133334 34.133333h-51.2s-17.066667-2.133333-23.466666-4.266667l10.666666 68.266667s53.333333 2.133333 68.266667 2.133333c14.933333 0 42.666667 0 51.2-2.133333 8.533333-2.133333 40.533333-6.4 59.733333-36.266667 19.2-29.866667 83.2-181.333333 83.2-181.333333l21.333334-49.066667s17.066667 0 25.6 14.933334c2.133333 2.133333 8.533333 17.066667 10.666666 29.866666v2.133334s-10.666667-14.933333-23.466666-14.933334c-10.666667 0-17.066667 12.8-14.933334 25.6l-25.6 34.133334s-2.133333 8.533333 6.4 6.4c8.533333-2.133333 36.266667-8.533333 36.266667-8.533334s6.4-4.266667 10.666667 6.4 17.066667 55.466667 17.066666 55.466667 2.133333 4.266667 4.266667 4.266667 4.266667-6.4 4.266667-8.533334c0 0 12.8-51.2 17.066666-53.333333 2.133333-2.133333 6.4-4.266667 17.066667-4.266667s36.266667-6.4 38.4-8.533333c2.133333-2.133333-34.133333-29.866667-36.266667-36.266667-2.133333-6.4-4.266667-12.8-19.2-14.933333-14.933333-2.133333-23.466667 14.933333-27.733333 14.933333-2.133333 0-2.133333-8.533333-2.133333-12.8 0-4.266667-4.266667-21.333333-6.4-23.466666-2.133333-2.133333 21.333333-12.8 32-8.533334 8.533333 4.266667 25.6 10.666667 44.8 34.133334 0 0 6.4-17.066667 0-44.8-2.133333-8.533333-4.266667-14.933333 0-19.2 4.266667-4.266667 21.333333-19.2 23.466666-21.333334 2.133333 6.4-2.133333 6.4-8.533333 4.266667z" fill="#649337" p-id="4193"></path></svg>