<?xml version="1.0" standalone="no"?><!DOCTYPE svg PUBLIC "-//W3C//DTD SVG 1.1//EN" "http://www.w3.org/Graphics/SVG/1.1/DTD/svg11.dtd"><svg t="1652289087536" class="icon" viewBox="0 0 1024 1024" version="1.1" xmlns="http://www.w3.org/2000/svg" p-id="41753" xmlns:xlink="http://www.w3.org/1999/xlink" width="128" height="128"><defs><style type="text/css"></style></defs><path d="M162.909091 0h535.272727l256 279.272727v651.636364a93.090909 93.090909 0 0 1-93.090909 93.090909H162.909091a93.090909 93.090909 0 0 1-93.090909-93.090909V93.090909a93.090909 93.090909 0 0 1 93.090909-93.090909z" fill="#F8A036" p-id="41754"></path><path d="M698.181818 0l256 279.272727h-209.454545a46.545455 46.545455 0 0 1-46.545455-46.545454V0z" fill="#FFFFFF" opacity=".503" p-id="41755"></path><path d="M343.691636 596.898909c0 55.109818-39.470545 86.016-88.250181 86.016-27.182545 0-46.173091-7.447273-64.41891-25.693091l26.810182-26.437818c9.309091 9.309091 18.245818 16.011636 37.608728 16.011636 29.789091 0 48.034909-18.245818 48.034909-52.875636v-178.362182h40.215272v181.341091z m247.947637 83.781818h-42.821818l-18.245819-53.248h-104.634181l-18.245819 53.248h-42.821818l97.186909-265.122909h32.395637l97.186909 265.122909z m-72.238546-87.505454l-40.215272-117.666909-41.332364 117.666909h81.547636z m294.120728 87.505454H766.603636l-55.854545-111.709091h-50.269091v111.709091h-40.215273V415.557818h102.772364c50.269091 0 82.292364 32.395636 82.292364 77.451637 0 37.981091-23.086545 62.184727-52.875637 70.376727l61.067637 117.294545z m-48.407273-187.298909c0-26.065455-18.245818-41.704727-45.056-41.704727h-59.578182v83.037091h59.578182c26.810182 0 45.056-15.266909 45.056-41.332364z" fill="#FFFFFF" p-id="41756"></path></svg>