<?xml version="1.0" standalone="no"?><!DOCTYPE svg PUBLIC "-//W3C//DTD SVG 1.1//EN" "http://www.w3.org/Graphics/SVG/1.1/DTD/svg11.dtd"><svg t="1653739768442" class="icon" viewBox="0 0 1024 1024" version="1.1" xmlns="http://www.w3.org/2000/svg" p-id="5913" xmlns:xlink="http://www.w3.org/1999/xlink" width="128" height="128"><defs><style type="text/css"></style></defs><path d="M227.555556 329.955556l-91.022223 392.533333c-5.688889 17.066667-11.377778 11.377778-28.444444 17.066667v91.022222h147.911111c28.444444 0 45.511111-17.066667 56.888889-56.888889l102.4-438.044445L227.555556 329.955556z m34.133333-130.844445l-22.755556 96.711111h187.733334l22.755555-102.4H261.688889z m568.888889 130.844445H523.377778c-28.444444 0-68.266667 28.444444-73.955556 68.266666l-34.133333 147.911111c-22.755556 91.022222-11.377778 142.222222 56.888889 142.222223H853.333333l17.066667-79.644445h-284.444444l17.066666-68.266667h284.444445c0-11.377778 22.755556-39.822222 34.133333-142.222222 0-11.377778-17.066667-68.266667-91.022222-68.266666z m-113.777778 136.533333h-102.4c17.066667-51.2 34.133333-68.266667 62.577778-68.266667 39.822222 0 51.2 17.066667 39.822222 68.266667z" fill="#ffffff" p-id="5914"></path></svg>