<?xml version="1.0" standalone="no"?><!DOCTYPE svg PUBLIC "-//W3C//DTD SVG 1.1//EN" "http://www.w3.org/Graphics/SVG/1.1/DTD/svg11.dtd"><svg t="1653271338875" class="icon" viewBox="0 0 1024 1024" version="1.1" xmlns="http://www.w3.org/2000/svg" p-id="3597" xmlns:xlink="http://www.w3.org/1999/xlink" width="128" height="128"><defs><style type="text/css"></style></defs><path d="M232.248236 306.660769c-4.070582-27.72634-8.481045-55.414694-8.013208-68.104272 0.699756-22.292233 7.787287-53.87523 16.024417-87.133643 5.342139-15.858475 8.189147-33.140454 18.027719-39.060391 6.65768-6.383776 11.533982-13.083442 15.024766-20.031021 3.992609-8.8989 7.041547-13.945142 18.027719-14.021115 0.667767 0 5.674023-3.67272 7.009558-5.008255 1.929328-3.062933 4.948276-5.05224 9.014859-6.007907 4.294504-0.567802 10.778245-7.859262 20.031021-14.021115 6.677673-6.677673 12.851523-11.517987 18.527545-14.522941 5.676022-3.004953 88.383207-31.958866 94.1452-33.050485 7.177499-1.359526 10.324403 4.268513 15.856476 3.982613C476.147262 8.632602 495.606482-0.238307 505.666977 0.191543c10.394379 0.529815 21.380551 5.741999 28.598037 6.597702 33.454345 3.966618 35.809524-3.804674 80.571928 1.413507 23.437834 6.335793 14.309015 13.639248 31.047183 26.540753 11.124124 6.249823 13.935145 6.48574 26.050924 9.376733 8.441059 2.017297 18.505553 7.419415 28.53206 9.652637 17.267984 2.839011 38.268667-2.952971 36.557263 16.526243-2.453145 14.554929 26.288841 12.411676 48.573077 16.024417 6.365782 2.433152 8.8969 10.840223 5.510081 15.022766-12.54363 14.826834-32.048834 30.045532-32.048835 30.045532 11.863867 4.316496 19.729126 10.39038 24.035626 18.027719 3.682717 8.49704-2.719053 15.994428-11.410024 14.728869-6.287809-0.91768-14.628903-3.710707-25.14524-6.71766-20.524849-3.614741-12.871516 2.735047-12.519638 15.024765-0.895688 25.365163 23.543797 51.072206 30.045532 52.079856 11.398029 0.877694 13.601261 10.560321 16.024417 20.031021 0 5.342139 0.667767 8.345093 2.003302 9.01286 11.517987 2.505127 26.322829-2.713055 29.045881 7.011557 1.333535 5.342139-2.339185 13.019464-11.016162 23.035974-4.676371 5.340139-7.141512 7.193494-8.515033 11.016162-2.878997 8.013208 6.133863 8.013208 1.001651 21.032673-2.569105 6.147858-8.385079 10.776246-18.527545 8.513034-2.671069-0.333884-4.674371-1.169593-6.009907-2.503128-2.671069-1.335535-4.674371-1.169593-6.009906 0.499826-5.65403 10.862216-9.848569 20.872728-10.01651 28.544055 2.757039 19.827092 4.042592 36.7392 1.00365 45.068298-2.003302 6.009906-1.669418 15.692533 0.999652 29.04588 2.673069 13.353348 5.206186 17.755814 12.019812 35.053788 6.509732 16.524243 12.269725 17.525894-4.006604 47.0716-7.251474 13.165413-14.119081 21.400544-23.033975 26.040927 14.908806 14.942794 32.826563 33.364376 42.065345 30.045532 4.086576-1.469488 4.324493-14.596914 2.603093-17.93775-5.266165-10.222439-4.512428-18.13968 6.409767-19.119339 7.845267-0.165942 16.518245 12.319708 20.746771 20.266939 11.246082 21.142634 4.890296 48.455118-7.727307 63.861751-21.532498 32.550659-46.697731 19.781108-86.131992 24.037625-3.338837 0.667767-3.338837 2.671069 0 6.009906 1.335535 1.335535 2.337186 4.672372 3.004953 10.01651s0.999652 11.016162 0.999652 17.024069c0 0-3.054936 7.917242-13.123428 15.854476-7.013556 5.530073-12.107782 10.400377-17.855779 12.785546-7.789286 3.234873-50.14253 5.412114-50.14253 5.412114-1.783379 0.151947-3.114915 5.258168-3.006953 8.013209-1.105615 14.640899-18.361603 46.223896-33.048486 75.11383l30.545358 141.218799c9.836573 44.228591 1.97931 49.312819 7.511383 74.114179 0.873696 3.038941-2.679067 10.006514-9.01286 16.190359-7.011557 6.843616-12.019812 8.846918-14.438969 7.511383-2.733048-1.507475-9.096831-6.677673-9.096831-6.677673-5.678022-4.672372-11.85387-10.348395-18.529544-17.024069-69.105923-62.096366-165.754251-133.205591-267.410834-210.324723-3.646729-11.232087-6.011905-21.592477-3.504779-29.043881 4.686367-13.939144 14.702878-29.365769 23.5358-45.068298l-9.014859-58.089762c-4.144556-32.266758-9.496691-63.4319-23.033975-87.133642-6.959575-13.075445-13.615256-26.824654-23.035974-33.052485-13.125427-8.674978-20.552839-20.474867-21.032672-33.048486-0.127955-3.338837-2.337186-8.848917-7.011558-16.526242l-53.081506-74.614005c-0.819714-65.887045 2.902989-83.406941 25.039276-106.163012z m294.451413 420.647447l-83.127038-53.081507c-41.083686-44.002669-80.020121-87.151636-116.179523-129.198987-3.448798-4.146555-16.654198-1.975312-16.022418 2.003302 4.744347 15.796496 17.405936 30.693306 23.5358 55.584635 2.753041 11.184103 13.185406 73.948236 17.026068 105.163361 0.855702 6.965573-0.499826 12.517639-2.505127 16.524243l-18.027719 33.55231c-4.872302 11.691927 0.061978 22.436183 11.517987 32.54866 127.695511 102.158408 224.601749 165.396376 275.923868 224.345838l14.023114-9.014859c-1.669418-85.464224-30.381415-160.580054-40.062042-223.342188 7.793285-13.935145 18.089698-31.20113 24.035626-45.070297l-90.138596-10.016511z m0-126.196034c12.68758 0 23.703742-2.66907 33.052485-8.011208 21.532498-11.7679 56.586285-54.582983 68.104272-58.087763 12.675584-0.11596 7.211488-7.131515-1.001651-12.019812-13.615256-8.015208-14.678886-17.210004-6.983567-32.100816 1.733396-3.348833 3.602745-8.211139 6.481742-10.96418 2.159248 2.073278-4.630387 16.024417-2.247217 25.02728 1.995305 7.531376 15.64255-3.180892 27.786319-4.998258 10.338398-1.427503 21.388548 2.365176 30.935222-0.047984 16.660196-4.208534 19.14333 2.385169 30.159493 5.058238 10.068492 2.275207 22.040321 4.356482 26.540753 2.503128 12.061798-7.897249 21.610471-16.528242 23.035974-27.542404-3.506778-26.540753-11.851871-18.027719-15.524591-42.065345-1.167593-18.527545-8.345093-23.871683-3.004953-41.063693 0 0 5.56806-8.766946-1.309544-42.213293-2.205232-10.716266 3.798677-17.253989 2.81302-19.881073-2.429154-1.483483-4.556413 3.108917-21.532498 2.003302-8.347092-0.751738-13.773201-4.424459-12.019812-5.508081 4.006604-0.751738 3.696712 0.857701 5.757994 0.499826 4.340488-0.751738 7.177499 1.501477 7.26147-4.006604 0.083971-9.596657-3.338837-3.922633-4.004605-7.511383v-3.504779c3.074929-6.94558-5.851961-2.645078-15.024765-1.001651-2.865002-27.330478-6.127865-55.170778 1.001651-69.607749 13.077444-3.748694 16.068402 8.449056 34.052136-14.520941-1.883344 11.138119-4.130561 20.656803-8.011209 27.040579-5.132212 5.508081-5.446103 13.395333-0.499826 9.014859 13.269377-13.521289 20.100997-25.453132 18.527545-32.048834-3.838663-15.190708-17.19401-28.462084-23.035974-43.066995-5.841965-14.606911-1.335535-24.371509-9.01286-42.065345-2.017297-3.908638-6.577708-7.961226-15.15472-13.043455-18.437576-10.922195-2.059283-7.245476-24.407496-21.008681-11.086138-5.106221-16.494253-9.202794-35.743547-15.114734-15.95844-4.898293-18.745469-11.649941-40.87376-9.924542 12.079791 9.510686 21.896371 19.681143 31.049182 30.047531-2.203232 2.043288-10.152463-3.452797-19.709133-3.452797-11.82588 0-21.988339-1.687412-27.864292-4.058586-25.595083-8.207141-53.149483-21.042669-55.586634-17.527893-1.303546 6.873605-20.900718 8.423065-32.74859 0.433849-1.613438-1.087621-3.734699-2.249216-5.31015-2.437151-3.770686 0.105963-3.246869 6.519729-7.701317 7.487391-4.458447 0.965664-5.066235 1.353528-5.304152 2.938976-1.697409 11.272073-20.128987 3.512776-33.06448 8.603003-9.582661 6.551717-21.366556 18.945399-27.542404 28.544055-4.518426 7.023553-3.756691 12.853522-2.503128 20.532846 4.352484 14.794845 2.109265 30.125504 4.004605 53.081507l-28.542056 33.048486c-14.307015 15.206702-27.350471 23.553794-39.562217 43.56882-9.514685 40.060043 11.016162 72.610702 23.035974 140.714975 8.513034 56.086459-8.513034 47.0736-46.069949 49.076902v31.047183s89.970654 89.302887 105.663187 103.659885c52.579681 47.571426 106.996722 75.613656 207.817596 74.614004 41.013711-0.499826 71.265171-10.582313 68.104273-43.064996 0 0-31.215125 1.835361-35.553613 1.499478-28.709997-3.920634-16.024417-15.020767-64.599494-8.511035-38.308653 8.011209-95.396764-8.764946-114.676047-16.526242-9.264772-6.009906-52.831593-65.099319-27.542404-85.630167 6.565713-6.333793 8.888903-4.652379 5.630039 2.409161-1.77938 3.850658-6.517729 8.688973-7.633341 14.115082-0.499826 7.177499 20.03302 35.377674 28.04223 38.558567 10.774246 4.278509 20.612818 6.68767 32.048834 7.011557z m-48.073251-313.480783c5.532073-0.963664 4.694364-6.979568 5.508081-8.513034 2.155249-1.741393 6.345789 2.371174 4.508429-2.503128v-8.011209c0-2.003302 0.333884-3.004953 0.999652-3.004953 1.217576 0.125956 1.309544 1.98131 1.871348 2.749042 2.595096 3.550763 3.844661 3.890644 3.638732 0.755737-0.789725-6.957576-5.404117-11.228088-5.008255-14.021115 9.276768 1.659422 12.97348 9.292762 19.02937 15.522592 3.692713-9.35674 4.644382-18.321617 10.016511-25.037277 4.530422-6.577708 19.061359-4.738349 27.340474-5.841965 11.036155-5.885949 8.828924 1.839359 19.731126 2.335187 7.677325-2.151251-8.3251-15.394637 13.51929-4.50643 20.46487 10.080488 19.177319 3.274859 31.049182 9.516684 11.016162 9.096831 8.928889 19.945051 14.520941 19.529196 4.940279-2.163246-0.455841-15.530589 6.511731-16.024417 2.415159 1.167593 1.763386 3.894643 0.999652 7.009558-2.001303 4.674371-2.837012 9.014859-2.503128 13.019464 0.333884 4.006604 6.34379 42.899054 6.009906 46.571774-0.333884 3.67272-1.503476 8.17915-3.504779 13.52129-3.338837 6.677673-5.51008 10.348395-6.511731 11.016162s-3.504779-0.333884-7.511383-3.002954c-16.344306-4.072581-28.432094-2.327189-36.555264-3.506778-5.038245-0.699756 11.48-0.43185 15.022766-5.508081 1.001651-2.003302-1.167593-5.676022-6.509732-11.016162-9.048847-8.796935-16.288325-12.363692-18.027719 0-0.667767 8.011209-1.335535 13.019464-2.003302 15.022766-0.20193 0.965664-0.967663 2.215228-2.169244 2.671069-1.545462 0.583797-4.710359 0.483831-4.842313-0.667767 0.041985-0.835709 0.891689-1.989307 2.003302-3.004953 2.419157-2.21123 4.222529-10.932191 2.003302-12.519638-4.942278-0.83171-9.648638 2.835012-11.016162-1.501477 0-2.671069-1.503476-3.506778-4.50643-2.505128-7.679325 2.75504-4.674371 8.013208-12.029809 12.943491-1.499478 1.00565-4.16255 0.827712-5.498084 3.080926-0.843706 1.369523-0.351877 3.614741 0.109961 4.888297 3.104918 8.537026-4.216531 7.421414-5.118217-2.383169-1.563455-3.724702-2.393166-5.865956-3.776684-5.594051-3.752693 0.733744-7.427412 6.031898-7.239478 8.097179 0 1.669418 1.669418 2.839011 5.008256 3.504779 3.868652-0.035987-2.78303 2.041289-3.362829 2.053284-2.089272 0.043985-6.535723 1.099617-9.656635 2.455145-10.656287 4.594399-15.836483 12.775549-29.045881 14.520941-9.510686-0.383866 14.480955-6.653682 12.519638-9.514685-5.308151-2.683065-16.124382 5.588053-30.547357 1.503476-5.206186-3.096921-6.843616-2.187238-7.387426 2.992957-0.389864 3.698711-7.885253 2.365176-9.542676 0.271905-7.63534-9.632644-10.816232 9.81658-14.117081 2.745044 2.523121-7.92124 8.111174-8.563017 7.637339-15.024765-0.335883-4.540418-2.2952-3.870651-0.125956-10.016511 2.329189-6.595702 7.873257 3.600746 13.521289-21.030673 3.084925-13.591265 6.353786-23.847691 11.016162-9.012859 1.335535 5.340139 2.839011 7.677325 4.50643 7.009557 4.538419-2.968966 0.499826-10.508339 9.516684-22.032324z m43.064996 67.104621c-0.665768-0.667767 0-1.169593 2.005302-1.503476 2.003302-0.333884 5.340139-0.165942 10.01651 0.499826 11.348046 0.669767 17.525894 1.337534 18.527545 2.005301s-2.839011 0.999652-11.517987 0.999652a127.29565 127.29565 0 0 1-11.517987-0.499826c-3.67272-0.333884-6.177848-0.83371-7.511383-1.501477z m68.106272-7.011557c-5.498084 0.009997 14.245037-8.652985 19.02937-7.511383 3.542766 0.805719-14.52294 7.52138-19.02937 7.511383z m60.093064-74.114179c-2.339185 9.180801-4.340488 8.513034-4.812324-1.701407 0.303894-23.33587-4.946277-26.302836-3.70071-29.345776 0.333884 0 1.835361 1.669418 4.506429 5.008255 8.303107 7.947231 6.865608 16.918106 4.006605 26.038928z m48.073251 358.551081c20.240948-7.277465 14.898809-19.983038-3.504779-13.521289-13.421324 4.106569-15.320662 12.655591-30.995201 15.386639l-12.57162 5.146207c10.672282-1.227572 27.534407-2.059283 47.0716-7.011557zM316.946727 341.008802c-5.318147-13.619255-17.993731-21.552491-31.117158-28.837952-26.178879-14.534936-35.021798-10.406374-41.061695-3.004953C213.970604 337.45804 218.726947 358.990538 217.223471 407.817526c31.297096 45.820036 58.879486 81.251692 59.089413 91.140247 0.499826 18.777458 16.794149 31.960865 26.040927 33.048486 6.711662-3.056935 14.187057-12.605608 19.029371-18.02572V480.928055c-3.504779-46.071949 11.515988-81.125736-4.438454-139.921252z m-15.090742 119.388406c2.916984 7.231481 2.127259 12.207747-0.187935 14.52294-1.093619 1.09162-1.927329 0.971661-2.317192-2.003302-2.169244-11.851871-20.698789-5.008255-36.055439-43.064996-12.267726-37.307002-5.508081-44.570472-6.509732-65.601145-0.639777-6.373779-8.876907-2.918983-11.931843 2.92698-3.146904 6.017903 0 19.795103-5.094225 16.10239-8.3251-10.39038-4.986263-24.345518 1.001651-35.053787 20.031021-29.04588 65.601145 2.001303 62.596192 71.609051-11.641944 3.664723-17.839785 5.304152-18.261638 10.094483-0.5738 6.493738 10.424368 12.821533 16.760161 30.469385z m393.31297-148.22036c0.093967-1.829363-9.088833-3.752693-20.564836-1.767385-9.21279 1.829363-10.144466 4.652379-0.061978 5.180195 10.142466 0.527816 20.688792-1.643427 20.626814-3.41281z" p-id="3598" fill="#e0620d"></path></svg>