<?xml version="1.0" standalone="no"?><!DOCTYPE svg PUBLIC "-//W3C//DTD SVG 1.1//EN" "http://www.w3.org/Graphics/SVG/1.1/DTD/svg11.dtd"><svg t="1653740732745" class="icon" viewBox="0 0 1024 1024" version="1.1" xmlns="http://www.w3.org/2000/svg" p-id="1899" xmlns:xlink="http://www.w3.org/1999/xlink" width="128" height="128"><defs><style type="text/css"></style></defs><path d="M848.01536 230.4H793.6v256h54.41536c11.01568-37.00992 45.30176-64 85.89056-64 49.4848 0 89.6 40.1152 89.6 89.6s-40.1152 89.6-89.6 89.6c-40.5888 0-74.87488-26.99008-85.888-64H793.6v256h54.41536c11.01568-37.00992 45.30176-64 85.89056-64 49.4848 0 89.6 40.1152 89.6 89.6s-40.1152 89.6-89.6 89.6c-40.5888 0-74.87488-26.99008-85.888-64H742.4V537.6h-103.2192a278.00576 278.00576 0 0 1-7.55968 43.7632l75.43296 43.55072-76.54144 132.57216-75.95264-43.8528c-33.99168 32.74752-75.29984 55.8336-119.61856 68.11648V870.4H281.856v-89.32864a283.12576 283.12576 0 0 1-63.25504-26.93632 283.12576 283.12576 0 0 1-54.95552-41.31328l-77.3632 44.66432-76.53888-132.57216 76.7744-44.3264c-11.52256-44.52352-12.1856-91.84-0.82176-137.6512L9.74592 399.08608l76.54144-132.57216 75.43296 43.55072c34.01984-33.2928 75.5328-56.80128 120.1408-69.3504V153.6h153.08032v87.1936a283.06944 283.06944 0 0 1 64.31232 27.24096 283.06944 283.06944 0 0 1 55.74656 42.07616l75.51232-43.5968 76.54144 132.57216-75.4432 43.5584A282.2912 282.2912 0 0 1 639.15008 486.4H742.4V179.2h105.61536c11.01568-37.00992 45.30176-64 85.89056-64 49.4848 0 89.6 40.1152 89.6 89.6s-40.1152 89.6-89.6 89.6c-40.5888 0-74.87488-26.99008-85.888-64zM147.42272 419.65312c-26.0864 60.20608-24.3072 126.91712 1.02144 184.10496l-68.84352 39.74656 25.51296 44.19072 69.02784-39.85408c18.2528 24.56576 41.72288 45.89568 69.92896 62.1824 28.20864 16.28416 58.41664 25.94816 88.81664 29.46816V819.2h51.02592v-79.49312c62.19008-6.66112 120.85504-38.47168 159.9488-91.16928l67.82464 39.15776 25.51296-44.19072-67.6352-39.05024c26.76224-60.35712 25.34912-127.44192 0.14848-184.99584l67.48672-38.9632-25.51296-44.19072-67.48672 38.9632c-18.3296-24.896-41.99936-46.50496-70.50496-62.9632-28.5056-16.45568-59.05664-26.1504-89.7792-29.57824V204.8h-51.02848v77.9264c-62.44608 6.95296-121.24672 39.2704-160.13568 92.62848l-67.6352-39.05024-25.51552 44.19072 67.82208 39.15776z m147.42784 202.4192c-61.2224-35.34848-82.24256-113.55136-46.95296-174.67648 35.2896-61.12512 113.52832-82.0224 174.74816-46.67392 61.2224 35.34592 82.24512 113.5488 46.95552 174.67392-35.29216 61.12512-113.52832 82.0224-174.75072 46.67392z m25.51808-44.20096c36.73344 21.20704 83.67616 8.67072 104.84992-28.0064 21.17376-36.672 8.56064-83.5968-28.1728-104.80384-36.73088-21.20704-83.6736-8.66816-104.84736 28.0064-21.17632 36.67456-8.5632 83.5968 28.17024 104.80384zM933.90592 857.6c21.20704 0 38.4-17.19296 38.4-38.4 0-21.20704-17.19296-38.4-38.4-38.4-21.20704 0-38.4 17.19296-38.4 38.4 0 21.20704 17.19296 38.4 38.4 38.4z m0-307.2c21.20704 0 38.4-17.19296 38.4-38.4 0-21.20704-17.19296-38.4-38.4-38.4-21.20704 0-38.4 17.19296-38.4 38.4 0 21.20704 17.19296 38.4 38.4 38.4z m0-307.2c21.20704 0 38.4-17.19296 38.4-38.4 0-21.20704-17.19296-38.4-38.4-38.4-21.20704 0-38.4 17.19296-38.4 38.4 0 21.20704 17.19296 38.4 38.4 38.4z" p-id="1900" fill="#ffffff"></path></svg>