<?xml version="1.0" standalone="no"?><!DOCTYPE svg PUBLIC "-//W3C//DTD SVG 1.1//EN" "http://www.w3.org/Graphics/SVG/1.1/DTD/svg11.dtd"><svg t="1652416094263" class="icon" viewBox="0 0 1024 1024" version="1.1" xmlns="http://www.w3.org/2000/svg" p-id="4986" xmlns:xlink="http://www.w3.org/1999/xlink" width="128" height="128"><defs><style type="text/css"></style></defs><path d="M46.933333 595.2l12.8-25.6 44.8-91.733333 27.733334-59.733334H204.8c-2.133333 8.533333-2.133333 12.8-4.266667 17.066667 0 4.266667-2.133333 10.666667-2.133333 23.466667-2.133333 10.666667-2.133333 21.333333-4.266667 29.866666-2.133333 8.533333-4.266667 23.466667-8.533333 42.666667 8.533333-12.8 17.066667-23.466667 23.466667-36.266667 8.533333-10.666667 17.066667-23.466667 25.6-34.133333 10.666667-12.8 14.933333-21.333333 19.2-25.6 2.133333-4.266667 6.4-10.666667 12.8-17.066667H341.333333c-12.8 29.866667-23.466667 55.466667-32 76.8-17.066667 40.533333-29.866667 70.4-34.133333 85.333334-2.133333 4.266667-4.266667 8.533333-6.4 17.066666h-49.066667c4.266667-8.533333 12.8-25.6 25.6-55.466666 12.8-29.866667 21.333333-49.066667 23.466667-57.6 2.133333-4.266667 4.266667-8.533333 6.4-14.933334l-38.4 53.333334L183.466667 597.333333H134.4l12.8-72.533333 6.4-38.4v-6.4c0-2.133333 2.133333-6.4 2.133333-10.666667l-17.066666 36.266667-34.133334 74.666667-6.4 17.066666H74.666667c-8.533333-2.133333-17.066667-2.133333-27.733334-2.133333z m302.933334-96c4.266667-8.533333 6.4-14.933333 8.533333-17.066667 2.133333-4.266667 4.266667-8.533333 6.4-14.933333 27.733333-6.4 49.066667-8.533333 68.266667-8.533333 10.666667 0 19.2 2.133333 27.733333 4.266666s12.8 6.4 17.066667 10.666667c4.266667 4.266667 4.266667 12.8 0 21.333333-2.133333 4.266667-6.4 14.933333-12.8 34.133334-6.4 17.066667-14.933333 40.533333-23.466667 68.266666h-51.2c4.266667-10.666667 10.666667-29.866667 21.333333-59.733333-4.266667 2.133333-6.4 2.133333-8.533333 4.266667-2.133333 0-6.4 2.133333-10.666667 2.133333-4.266667 2.133333-8.533333 2.133333-12.8 4.266667-2.133333 0-6.4 2.133333-8.533333 4.266666-2.133333 2.133333-4.266667 2.133333-6.4 4.266667 0-2.133333-2.133333 0-2.133333 2.133333s0 6.4 2.133333 8.533334c2.133333 2.133333 4.266667 2.133333 10.666667 2.133333h6.4c2.133333 0 4.266667-2.133333 8.533333-2.133333-4.266667 6.4-10.666667 17.066667-17.066667 29.866666-8.533333 2.133333-14.933333 2.133333-21.333333 2.133334-10.666667 0-19.2-2.133333-25.6-4.266667-6.4-2.133333-10.666667-8.533333-12.8-14.933333-2.133333-6.4-2.133333-12.8 0-19.2l6.4-12.8c2.133333-4.266667 6.4-8.533333 10.666667-10.666667 4.266667-4.266667 8.533333-6.4 12.8-10.666667 4.266667-2.133333 10.666667-4.266667 19.2-8.533333 8.533333-2.133333 17.066667-4.266667 29.866666-6.4 4.266667 0 8.533333-2.133333 12.8-2.133333 4.266667 0 6.4-2.133333 8.533334-2.133334 2.133333 0 4.266667-2.133333 4.266666-2.133333l2.133334-2.133333c0-2.133333 2.133333-2.133333 2.133333-4.266667 0-4.266667 0-6.4-2.133333-8.533333-2.133333-2.133333-6.4-2.133333-10.666667-2.133334-17.066667-2.133333-36.266667 2.133333-59.733333 10.666667zM770.133333 554.666667c-2.133333 4.266667-8.533333 17.066667-17.066666 38.4-10.666667 2.133333-19.2 4.266667-27.733334 4.266666h-21.333333c-10.666667 0-19.2 0-27.733333-2.133333s-14.933333-4.266667-21.333334-8.533333l-12.8-12.8c0-4.266667-2.133333-10.666667-2.133333-19.2s2.133333-14.933333 4.266667-23.466667c4.266667-10.666667 8.533333-21.333333 17.066666-32s14.933333-19.2 25.6-25.6c8.533333-6.4 19.2-10.666667 27.733334-12.8 10.666667-2.133333 19.2-4.266667 29.866666-4.266667 10.666667 0 19.2 2.133333 27.733334 4.266667s14.933333 6.4 19.2 12.8c4.266667 6.4 6.4 12.8 8.533333 19.2 0 6.4 0 14.933333-2.133333 23.466667-2.133333 4.266667-4.266667 10.666667-6.4 17.066666h-91.733334c0 2.133333 0 2.133333-2.133333 4.266667-2.133333 8.533333-2.133333 17.066667 4.266667 21.333333 6.4 4.266667 12.8 6.4 23.466666 6.4 6.4 0 12.8 0 21.333334-2.133333 2.133333-2.133333 12.8-4.266667 23.466666-8.533333z m-68.266666-42.666667h42.666666c0-2.133333 0-2.133333 2.133334-4.266667 2.133333-4.266667 2.133333-8.533333 0-10.666666 0-4.266667-2.133333-6.4-4.266667-6.4-2.133333-2.133333-6.4-2.133333-8.533333-2.133334-2.133333 0-4.266667 0-8.533334 2.133334-2.133333 0-4.266667 2.133333-8.533333 4.266666l-6.4 6.4c-2.133333 2.133333-4.266667 4.266667-4.266667 6.4s-2.133333 2.133333-4.266666 4.266667z m85.333333 83.2c8.533333-19.2 17.066667-42.666667 25.6-66.133333 8.533333-23.466667 14.933333-44.8 23.466667-68.266667h53.333333l-6.4 17.066667c4.266667-4.266667 6.4-6.4 10.666667-8.533334 2.133333-2.133333 6.4-4.266667 8.533333-6.4 4.266667-2.133333 6.4-4.266667 10.666667-4.266666 4.266667-2.133333 8.533333-2.133333 12.8-2.133334h12.8c6.4 0 12.8 0 17.066666 2.133334 6.4 2.133333 10.666667 4.266667 12.8 6.4 4.266667 2.133333 6.4 6.4 6.4 8.533333 2.133333 4.266667 2.133333 8.533333 2.133334 12.8 0 4.266667-2.133333 8.533333-2.133334 12.8 0 4.266667-4.266667 10.666667-8.533333 21.333333l-17.066667 46.933334c-2.133333 8.533333-6.4 17.066667-8.533333 25.6h-53.333333c2.133333-8.533333 8.533333-19.2 12.8-36.266667 6.4-14.933333 8.533333-27.733333 10.666666-34.133333 2.133333-10.666667 2.133333-17.066667 0-21.333334-2.133333-4.266667-6.4-6.4-12.8-6.4-4.266667 0-10.666667 2.133333-14.933333 4.266667-6.4 4.266667-10.666667 8.533333-14.933333 14.933333-4.266667 6.4-8.533333 17.066667-14.933334 32-6.4 14.933333-10.666667 29.866667-14.933333 44.8h-25.6c-6.4 4.266667-14.933333 4.266667-25.6 4.266667z" p-id="4987"></path><path d="M535.466667 456.533333c-4.266667-6.4-2.133333-14.933333-4.266667-21.333333-2.133333-4.266667-2.133333-10.666667-8.533333-12.8-6.4 6.4-6.4 14.933333-8.533334 23.466667-2.133333 6.4 4.266667 10.666667 0 12.8-2.133333 8.533333-2.133333 14.933333-2.133333 23.466666 0 2.133333 0 4.266667 2.133333 6.4-2.133333-2.133333-4.266667-2.133333-4.266666 4.266667 2.133333 8.533333 2.133333 12.8 0 21.333333 0 4.266667 2.133333 6.4 0 8.533334 0 6.4 0 19.2-2.133334 21.333333v21.333333c-2.133333 4.266667 2.133333 6.4 2.133334 6.4-6.4 2.133333 8.533333 6.4 0 6.4-6.4 0 4.266667 4.266667-4.266667 4.266667-4.266667 4.266667 10.666667-2.133333 2.133333 2.133333-4.266667 4.266667 8.533333-2.133333 2.133334 2.133334-4.266667 4.266667-14.933333 12.8-14.933334 14.933333 6.4-2.133333 14.933333-12.8 19.2-12.8 0 4.266667-4.266667 14.933333-2.133333 14.933333 2.133333-4.266667 4.266667-14.933333 6.4-12.8 0 4.266667 2.133333 8.533333 2.133333 0 0-4.266667 2.133333-10.666667 0-2.133333 0 2.133333 0 6.4 2.133334 2.133333 4.266667 6.4 0-8.533333 4.266666-4.266666 6.4 0-6.4-10.666667 0-6.4 4.266667 4.266667 0-2.133333 4.266667 0 6.4 0 10.666667-6.4 14.933333-10.666667-4.266667 0 6.4-2.133333 8.533334-6.4 2.133333-4.266667 10.666667-8.533333 8.533333-10.666667 2.133333-2.133333 8.533333-10.666667 10.666667-14.933333h-2.133334c2.133333-2.133333 8.533333-8.533333 8.533334-10.666667h-2.133334c2.133333 0 6.4-4.266667 6.4-6.4 6.4-8.533333 6.4-12.8 12.8-19.2 2.133333-2.133333 4.266667-6.4 2.133334-6.4 2.133333-2.133333 4.266667-6.4 4.266666-8.533333 4.266667-4.266667 10.666667-17.066667 8.533334-19.2-4.266667 4.266667 6.4-4.266667 6.4-8.533333 2.133333-4.266667 0-4.266667 0-4.266667 4.266667-4.266667 6.4-10.666667 6.4-12.8 4.266667-6.4 6.4-12.8 8.533333-19.2-4.266667 8.533333 8.533333-12.8-2.133333-8.533333-6.4 4.266667-12.8 8.533333-17.066667 14.933333-4.266667 2.133333-4.266667 6.4-6.4 10.666667 0-2.133333 0-4.266667-2.133333 2.133333v4.266667c0-2.133333 0-2.133333-2.133334 2.133333-8.533333 4.266667-10.666667 14.933333-17.066666 19.2-2.133333 2.133333-2.133333 4.266667-4.266667 8.533333v-2.133333c-4.266667 4.266667-8.533333 10.666667-8.533333 14.933333 0-2.133333-6.4 8.533333-8.533334 10.666667-2.133333 2.133333-4.266667 6.4-6.4 10.666667 0-2.133333-2.133333-2.133333-4.266666 2.133333-2.133333 2.133333-4.266667 6.4-6.4 8.533333 0-2.133333 0-2.133333-4.266667 2.133334-4.266667 6.4-2.133333-6.4-4.266667-4.266667 2.133333-4.266667 0-12.8 0-8.533333 2.133333-6.4 0-14.933333 0-21.333334 2.133333-12.8-2.133333-23.466667-4.266666-32z" fill="#FF6709" p-id="4988"></path></svg>