<?xml version="1.0" encoding="UTF-8"?>
<svg id="_图层_1" data-name="图层 1" xmlns="http://www.w3.org/2000/svg" viewBox="0 0 200 200">
  <defs>
    <style>
      .cls-1 {
        fill: #000;
      }

      .cls-1, .cls-2, .cls-3 {
        stroke-width: 0px;
      }

      .cls-2 {
        fill: #a0c0ee;
      }

      .cls-3 {
        fill: #fe0000;
      }
    </style>
  </defs>
  <rect class="cls-3" x="64.86" y="143.09" width="48.7" height="17.47"/>
  <rect class="cls-1" x="37.93" y="43.1" width="132.27" height="100.7"/>
  <path class="cls-2" d="M101.41,7.34c51.16,0,91.67,40.51,91.67,91.67s-40.51,91.67-91.67,91.67S9.75,150.16,9.75,99.01,50.26,7.34,101.41,7.34ZM99.99,146.13h-32.1v6.72h32.1s0-6.72,0-6.72ZM83.91,90.67c-13.35,0-24.17,10.81-24.17,24.16,0,13.35,10.81,24.17,24.16,24.17h.02c13.35,0,24.17-10.82,24.17-24.17s-10.82-24.17-24.17-24.17h0ZM126.77,91.22c-3.74,0-6.94.98-9.66,2.54-3.96,2.39-5.93,5.87-5.93,10.42,0,2.39.33,4.83,1.79,6.73,1.9,2.33,2.38,3.48,8.03,5.6,1.02.42,4.96,1.29,8.32,2.51,2.34.85,4.38,1.99,5.05,2.73.84.93,1.42,2,1.52,3.17.05.91-.06,1.82-.33,2.68-1.14,3.09-4.25,4.45-8.75,4.45s-8.99-2.36-11.22-6.6l-5.73,3.32c.09.07,2.05,4.51,6.48,6.79,3.47,1.79,7.78,2.54,10.22,2.54,4.07,0,7.54-.57,10.42-2.31,4.02-2.5,6.02-6.4,6.02-11.13,0-3.42-1.31-6.4-3.81-8.68-.71-.64-3.11-2.04-6.1-3.18-4.32-1.66-9.48-2.92-9.93-3.11-3.37-1.58-4.94-3.5-4.94-5.83,0-.66,1.03-6.58,8.58-6.52,1.94.02,4.67.36,6.66,1.89,1.33,1.03,2.9,3.02,3.33,4.13l5.66-3.33c-1.37-2.75-3.38-4.82-6.08-6.58-2.79-1.83-7.03-2.21-9.61-2.23h0ZM83.91,98.17c9.2,0,16.67,7.46,16.67,16.67s-7.46,16.67-16.67,16.67h0c-9.2,0-16.67-7.46-16.67-16.67s7.46-16.67,16.67-16.67ZM148.2,60.92h-3.75l6.06,15.32-3.08,7,3.54.02,8.78-22.35h-3.47l-3.97,11.04-4.09-11.04h0ZM120.53,60.56c-1.34-.02-2.67.33-3.82,1.01-1.13.67-2.05,1.66-2.65,2.83-.65,1.3-.98,2.75-.95,4.21,0,1.58.32,2.98.95,4.2.6,1.18,1.51,2.16,2.65,2.82,1.13.67,2.42,1,3.83,1,2.72.09,5.24-1.4,6.47-3.83.63-1.22.95-2.62.95-4.2s-.32-2.98-.96-4.2c-1.24-2.42-3.75-3.91-6.47-3.85h0ZM69.2,60.57c-.58,0-2.14.12-3.31.7-1.33.67-2.28,1.82-2.75,2.31l2.33,1.86c.53-.5.63-1.45,3.04-1.88.95-.2,1.94-.01,2.75.52.69.5,1.05,1.36,1.05,2.35v.42l-1.63-.02h-1.47c-.75.04-1.49.12-2.23.24-.75.13-1.46.4-2.11.8-.69.46-1.27,1.07-1.7,1.78-.37.66-.57,1.4-.59,2.15,0,.79.17,1.48.5,2.08.33.59.66,1.03,1.19,1.43.56.41,1.19.71,1.86.89.69.2,1.41.29,2.13.29,1.05,0,3.73-.55,4.25-2.18h.1l.23,1.92h2.74c0-7.22-.02-11-.11-11.36-.13-.55-.33-1.08-.59-1.57-.27-.52-.41-.98-.92-1.37-.58-.43-1.23-.76-1.92-.98-.92-.28-1.88-.4-2.84-.38h0ZM46.67,54.96h-3.64v21.28h3.64v-9.46h10.21v9.46h3.47v-21.28h-3.47v8.54h-10.21s0-8.54,0-8.54ZM137.76,60.6c-2.42,0-3.67.61-4.8,2.38-.02-.9-.12-1.35-.22-1.98h-2.79c.08.92.13,2.09.13,3.53v11.67h3.27v-8.37c0-1.28.32-2.29.96-3.03.68-.75,1.66-1.15,2.67-1.1,1.98,0,2.97,1.05,2.97,3.15v9.34h3.34v-9.92c0-1.78-.47-3.17-1.4-4.15s-2.49-1.52-4.12-1.52ZM86.71,60.69h-.8c-.88-.04-1.75.18-2.5.63-.73.48-1.33.73-1.8,1.64,0-.67-.04-1.34-.15-2h-3.15c.08.92.13,2.08.13,3.52v11.69h3.25v-8.22c0-1.3.35-2.3,1.03-3,.68-.7,1.95-1.05,3.07-1.05.35,0,1.1.02,1.5.09v-3.22c-.18-.07-.38-.1-.58-.08ZM106.12,60.61c-2.25,0-3.91.83-4.97,2.5-.36-.77-.94-1.42-1.67-1.85-.8-.45-1.71-.68-2.63-.65-2.13,0-3.7.58-4.75,2.23-.02-.63-.07-1.25-.15-1.88l-2.85-.02c.02.17.02.64.03,1.42v2.31c0,2.53-.02,6.3-.08,11.33h3.47v-9.13c0-1.08.39-1.67.94-2.32.55-.65,1.34-.88,2.29-.88,1.7,0,2.82,1.4,2.82,2.34v9.98h3.36v-9.13c0-1.08.28-1.57.83-2.22.57-.65,1.4-1.01,2.27-.98,1.7,0,3.07,1.06,3.07,2.88v9.44h3.31v-9.97c-.07-1.52-.69-2.96-1.75-4.06-.93-.94-2.21-1.44-3.53-1.37ZM72.26,69.31v.89c.05.98-.3,1.95-.98,2.67-.65.65-1.25.9-2.62.9-.33,0-.67-.04-.99-.12-.32-.07-.62-.2-.89-.38-.26-.17-.47-.39-.64-.65-.17-.28-.26-.61-.25-.94,0-.57.17-1.08.58-1.41.42-.32.52-.49,1.13-.66.6-.17,1.29-.2,1.97-.25.68-.03,1.3-.06,1.85-.06h.83ZM120.53,63.56c1.13,0,2.32.33,3.02,1.29.74,1.11,1.1,2.42,1.03,3.75.07,1.32-.3,2.63-1.03,3.73-.69.94-1.88,1.22-3.02,1.22s-2.3-.27-2.99-1.22c-.74-1.1-1.1-2.41-1.03-3.73,0-1.55.34-2.8,1.03-3.75s1.86-1.29,3-1.29h0Z"/>
</svg>