<?xml version="1.0" standalone="no"?><!DOCTYPE svg PUBLIC "-//W3C//DTD SVG 1.1//EN" "http://www.w3.org/Graphics/SVG/1.1/DTD/svg11.dtd"><svg t="1653628587305" class="icon" viewBox="0 0 1024 1024" version="1.1" xmlns="http://www.w3.org/2000/svg" p-id="7838" xmlns:xlink="http://www.w3.org/1999/xlink" width="128" height="128"><defs><style type="text/css"></style></defs><path d="M512 512m-512 0a512 512 0 1 0 1024 0 512 512 0 1 0-1024 0Z" fill="#E1F0FB" p-id="7839"></path><path d="M376.163265 417.959184s2.089796 196.440816-10.448979 250.77551 177.632653 31.346939 177.632653 31.346939 16.718367-54.334694 62.693877-62.693878 94.040816-87.771429 94.040817-156.734694-52.244898-167.183673-52.244898-167.183673z" fill="#FFFFFF" p-id="7840"></path><path d="M397.061224 449.306122s169.273469 165.093878 208.979592 188.081633 58.514286 2.089796 83.591837-31.346939 48.065306-87.771429 41.795918-125.387755-4.179592-39.706122-31.346938-41.795918-137.926531-8.359184-198.530613-31.346939-62.693878-10.44898-62.693877-10.44898l20.897959 10.44898s112.84898 25.077551 104.489796 52.244898-39.706122 87.771429-83.591837 52.244898a504.926041 504.926041 0 0 1-73.142857-73.142857z" fill="#9AADBC" p-id="7841"></path><path d="M292.571429 188.081633c-64.783673 31.346939-64.783673 102.4-31.346939 177.632653s50.155102 119.118367 20.897959 167.183673 2.089796 54.334694 52.244898 0 215.24898-160.914286 313.469388-188.081632 213.159184-29.257143 135.836734-62.693878-104.489796 0-125.387755-73.142857-75.232653-137.926531-146.285714-104.489796-154.644898 52.244898-219.428571 83.591837z" fill="#9AADBC" p-id="7842"></path><path d="M94.040816 815.020408s43.885714-68.963265 146.285715-73.142857 114.938776-35.526531 114.938775-73.142857c0-30.646857 74.887837-20.897959 125.387755-20.897959 42.004898 0 98.220408 2.089796 114.938776 52.244898s43.885714 41.795918 94.040816 41.795918c128.522449 0 229.877551 83.591837 229.877551 83.591837S784.018286 1024 491.102041 1024C245.686857 1024 94.040816 815.020408 94.040816 815.020408z" fill="#9AADBC" p-id="7843"></path></svg>