<?xml version="1.0" standalone="no"?><!DOCTYPE svg PUBLIC "-//W3C//DTD SVG 1.1//EN" "http://www.w3.org/Graphics/SVG/1.1/DTD/svg11.dtd"><svg t="1722528009390" class="icon" viewBox="0 0 1024 1024" version="1.1" xmlns="http://www.w3.org/2000/svg" p-id="217806" xmlns:xlink="http://www.w3.org/1999/xlink" width="128" height="128"><path d="M0 0m256 0l512 0q256 0 256 256l0 512q0 256-256 256l-512 0q-256 0-256-256l0-512q0-256 256-256Z" fill="#2B87FF" p-id="217807"></path><path d="M837.76 328.704a68.864 68.864 0 0 0-68.608 69.12 68.032 68.032 0 0 0 3.648 20.8l-138.88 143.104a64.384 64.384 0 0 0-45.248 0l-148.16-119.744a67.904 67.904 0 0 0 3.84-21.952 68.864 68.864 0 1 0-135.872 15.36l-93.184 75.328a68.16 68.16 0 0 0-29.312-6.4 68.864 68.864 0 1 0 69.056 68.672 69.632 69.632 0 0 0-1.664-14.592l93.44-75.456a65.408 65.408 0 0 0 51.2 2.56l148.416 119.552a67.84 67.84 0 0 0-3.84 21.888 68.864 68.864 0 1 0 134.4-21.12l139.008-143.168a68.736 68.736 0 1 0 22.656-133.568z" fill="#FFFFFF" p-id="217808"></path></svg>