<?xml version="1.0" encoding="UTF-8"?>
<svg width="18px" height="18px" viewBox="0 0 18 18" version="1.1" xmlns="http://www.w3.org/2000/svg" xmlns:xlink="http://www.w3.org/1999/xlink">
    <title>远程-蓝</title>
    <g id="页面-1" stroke="none" stroke-width="1" fill="none" fill-rule="evenodd">
        <g id="画板备份-3" transform="translate(-72.000000, -22.000000)">
            <g id="远程-蓝" transform="translate(72.000000, 22.000000)">
                <rect id="矩形" x="0" y="0" width="18" height="18"></rect>
                <path d="M4.40909091,7.0693405 L4.40909091,6.0693405 L3.40909091,6.0693405 L3.40909091,7.0693405 L4.40909091,7.0693405 Z M4.40909091,5.0693405 L4.40909091,4.0693405 L3.40909091,4.0693405 L3.40909091,5.0693405 L4.40909091,5.0693405 Z M4.62593476,3.58779196 C4.69291389,3.54160669 4.76976858,3.51252678 4.85136555,3.50324988 L5.4306506,3.49997385 L5.4204231,2.50002615 L4.78976983,2.50647649 C4.4924061,2.53761844 4.25959718,2.62570757 4.05826208,2.7645376 L4.62593476,3.58779196 Z M6.42553685,3.5 L7.42553685,3.5 L7.42553685,2.5 L6.42553685,2.5 L6.42553685,3.5 Z M8.42553685,3.5 L9.42553685,3.5 L9.42553685,2.5 L8.42553685,2.5 L8.42553685,3.5 Z M10.4255368,3.5 L11.4255368,3.5 L11.4255368,2.5 L10.4255368,2.5 L10.4255368,3.5 Z M12.4255368,3.5 L13.4255368,3.5 L13.4255368,2.5 L12.4255368,2.5 L12.4255368,3.5 Z M14.1581997,3.56628001 C14.2947217,3.64503112 14.3873046,3.78370171 14.4056583,3.94069014 L14.4093315,4.11774159 L15.4088503,4.08672316 L15.4020353,3.86712076 C15.3435382,3.35108881 15.0661054,2.93555011 14.657867,2.7000626 L14.1581997,3.56628001 Z M14.4090909,5.10223238 L14.4090909,6.10223238 L15.4090909,6.10223238 L15.4090909,5.10223238 L14.4090909,5.10223238 Z M14.4090909,7.10223238 L14.4090909,8.10223238 L15.4090909,8.10223238 L15.4090909,7.10223238 L14.4090909,7.10223238 Z M14.4090909,9.10223238 L14.4090909,10.1022324 L15.4090909,10.1022324 L15.4090909,9.10223238 L14.4090909,9.10223238 Z M14.4090909,11.1022324 L14.4090909,12.1022324 L15.4090909,12.1022324 L15.4090909,11.1022324 L14.4090909,11.1022324 Z M14.4064942,13.0516521 C14.3884758,13.229337 14.275535,13.3838114 14.1135036,13.4565777 L14.5231763,14.3688103 C15.0090496,14.1506104 15.3470633,13.6882935 15.4013919,13.1525408 L14.4064942,13.0516521 Z M13.2210721,13.5 L12.2210721,13.5 L12.2210721,14.5 L13.2210721,14.5 L13.2210721,13.5 Z M11.2210721,13.5 L10.3276878,13.5 L10.3276878,14.5 L11.2210721,14.5 L11.2210721,13.5 Z" id="路径" fill="#376BF3" fill-rule="nonzero"></path>
                <g id="编组-2" transform="translate(10.644864, 6.616366) rotate(35.000000) translate(-10.644864, -6.616366) translate(7.901213, 5.169346)" fill="#376BF3" fill-rule="nonzero">
                    <path d="M2.65986849,1.44514233 C3.46118694,1.44514233 4.17549378,1.92091223 4.49194282,2.64201281 C4.60291059,2.89487792 4.48788006,3.18982275 4.23501495,3.30079052 C4.01024596,3.39942853 3.7522288,3.3195 3.61973037,3.12292509 L3.57623724,3.04386264 C3.41788679,2.6830254 3.06073619,2.44514233 2.65986849,2.44514233 C2.30605396,2.44514233 1.98618575,2.63043531 1.80705415,2.92236305 L1.7466854,3.03668084 C1.63371769,3.28865883 1.33787075,3.40134892 1.08589276,3.28838121 C0.833914766,3.1754135 0.721224668,2.87956656 0.834192378,2.62758857 C1.15402142,1.91419993 1.8642301,1.44514233 2.65986849,1.44514233 Z" id="路径"></path>
                    <path d="M2.73885919,-0.397795399 C4.14127072,-0.397795399 5.39130629,0.434800986 5.94515507,1.69687048 C6.05612284,1.9497356 5.94109231,2.24468042 5.6882272,2.35564819 C5.43536208,2.46661596 5.14041726,2.35158543 5.02944949,2.09872032 C4.6336993,1.19691416 3.74081997,0.602204601 2.73885919,0.602204601 C1.74397798,0.602204601 0.856256599,1.18850054 0.456246512,2.08073548 C0.343278802,2.33271347 0.0474318574,2.44540357 -0.204546133,2.33243586 C-0.456524124,2.21946815 -0.569214222,1.92362121 -0.456246512,1.67164322 C0.103528913,0.423046721 1.34638095,-0.397795399 2.73885919,-0.397795399 Z" id="路径"></path>
                </g>
                <path d="M5.74724749,6.98049812 L1.74466768,9.97727336 C1.61857057,10.0716836 1.54433737,10.219997 1.54433737,10.3775209 L1.54433737,15.3807456 C1.54433737,15.656888 1.768195,15.8807456 2.04433737,15.8807456 L10.049497,15.8807456 C10.3256394,15.8807456 10.549497,15.656888 10.549497,15.3807456 L10.549497,10.3775209 C10.549497,10.219997 10.4752638,10.0716836 10.3491667,9.97727336 L6.34658687,6.98049812 C6.1689438,6.84749481 5.92489056,6.84749481 5.74724749,6.98049812 Z M6.047,8.004 L9.549,10.627 L9.549,14.88 L2.544,14.88 L2.544,10.627 L6.047,8.004 Z" id="矩形" fill="#376BF3" fill-rule="nonzero"></path>
                <polygon id="路径" fill="#C3D2FA" fill-rule="nonzero" points="6.047 8.004 9.549 10.627 9.549 14.88 2.544 14.88 2.544 10.627"></polygon>
                <path d="M5.27419007,12.8944792 L6.77419007,12.8944792 C7.05033245,12.8944792 7.27419007,13.1183368 7.27419007,13.3944792 L7.27419007,14.8944792 L7.27419007,14.8944792 L4.77419007,14.8944792 L4.77419007,13.3944792 C4.77419007,13.1183368 4.9980477,12.8944792 5.27419007,12.8944792 Z" id="矩形备份-18" fill="#376BF3"></path>
            </g>
        </g>
    </g>
</svg>