<?xml version="1.0" standalone="no"?><!DOCTYPE svg PUBLIC "-//W3C//DTD SVG 1.1//EN" "http://www.w3.org/Graphics/SVG/1.1/DTD/svg11.dtd"><svg t="1651595247365" class="icon" viewBox="0 0 1024 1024" version="1.1" xmlns="http://www.w3.org/2000/svg" p-id="6223" xmlns:xlink="http://www.w3.org/1999/xlink" width="600" height="600"><defs><style type="text/css"></style></defs><path d="M0 0m170.666667 0l682.666666 0q170.666667 0 170.666667 170.666667l0 682.666666q0 170.666667-170.666667 170.666667l-682.666666 0q-170.666667 0-170.666667-170.666667l0-682.666666q0-170.666667 170.666667-170.666667Z" fill="#DBE5FC" p-id="6224"></path><path d="M295.822222 227.555556h119.466667a68.266667 68.266667 0 0 1 68.266667 68.266666v119.466667a68.266667 68.266667 0 0 1-68.266667 68.266667h-119.466667A68.266667 68.266667 0 0 1 227.555556 415.288889v-119.466667A68.266667 68.266667 0 0 1 295.822222 227.555556z" fill="#4C7CEE" p-id="6225"></path><path d="M608.711111 227.555556h119.466667a68.266667 68.266667 0 0 1 68.266666 68.266666v119.466667a68.266667 68.266667 0 0 1-68.266666 68.266667h-119.466667a68.266667 68.266667 0 0 1-68.266667-68.266667v-119.466667A68.266667 68.266667 0 0 1 608.711111 227.555556z" fill="#FF7D00" p-id="6226"></path><path d="M298.666667 540.444444h124.444444c39.253333 0 71.111111 30.549333 71.111111 68.266667v119.466667c0 37.717333-31.857778 68.266667-71.111111 68.266666H298.666667C259.413333 796.444444 227.555556 765.895111 227.555556 728.177778v-119.466667c0-37.717333 31.857778-68.266667 71.111111-68.266667z m302.222222 0H725.333333c39.253333 0 71.111111 30.549333 71.111111 68.266667v119.466667c0 37.717333-31.857778 68.266667-71.111111 68.266666h-124.444444c-39.253333 0-71.111111-30.549333-71.111111-68.266666v-119.466667c0-37.717333 31.857778-68.266667 71.111111-68.266667z" fill="#4C7CEE" p-id="6227"></path></svg>