<?xml version="1.0" standalone="no"?><!DOCTYPE svg PUBLIC "-//W3C//DTD SVG 1.1//EN" "http://www.w3.org/Graphics/SVG/1.1/DTD/svg11.dtd"><svg t="1651640519846" class="icon" viewBox="0 0 1024 1024" version="1.1" xmlns="http://www.w3.org/2000/svg" p-id="9334" xmlns:xlink="http://www.w3.org/1999/xlink" width="600" height="600"><defs><style type="text/css"></style></defs><path d="M585.142857 0a146.285714 146.285714 0 0 1 146.285714 146.285714v237.714286a109.714286 109.714286 0 0 1-109.714285 109.714286h-219.428572a146.285714 146.285714 0 0 0-146.285714 146.285714V731.428571H146.285714a146.285714 146.285714 0 0 1-146.285714-146.285714v-146.285714a146.285714 146.285714 0 0 1 146.285714-146.285714h365.714286V256H292.571429V146.285714a146.285714 146.285714 0 0 1 146.285714-146.285714h146.285714z m-173.714286 73.142857a45.714286 45.714286 0 1 0 0 91.428572 45.714286 45.714286 0 0 0 0-91.428572z" fill="#1F6C9D" p-id="9335"></path><path d="M438.857143 1024a146.285714 146.285714 0 0 1-146.285714-146.285714v-237.714286a109.714286 109.714286 0 0 1 109.714285-109.714286h219.428572a146.285714 146.285714 0 0 0 146.285714-146.285714V292.571429h109.714286a146.285714 146.285714 0 0 1 146.285714 146.285714v146.285714a146.285714 146.285714 0 0 1-146.285714 146.285714H512v36.571429h219.428571v109.714286a146.285714 146.285714 0 0 1-146.285714 146.285714h-146.285714z m173.714286-73.142857a45.714286 45.714286 0 1 0 0-91.428572 45.714286 45.714286 0 0 0 0 91.428572z" fill="#FFD300" p-id="9336"></path></svg>