<?xml version="1.0" standalone="no"?><!DOCTYPE svg PUBLIC "-//W3C//DTD SVG 1.1//EN" "http://www.w3.org/Graphics/SVG/1.1/DTD/svg11.dtd"><svg t="1651651617190" class="icon" viewBox="0 0 1024 1024" version="1.1" xmlns="http://www.w3.org/2000/svg" p-id="10619" xmlns:xlink="http://www.w3.org/1999/xlink" width="600" height="600"><defs><style type="text/css"></style></defs><path d="M984.30167 184.32c-16.1792-104.6528-217.7024-184.32-472.2688-184.32S55.53367 79.6672 39.55927 184.32a20.48 20.48 0 0 0-1.2288 5.12V450.56a20.48 20.48 0 0 0 2.048 8.6016A111.4112 111.4112 0 0 0 66.79767 512 109.568 109.568 0 0 0 38.33047 570.1632 20.48 20.48 0 0 0 38.33047 573.44v261.12a20.48 20.48 0 0 0 2.048 8.6016C58.81047 946.5856 259.10487 1024 512.03287 1024s453.4272-77.6192 471.04-180.8384a20.48 20.48 0 0 0 2.048-8.6016V573.44a20.48 20.48 0 0 0 0-3.2768A109.568 109.568 0 0 0 957.26807 512a110.1824 110.1824 0 0 0 26.4192-52.8384 20.48 20.48 0 0 0 2.048-8.6016V189.44a20.48 20.48 0 0 0-1.4336-5.12z m-39.7312 396.9024C944.57047 655.36 766.80407 737.28 512.03287 737.28S79.29047 655.36 79.29047 581.2224a65.536 65.536 0 0 1 17.6128-40.96c79.6672 61.44 233.6768 100.5568 415.1296 100.5568s335.4624-39.936 415.1296-100.352a65.536 65.536 0 0 1 17.408 40.7552z m0-132.9152c-7.9872 72.704-184.32 150.7328-432.3328 150.7328S87.68727 521.216 79.29047 447.6928a38.912 38.912 0 0 1 0-4.9152v-163.84c73.1136 69.2224 237.3632 115.3024 432.7424 115.3024S871.45687 348.16 944.57047 278.528v163.84a40.96 40.96 0 0 1-0.4096 5.9392zM512.03287 40.96c254.7712 0 432.5376 81.92 432.5376 156.2624s-177.7664 156.2624-432.5376 156.2624S79.29047 270.9504 79.29047 197.2224 257.05687 40.96 512.03287 40.96z m0 942.08C263.61047 983.04 87.68727 905.216 79.29047 831.6928a38.912 38.912 0 0 1 0-4.9152v-163.84C152.40407 731.3408 316.65367 778.24 512.03287 778.24s359.424-46.8992 432.7424-115.5072v163.84a40.96 40.96 0 0 1 0 5.5296C936.17367 905.216 760.66007 983.04 512.03287 983.04z" fill="#009245" p-id="10620"></path></svg>