<?xml version="1.0" standalone="no"?><!DOCTYPE svg PUBLIC "-//W3C//DTD SVG 1.1//EN" "http://www.w3.org/Graphics/SVG/1.1/DTD/svg11.dtd"><svg t="1721705379912" class="icon" viewBox="0 0 1024 1024" version="1.1" xmlns="http://www.w3.org/2000/svg" p-id="8022" xmlns:xlink="http://www.w3.org/1999/xlink" width="128" height="128"><path d="M512 0c282.763636 0 512 229.236364 512 512s-229.236364 512-512 512S0 794.763636 0 512 229.236364 0 512 0z m0 42.658909C252.811636 42.658909 42.658909 252.811636 42.658909 512c0 259.211636 210.152727 469.341091 469.341091 469.341091 259.211636 0 469.341091-210.152727 469.341091-469.341091 0-259.188364-210.152727-469.341091-469.341091-469.341091z" fill="#6591FF" p-id="8023"></path><path d="M746.030545 478.789818v252.974546c0 19.898182-16.104727 36.002909-35.956363 36.002909H314.391273a35.979636 35.979636 0 0 1-35.979637-35.979637V478.696727l-24.645818 20.689455a26.996364 26.996364 0 0 1-34.676363-41.355637l59.345454-49.780363v-0.209455h0.232727l2.978909-2.490182 184.087273-155.787636a71.936 71.936 0 0 1 92.974546 0l187.042909 158.254546h0.279272v0.372363L805.236364 458.007273a26.996364 26.996364 0 0 1-34.676364 41.332363l-24.506182-20.573091z m-323.723636 37.376a17.989818 17.989818 0 1 0 0 35.979637h179.851636a17.989818 17.989818 0 0 0 0-35.979637h-179.851636z m0 107.915637a17.989818 17.989818 0 0 0 0 35.979636h179.851636a17.989818 17.989818 0 0 0 0-35.979636h-179.851636z" fill="#6591FF" p-id="8024"></path></svg>