<?xml version="1.0" standalone="no"?><!DOCTYPE svg PUBLIC "-//W3C//DTD SVG 1.1//EN" "http://www.w3.org/Graphics/SVG/1.1/DTD/svg11.dtd"><svg t="1722436399772" class="icon" viewBox="0 0 1024 1024" version="1.1" xmlns="http://www.w3.org/2000/svg" p-id="4112" xmlns:xlink="http://www.w3.org/1999/xlink" width="128" height="128"><path d="M256 0h512a256 256 0 0 1 256 256v512a256 256 0 0 1-256 256H256a256 256 0 0 1-256-256V256a256 256 0 0 1 256-256z m179.285333 593.493333h-25.6v102.144H512V593.493333h-76.672z m37.205334-125.653333v102.272h102.272v-102.272h-25.6l-51.114667-0.042667h-25.557333z m22.698666-151.978667L334.933333 413.525333a42.666667 42.666667 0 0 0-20.48 36.437334v228.565333a42.666667 42.666667 0 0 0 42.666667 42.666667h27.093333v-153.386667h62.72v-125.525333h153.429334v125.525333h62.72v153.386667h27.136a42.666667 42.666667 0 0 0 42.666666-42.666667v-227.754667a42.666667 42.666667 0 0 0-21.546666-37.077333l-172.8-98.432a42.666667 42.666667 0 0 0-43.306667 0.597333z m67.968 277.461334h-27.904v102.272h102.272v-102.229334H563.2z" fill="#1890FF" p-id="4113"></path></svg>