<?xml version="1.0" standalone="no"?><!DOCTYPE svg PUBLIC "-//W3C//DTD SVG 1.1//EN" "http://www.w3.org/Graphics/SVG/1.1/DTD/svg11.dtd"><svg t="1722526252755" class="icon" viewBox="0 0 1024 1024" version="1.1" xmlns="http://www.w3.org/2000/svg" p-id="121170" xmlns:xlink="http://www.w3.org/1999/xlink" width="128" height="128"><path d="M81.92 0h860.16c45.056 0 81.92 36.864 81.92 81.92v860.16c0 45.056-36.864 81.92-81.92 81.92H81.92c-45.056 0-81.92-36.864-81.92-81.92V81.92c0-45.056 36.864-81.92 81.92-81.92z" fill="#1890FF" p-id="121171"></path><path d="M358.4 225.28c-73.728 0-133.12 59.392-133.12 133.12s59.392 133.12 133.12 133.12h102.4c16.384 0 30.72-14.336 30.72-30.72v-102.4c-2.048-73.728-61.44-133.12-133.12-133.12z m0 309.248c-73.728 0-133.12 59.392-133.12 131.072 0 73.728 59.392 133.12 133.12 133.12s133.12-59.392 133.12-133.12v-102.4c0-16.384-14.336-30.72-30.72-30.72h-102.4z m307.2-264.192c22.528 0 45.056 8.192 61.44 24.576 16.384 16.384 24.576 38.912 24.576 61.44s-8.192 45.056-24.576 61.44c-16.384 16.384-38.912 24.576-61.44 24.576h-86.016v-83.968c0-22.528 8.192-45.056 24.576-61.44 16.384-16.384 38.912-26.624 61.44-26.624z m0-45.056c-73.728 0-133.12 59.392-133.12 133.12v102.4c0 16.384 14.336 30.72 30.72 30.72h102.4c73.728 0 133.12-59.392 133.12-133.12S739.328 225.28 665.6 225.28z m0 309.248h-102.4c-16.384 0-30.72 14.336-30.72 30.72v102.4c0 73.728 59.392 133.12 133.12 133.12s133.12-59.392 133.12-133.12-59.392-133.12-133.12-133.12z" fill="#FFFFFF" p-id="121172"></path></svg>