<?xml version="1.0" standalone="no"?><!DOCTYPE svg PUBLIC "-//W3C//DTD SVG 1.1//EN" "http://www.w3.org/Graphics/SVG/1.1/DTD/svg11.dtd"><svg t="1722436042852" class="icon" viewBox="0 0 1024 1024" version="1.1" xmlns="http://www.w3.org/2000/svg" p-id="89145" xmlns:xlink="http://www.w3.org/1999/xlink" width="128" height="128"><path d="M870.625551 0H153.374449C67.665198 0 0 67.665198 0 153.374449v714.995595c0 85.709251 67.665198 153.374449 153.374449 153.374449h714.995595c85.709251 0 153.374449-67.665198 153.374449-153.374449V153.374449c2.255507-85.709251-67.665198-153.374449-151.118942-153.374449z m-135.330397 572.898678V651.84141c0 9.022026-2.255507 18.044053-9.022026 24.810572-4.511013 6.76652-13.53304 11.277533-24.810573 11.277533H313.515419c-9.022026 0-18.044053-2.255507-22.555067-9.022026-4.511013-6.76652-6.76652-15.788546-9.022026-24.810573v-18.044053-24.810572-49.621146-13.533039c0-4.511013 0-6.76652 2.255507-9.022027 0-2.255507 2.255507-4.511013 2.255506-9.022026 0-2.255507 2.255507-6.76652 4.511013-11.277533 0-2.255507 2.255507-9.022026 6.76652-15.788546 2.255507-6.76652 6.76652-15.788546 11.277533-27.06608s9.022026-20.299559 15.788547-31.577092 11.277533-22.555066 15.788546-33.832599 9.022026-20.299559 13.533039-27.06608l9.022027-18.044053c4.511013-9.022026 9.022026-15.788546 15.788546-18.044052 6.76652-2.255507 13.53304-4.511013 22.555066-4.511014h212.017621c11.277533 0 20.299559 2.255507 27.06608 4.511014s11.277533 9.022026 15.788546 18.044052l9.022026 18.044053 13.53304 27.06608c4.511013 11.277533 9.022026 20.299559 15.788546 31.577092 4.511013 11.277533 9.022026 22.555066 13.53304 31.577093 4.511013 11.277533 9.022026 18.044053 11.277533 27.066079 4.511013 6.76652 6.76652 13.53304 6.76652 18.044053 2.255507 4.511013 2.255507 6.76652 4.511013 9.022026 2.255507 2.255507 2.255507 4.511013 2.255507 6.76652 0 2.255507 2.255507 4.511013 2.255506 9.022027V572.898678z" fill="#1890FF" p-id="89146"></path><path d="M687.929515 548.088106H329.303965c-6.76652 0-9.022026 2.255507-13.53304 4.511013s-4.511013 6.76652-4.511013 13.53304v74.431718c0 4.511013 0 6.76652 2.255507 11.277533 2.255507 2.255507 6.76652 4.511013 11.277533 4.511013h360.881057c6.76652 0 11.277533-2.255507 13.533039-4.511013s2.255507-6.76652 2.255507-11.277533V563.876652c0-11.277533-4.511013-15.788546-13.53304-15.788546z m-313.515418 92.475771h-15.788546v-74.431718h15.788546v74.431718z m45.110132 0h-15.788546v-74.431718h15.788546v74.431718z m47.365639 0H451.101322v-74.431718h15.788546v74.431718z m45.110132 0H496.211454v-74.431718h15.788546v74.431718z m47.365639 0h-15.788546v-74.431718h15.788546v74.431718z m47.365639 0h-15.788547v-74.431718h15.788547v74.431718z m45.110132 0h-15.788547v-74.431718h15.788547v74.431718z" fill="#1890FF" p-id="89147"></path></svg>