<?xml version="1.0" standalone="no"?><!DOCTYPE svg PUBLIC "-//W3C//DTD SVG 1.1//EN" "http://www.w3.org/Graphics/SVG/1.1/DTD/svg11.dtd"><svg t="1651596306140" class="icon" viewBox="0 0 1024 1024" version="1.1" xmlns="http://www.w3.org/2000/svg" p-id="1835" xmlns:xlink="http://www.w3.org/1999/xlink" width="600" height="600"><defs><style type="text/css"></style></defs><path d="M56.88888853-34.13333333h910.22222294c50.06222187 0 91.02222187 40.96 91.02222186 91.02222186v910.22222294c0 50.06222187-40.96 91.02222187-91.02222186 91.02222186H56.88888853c-50.06222187 0-91.02222187-40.96-91.02222186-91.02222186V56.88888853c0-52.33777813 40.96-91.02222187 91.02222186-91.02222186z" fill="#1890FF" p-id="1836"></path><path d="M748.65777813 202.5244448H275.34222187c-25.03111147 0-45.51111147 20.48-45.5111104 45.5111104v138.8088896c0 25.03111147 20.48 45.51111147 45.5111104 45.5111104h471.04c25.03111147 0 45.51111147-20.48 45.51111146-45.5111104v-138.8088896c2.2755552-27.30666667-18.2044448-45.51111147-43.2355552-45.5111104z m-6.82666666 177.49333333H282.16888853v-125.15555626H739.5555552v125.15555626zM748.65777813 482.41777813H275.34222187c-25.03111147 0-45.51111147 20.48-45.5111104 45.5111104v245.76c0 25.03111147 20.48 45.51111147 45.5111104 45.51111147h471.04c25.03111147 0 45.51111147-20.48 45.51111146-45.51111147V527.92888853c2.2755552-25.03111147-18.2044448-45.51111147-43.2355552-45.5111104z m-6.82666666 286.72H282.16888853V534.7555552H739.5555552v234.38222293z" fill="#FFFFFF" p-id="1837"></path><path d="M655.36 316.30222187m-27.30666667 0a27.30666667 27.30666667 0 1 0 54.61333334 0 27.30666667 27.30666667 0 1 0-54.61333334 0Z" fill="#FFFFFF" p-id="1838"></path><path d="M370.9155552 723.62666667c13.65333333 0 25.03111147-11.37777813 25.03111147-25.03111147v-84.1955552c0-13.65333333-11.37777813-27.30666667-25.03111147-27.30666667s-27.30666667 11.37777813-27.30666667 27.30666667v84.1955552c2.2755552 13.65333333 13.65333333 25.03111147 27.30666667 25.03111147zM512 723.62666667c13.65333333 0 25.03111147-11.37777813 25.03111147-25.03111147v-84.1955552c0-13.65333333-11.37777813-27.30666667-25.03111147-27.30666667s-27.30666667 11.37777813-27.30666667 27.30666667v84.1955552c2.2755552 13.65333333 13.65333333 25.03111147 27.30666667 25.03111147zM653.0844448 723.62666667c13.65333333 0 25.03111147-11.37777813 25.0311104-25.03111147v-84.1955552c0-13.65333333-11.37777813-27.30666667-25.0311104-27.30666667s-27.30666667 11.37777813-27.30666667 25.03111147v84.1955552c0 15.92888853 13.65333333 27.30666667 27.30666667 27.30666667z" fill="#FFFFFF" p-id="1839"></path></svg>