<?xml version="1.0" standalone="no"?><!DOCTYPE svg PUBLIC "-//W3C//DTD SVG 1.1//EN" "http://www.w3.org/Graphics/SVG/1.1/DTD/svg11.dtd"><svg t="1654427713524" class="icon" viewBox="0 0 1025 1024" version="1.1" xmlns="http://www.w3.org/2000/svg" p-id="6420" xmlns:xlink="http://www.w3.org/1999/xlink" width="128.125" height="128"><defs><style type="text/css"></style></defs><path d="M982.840107 599.04A34.346667 34.346667 0 0 0 949.986773 576a37.973333 37.973333 0 0 0-31.146666 8.746667l-62.506667 61.653333-31.573333-31.573333 62.72-62.506667a30.08 30.08 0 0 0 8.533333-34.133333 35.626667 35.626667 0 0 0-23.893333-29.653334 210.986667 210.986667 0 0 0-234.666667 45.44 204.16 204.16 0 0 0-53.546667 209.493334l-83.413333 83.626666A87.893333 87.893333 0 0 0 473.826773 896a104.32 104.32 0 0 0 27.52 68.48 88.533333 88.533333 0 0 0 68.266667 27.306667 104.32 104.32 0 0 0 68.48-27.306667l99.626667-99.84a39.466667 39.466667 0 0 0-55.68-55.68l-99.84 99.84a21.333333 21.333333 0 0 1-31.36 0 15.146667 15.146667 0 0 1-3.84-12.8 14.72 14.72 0 0 1 3.84-12.586667l99.626666-99.84a46.933333 46.933333 0 0 0 8.106667-46.933333 125.013333 125.013333 0 0 1 29.226667-146.346667A116.693333 116.693333 0 0 1 769.506773 553.173333l-32.213333 36.906667a37.546667 37.546667 0 0 0-8.746667 30.933333c0 14.293333 0 16.64 8.746667 24.746667l87.253333 87.466667a39.893333 39.893333 0 0 0 55.68 0l33.706667-33.92a159.36 159.36 0 0 1-33.28 77.866666 116.266667 116.266667 0 0 1-74.88 34.986667 33.92 33.92 0 0 0-28.16 14.293333 37.333333 37.333333 0 0 0-4.906667 34.133334c8.746667 26.24 26.666667 37.76 46.72 30.72A201.173333 201.173333 0 0 0 937.186773 832 222.293333 222.293333 0 0 0 982.840107 599.04z" fill="#ffffff" p-id="6421"></path><path d="M485.560107 966.826667c-10.24-11.52-21.333333-23.466667-33.92-23.893334A429.013333 429.013333 0 0 1 73.186773 515.2 423.253333 423.253333 0 0 1 501.13344 87.253333 422.613333 422.613333 0 0 1 897.506773 355.626667a39.04 39.04 0 0 0 21.333334 24.106666 46.506667 46.506667 0 0 0 32.213333 0 40.746667 40.746667 0 0 0 24.106667-54.826666A502.826667 502.826667 0 0 0 507.320107 7.893333 507.946667 507.946667 0 0 0 0.01344 515.2a499.626667 499.626667 0 0 0 451.2 500.906667h6.186667a36.906667 36.906667 0 0 0 39.68-33.493334v-3.413333l-2.346667-2.56c-2.56-2.986667-6.186667-6.4-9.173333-9.813333z" fill="#ffffff" p-id="6422"></path><path d="M707.000107 377.813333a51.84 51.84 0 0 0 26.24 14.72 31.573333 31.573333 0 0 0 29.44-8.533333 38.826667 38.826667 0 0 0 6.826666-54.186667 323.2 323.2 0 0 0-268.8-147.413333 338.56 338.56 0 0 0-326.186666 332.8 324.48 324.48 0 0 0 224.213333 307.2h15.146667a42.666667 42.666667 0 0 0 39.253333-24.533333A39.04 39.04 0 0 0 428.17344 750.08a243.84 243.84 0 0 1-174.933333-234.666667 247.466667 247.466667 0 0 1 247.893333-247.466666 250.88 250.88 0 0 1 205.866667 109.866666z" fill="#ffffff" p-id="6423"></path><path d="M501.13344 455.04a49.493333 49.493333 0 0 1 42.666667 22.4 39.466667 39.466667 0 0 0 56.32-55.04 132.48 132.48 0 0 0-106.666667-46.72 138.24 138.24 0 0 0-133.12 139.52 147.413333 147.413333 0 0 0 79.146667 125.866667l2.133333 1.706666h2.346667a16.213333 16.213333 0 0 0 12.16 5.546667 30.08 30.08 0 0 0 33.493333-25.813333 42.666667 42.666667 0 0 0-17.28-52.693334 60.16 60.16 0 0 1-32.64-54.613333 61.013333 61.013333 0 0 1 61.44-60.16z" fill="#ffffff" p-id="6424"></path></svg>