<?xml version="1.0" standalone="no"?><!DOCTYPE svg PUBLIC "-//W3C//DTD SVG 1.1//EN" "http://www.w3.org/Graphics/SVG/1.1/DTD/svg11.dtd"><svg t="1722526084185" class="icon" viewBox="0 0 1024 1024" version="1.1" xmlns="http://www.w3.org/2000/svg" p-id="116293" xmlns:xlink="http://www.w3.org/1999/xlink" width="128" height="128"><path d="M921.6 0c56.32 0 102.4 46.08 102.4 102.4v819.2c0 56.32-46.08 102.4-102.4 102.4H102.4C46.08 1024 0 977.92 0 921.6V102.4C0 46.08 46.08 0 102.4 0zM431.502222 199.111111H302.819556l-5.12 0.455111A28.444444 28.444444 0 0 0 274.716444 227.555556v134.030222h-43.633777c-18.488889 0-35.953778 8.590222-47.388445 23.324444a61.44 61.44 0 0 0-11.320889 51.939556l81.123556 341.333333c6.485333 27.363556 30.776889 46.705778 58.652444 46.705778h399.758223c27.875556 0 52.167111-19.342222 58.709333-46.762667l81.066667-341.333333a60.871111 60.871111 0 0 0-58.709334-75.150222l-46.648889-0.056889L552.504889 220.728889l-4.323556-2.616889a27.989333 27.989333 0 0 0-34.929777 9.102222L459.662222 302.08V227.555556l-0.341333-4.437334a28.046222 28.046222 0 0 0-27.875556-24.007111z m361.415111 219.477333a3.982222 3.982222 0 0 1 3.128889 1.536c0.796444 0.967111 1.080889 2.275556 0.796445 3.413334l-81.123556 341.333333a3.982222 3.982222 0 0 1-3.868444 3.072H312.092444a3.982222 3.982222 0 0 1-3.868444-3.072l-81.066667-341.333333a4.096 4.096 0 0 1 0.739556-3.413334 3.982222 3.982222 0 0 1 3.128889-1.536h503.125333a27.932444 27.932444 0 0 0 6.371556 0z m-296.96 73.102223H367.160889a28.330667 28.330667 0 0 0-28.216889 28.444444c0 15.701333 12.629333 28.444444 28.216889 28.444445h128.682667c10.069333 0 19.342222-5.404444 24.462222-14.222223a28.728889 28.728889 0 0 0 0-28.444444 28.16 28.16 0 0 0-24.462222-14.222222z m46.535111-208.156445l107.292445 78.051556H486.684444l55.808-78.051556zM403.342222 256.056889v105.585778H331.093333V256H403.342222z" fill="#1890FF" p-id="116294"></path></svg>