<?xml version="1.0" standalone="no"?><!DOCTYPE svg PUBLIC "-//W3C//DTD SVG 1.1//EN" "http://www.w3.org/Graphics/SVG/1.1/DTD/svg11.dtd"><svg t="1722527981299" class="icon" viewBox="0 0 1024 1024" version="1.1" xmlns="http://www.w3.org/2000/svg" p-id="217200" xmlns:xlink="http://www.w3.org/1999/xlink" width="128" height="128"><path d="M887.432533 1023.965867h-750.933333a136.533333 136.533333 0 0 1-136.533333-136.533334v-750.933333a136.533333 136.533333 0 0 1 136.533333-136.533333h750.933333a136.533333 136.533333 0 0 1 136.533334 136.533333v750.933333a136.533333 136.533333 0 0 1-136.533334 136.533334z m-212.5824-466.6368a167.253333 167.253333 0 0 1-46.3872 88.917333 166.946133 166.946133 0 0 1-88.746666 46.421333v111.8208a277.162667 277.162667 0 0 0 247.0912-247.1936z m-437.589333 0a277.128533 277.128533 0 0 0 247.0912 247.1936v-111.8208a166.946133 166.946133 0 0 1-88.746667-46.421334 167.253333 167.253333 0 0 1-46.4896-88.917333z m247.0912-303.786667a276.6848 276.6848 0 0 0-247.0912 247.0912h111.7184a167.253333 167.253333 0 0 1 46.4896-88.746667 166.946133 166.946133 0 0 1 88.746667-46.421333V253.6448z m55.227733 0v111.8208a166.946133 166.946133 0 0 1 88.746667 46.421333 166.843733 166.843733 0 0 1 46.3872 88.746667h111.8208a276.6848 276.6848 0 0 0-247.0912-247.0912z" fill="#1890FF" p-id="217201"></path></svg>