<?xml version="1.0" standalone="no"?><!DOCTYPE svg PUBLIC "-//W3C//DTD SVG 1.1//EN" "http://www.w3.org/Graphics/SVG/1.1/DTD/svg11.dtd"><svg t="1653496699954" class="icon" viewBox="0 0 1024 1024" version="1.1" xmlns="http://www.w3.org/2000/svg" p-id="6293" xmlns:xlink="http://www.w3.org/1999/xlink" width="128" height="128"><defs><style type="text/css"></style></defs><path d="M0 0m136.533333 0l750.933334 0q136.533333 0 136.533333 136.533333l0 750.933334q0 136.533333-136.533333 136.533333l-750.933334 0q-136.533333 0-136.533333-136.533333l0-750.933334q0-136.533333 136.533333-136.533333Z" fill="#4686F9" p-id="6294"></path><path d="M523.9808 537.207467c29.098667-21.111467 47.940267-56.490667 47.940267-96.426667 0-49.646933-29.678933-92.450133-71.338667-110.1312a106.154667 106.154667 0 0 0-42.786133-8.567467c-62.7712 0-114.1248 53.077333-114.1248 118.698667 0 39.936 19.4048 75.3152 47.9232 96.426667-61.047467 22.8352-108.407467 77.038933-123.818667 144.384-5.700267 24.5248 12.561067 47.9232 37.666133 47.9232h305.834667c25.122133 0 43.383467-23.3984 37.666133-47.940267-2.850133-13.687467-7.406933-26.248533-13.124266-38.792533-21.674667-49.083733-62.190933-87.313067-111.837867-105.5744z" fill="#FFFFFF" opacity=".982" p-id="6295"></path><path d="M646.0928 471.586133a107.246933 107.246933 0 0 0 42.8032-86.152533c0-58.197333-45.090133-105.5744-101.5808-105.5744a95.010133 95.010133 0 0 0-66.747733 26.8288c47.9232 23.9616 81.015467 74.752 81.015466 134.0928 0 31.9488-9.693867 62.7712-27.9552 87.876267a231.253333 231.253333 0 0 1 93.576534 114.688h62.7712c18.261333 0 31.9488-17.117867 28.535466-34.816-11.9808-63.8976-55.3472-115.2512-112.418133-136.942934z" fill="#FFFFFF" opacity=".704" p-id="6296"></path></svg>