<?xml version="1.0" standalone="no"?><!DOCTYPE svg PUBLIC "-//W3C//DTD SVG 1.1//EN" "http://www.w3.org/Graphics/SVG/1.1/DTD/svg11.dtd"><svg t="1654427690290" class="icon" viewBox="0 0 1024 1024" version="1.1" xmlns="http://www.w3.org/2000/svg" p-id="5535" xmlns:xlink="http://www.w3.org/1999/xlink" width="128" height="128"><defs><style type="text/css"></style></defs><path d="M829.041452 412.143588 516.103342 254.334368 621.338584 125.597679 930.122276 290.326035 829.041452 412.143588ZM94 287.558038 409.707434 125.597679 510.783976 254.335224 200.621188 412.143588 94 287.558038ZM510.566404 560.7547 455.178174 717.17821 145.015386 560.7547 200.394194 412.633468 510.566404 560.7547ZM461.406372 741.056464 508.14485 619.23891 508.14485 901.631112 181.01234 750.052454 182.047089 599.85865 461.406372 741.056464ZM891.348288 559.367276 570.10734 715.793354 517.490148 560.7547 829.041452 412.63347 891.348288 559.367276ZM845.655694 600.895792 845.655694 750.052454 519.568212 901.631968 519.568212 619.239766 562.88722 741.35536 845.655694 600.895792Z" p-id="5536" fill="#ffffff"></path></svg>