<?xml version="1.0" standalone="no"?><!DOCTYPE svg PUBLIC "-//W3C//DTD SVG 1.1//EN" "http://www.w3.org/Graphics/SVG/1.1/DTD/svg11.dtd"><svg t="1654427629109" class="icon" viewBox="0 0 1024 1024" version="1.1" xmlns="http://www.w3.org/2000/svg" p-id="3067" xmlns:xlink="http://www.w3.org/1999/xlink" width="128" height="128"><defs><style type="text/css"></style></defs><path d="M618.666667 471.466667V426.666667c0-23.466667-19.2-42.666667-42.666667-42.666667H234.666667c-23.466667 0-42.666667 19.2-42.666667 42.666667v10.666666l-100.266667-36.266666c-17.066667-6.4-34.133333 2.133333-40.533333 19.2-6.4 17.066667 2.133333 34.133333 19.2 40.533333l121.6 42.666667V554.666667H74.666667c-17.066667 0-32 14.933333-32 32S57.6 618.666667 74.666667 618.666667H192v21.333333c0 8.533333 0 19.2 2.133333 27.733333l-125.866666 44.8c-17.066667 6.4-25.6 23.466667-19.2 40.533334 6.4 17.066667 23.466667 25.6 40.533333 19.2l121.6-44.8c29.866667 64 89.6 110.933333 162.133333 121.6V544c0-17.066667 14.933333-32 32-32s32 14.933333 32 32v307.2c49.066667-8.533333 93.866667-32 125.866667-68.266667C544 746.666667 533.333333 704 533.333333 661.333333c0-74.666667 34.133333-142.933333 85.333334-189.866666zM298.666667 341.333333h213.333333c12.8 0 21.333333-8.533333 21.333333-21.333333v-21.333333c0-70.4-57.6-128-128-128s-128 57.6-128 128v21.333333c0 12.8 8.533333 21.333333 21.333334 21.333333zM789.333333 469.333333c-106.666667 0-192 85.333333-192 192s85.333333 192 192 192 192-85.333333 192-192-85.333333-192-192-192z m-85.333333 85.333334c0-12.8 8.533333-21.333333 21.333333-21.333334h128c12.8 0 21.333333 8.533333 21.333334 21.333334v42.666666c0 12.8-8.533333 21.333333-21.333334 21.333334s-21.333333-8.533333-21.333333-21.333334v-21.333333h-85.333333v21.333333c0 12.8-8.533333 21.333333-21.333334 21.333334s-21.333333-8.533333-21.333333-21.333334v-42.666666z m170.666667 213.333333c0 12.8-8.533333 21.333333-21.333334 21.333333h-128c-12.8 0-21.333333-8.533333-21.333333-21.333333v-42.666667c0-12.8 8.533333-21.333333 21.333333-21.333333s21.333333 8.533333 21.333334 21.333333v21.333334h85.333333v-21.333334c0-12.8 8.533333-21.333333 21.333333-21.333333s21.333333 8.533333 21.333334 21.333333v42.666667z m21.333333-85.333333H682.666667c-12.8 0-21.333333-8.533333-21.333334-21.333334s8.533333-21.333333 21.333334-21.333333h213.333333c12.8 0 21.333333 8.533333 21.333333 21.333333s-8.533333 21.333333-21.333333 21.333334z" p-id="3068" fill="#ffffff"></path></svg>