<?xml version="1.0" standalone="no"?><!DOCTYPE svg PUBLIC "-//W3C//DTD SVG 1.1//EN" "http://www.w3.org/Graphics/SVG/1.1/DTD/svg11.dtd"><svg t="1665468158240" class="icon" viewBox="0 0 1024 1024" version="1.1" xmlns="http://www.w3.org/2000/svg" p-id="17804" xmlns:xlink="http://www.w3.org/1999/xlink" width="128" height="128"><path d="M771.2 804.48H226.56c-21.44 0-38.912 16.384-38.912 36.352 0 19.968 17.472 36.352 38.912 36.352h544.64c21.376 0 38.912-16.384 38.912-36.352 0-19.84-17.536-36.288-38.912-36.288m0-145.088H226.56c-21.44 0-38.912 16.32-38.912 36.288 0 19.968 17.472 36.288 38.912 36.288h544.64c21.376 0 38.912-16.32 38.912-36.288 0-19.968-17.536-36.288-38.912-36.288" fill="#ffffff" p-id="17805"></path><path d="M887.936 913.28c0 19.968-17.536 36.288-38.912 36.288H148.736c-21.504 0-38.848-16.256-38.912-36.288V114.368c0-19.968 17.472-36.288 38.912-36.288h700.288c21.376 0 38.912 16.32 38.912 36.288v798.912z m0-907.84H109.824C67.008 5.44 32 38.08 32 78.08V949.568c0 39.936 35.008 72.64 77.824 72.64h778.112c42.816 0 77.824-32.64 77.824-72.64V78.08c0-39.936-35.008-72.64-77.824-72.64z" fill="#ffffff" p-id="17806"></path><path d="M798.72 161.536a41.088 41.088 0 0 0-55.04 0L460.032 426.368 331.776 306.752a41.088 41.088 0 0 0-55.04 0 34.752 34.752 0 0 0 0 51.328l155.52 145.152 0.192 0.256a40.896 40.896 0 0 0 55.04 0l0.192-0.32 311.04-290.368a34.624 34.624 0 0 0 0-51.264" fill="#ffffff" p-id="17807"></path></svg>