<?xml version="1.0" standalone="no"?><!DOCTYPE svg PUBLIC "-//W3C//DTD SVG 1.1//EN" "http://www.w3.org/Graphics/SVG/1.1/DTD/svg11.dtd"><svg t="1653310461104" class="icon" viewBox="0 0 1024 1024" version="1.1" xmlns="http://www.w3.org/2000/svg" p-id="8198" xmlns:xlink="http://www.w3.org/1999/xlink" width="128" height="128"><defs><style type="text/css"></style></defs><path d="M512 0a512 512 0 1 0 512 512A512 512 0 0 0 512 0z m13.474 229.053h53.894L498.526 552.42h-53.894zM309.894 256h80.843L256 390.737l134.737 134.737h-80.842L175.158 390.737z m59.285 504.59l-30.45-49.584-30.451 49.583h-53.895l53.221-80.842-47.831-73.431h52.547l26.947 47.427 26.948-47.427h51.47l-48.102 74.779 52.682 79.494z m242.526 0h-39.073V642.963L542.585 760.59h-35.974l-30.047-117.625V760.59h-39.073V606.316h62.652l24.253 94.316 23.983-94.316h62.653z m152.522 0H641.482V606.315h47.697v116.278h74.375z m-50.122-235.116h-80.842L768 390.737 633.263 256h80.842l134.737 134.737z" fill="#6A71C3" p-id="8199"></path></svg>