<?xml version="1.0" standalone="no"?><!DOCTYPE svg PUBLIC "-//W3C//DTD SVG 1.1//EN" "http://www.w3.org/Graphics/SVG/1.1/DTD/svg11.dtd"><svg t="1653310921387" class="icon" viewBox="0 0 1024 1024" version="1.1" xmlns="http://www.w3.org/2000/svg" p-id="29261" xmlns:xlink="http://www.w3.org/1999/xlink" width="128" height="128"><defs><style type="text/css"></style></defs><path d="M508.741818 974.149818c-6.656-4.654545-14.615273-20.107636-19.130182-37.282909-4.049455-15.36-5.585455-55.621818-2.885818-75.403636 1.024-7.354182 1.582545-13.637818 1.256727-13.963637a111.848727 111.848727 0 0 0-13.870545-2.141091c-42.263273-5.12-87.319273-19.456-121.669818-38.725818a91.694545 91.694545 0 0 0-15.127273-7.447272c-1.070545 0-4.794182 5.492364-8.238545 12.194909-16.197818 31.138909-44.450909 62.045091-65.908364 72.145454-7.819636 3.630545-18.292364 4.514909-23.086545 1.908364-7.307636-3.863273-9.448727-19.316364-5.12-36.445091 2.978909-11.729455 14.941091-36.398545 24.66909-50.781091 4.282182-6.376727 12.753455-17.175273 18.804364-23.970909l11.031273-12.427636-5.725091-5.492364c-15.173818-14.475636-43.613091-47.941818-43.613091-51.293091 0-1.210182 38.818909-28.16 41.658182-28.904727 1.396364-0.418909 4.887273 3.025455 9.588363 9.495272 10.24 14.010182 37.469091 40.96 53.527273 52.922182 122.274909 90.903273 294.632727 68.049455 387.490909-51.339636 4.933818-6.330182 9.728-11.543273 10.658909-11.543273 1.861818 0 40.261818 26.065455 41.611637 28.206546 1.163636 1.954909-15.592727 23.738182-29.928728 38.772363-6.842182 7.168-12.381091 13.637818-12.38109 14.336 0 0.698182 5.352727 6.935273 11.86909 13.777455 20.712727 21.876364 41.099636 55.947636 46.778182 78.196363 4.328727 17.175273 2.187636 32.581818-5.12 36.538182a25.227636 25.227636 0 0 1-9.216 1.489455c-22.341818 0-59.345455-35.886545-81.314909-78.708364-4.235636-8.285091-8.378182-15.034182-9.122909-15.034182-0.744727 0-5.073455 2.327273-9.588364 5.259637-31.883636 20.48-79.592727 38.074182-120.785454 44.683636-8.750545 1.442909-16.663273 3.165091-17.547636 3.816727-1.117091 0.930909-0.977455 5.026909 0.512 14.289455 2.699636 16.570182 1.675636 55.854545-1.861819 71.773091-3.677091 16.384-9.262545 29.137455-16.151272 36.677818-7.912727 8.657455-14.103273 9.914182-22.016 4.421818z m239.057455-609.466182c-5.818182-9.914182-20.573091-28.439273-33.047273-41.565091-40.075636-42.216727-88.436364-68.887273-147.735273-81.640727-16.989091-3.630545-21.504-3.956364-52.736-4.049454-36.770909-0.046545-44.916364 0.837818-73.402182 8.331636a274.478545 274.478545 0 0 0-104.913454 53.434182 345.693091 345.693091 0 0 0-49.012364 51.665454c-6.283636 8.843636-9.448727 12.101818-11.077818 11.496728-5.399273-2.094545-41.658182-26.437818-41.658182-28.020364 0.046545-3.537455 24.482909-34.164364 41.053091-51.479273l17.128727-17.92-11.310545-12.288c-20.712727-22.481455-40.587636-55.947636-46.126545-77.730909-4.328727-17.128727-2.187636-32.581818 5.12-36.491636a25.181091 25.181091 0 0 1 9.262545-1.489455c22.341818 0 59.298909 35.886545 81.314909 78.708364 4.189091 8.285091 8.192 15.034182 8.843636 15.034182 0.651636 0 6.423273-3.025455 12.893091-6.702546 33.186909-18.944 86.481455-35.84 122.740364-38.865454 6.237091-0.558545 12.148364-1.442909 13.125818-2.048 1.303273-0.837818 1.117091-4.840727-0.791273-16.290909-3.537455-21.131636-2.420364-62.510545 2.094546-79.732364 7.214545-27.229091 18.757818-42.496 30.533818-40.261818 10.984727 2.048 21.597091 19.968 27.136 45.661091 3.630545 16.756364 3.723636 64 0.186182 79.453091-1.349818 5.725091-1.954909 10.891636-1.442909 11.450181 0.512 0.558545 7.68 2.048 15.825454 3.351273 47.383273 7.447273 83.269818 20.666182 127.301819 46.824727 2.978909 1.815273 5.771636 2.653091 6.23709 1.908364 0.465455-0.698182 4.514909-8.704 9.029819-17.687273 17.408-34.909091 45.428364-66.56 68.421818-77.312 7.819636-3.677091 18.292364-4.561455 23.086545-1.954909 7.307636 3.863273 9.448727 19.316364 5.12 36.445091-3.165091 12.520727-15.36 37.189818-26.344727 53.201455a241.570909 241.570909 0 0 1-23.086545 27.554909l-13.73091 13.917091 13.498182 14.429091c13.730909 14.522182 37.934545 45.428364 42.356364 53.992727 2.001455 3.863273 2.048 4.933818 0.418909 6.516364-3.397818 3.118545-39.936 24.576-41.890909 24.576-0.977455 0-2.978909-2.001455-4.421818-4.421819zM46.545455 418.909091h72.843636l42.821818 71.68 42.821818-71.68h72.424728l-82.525091 123.345454v88.901819H129.210182v-88.901819L46.545455 418.909091zM429.335273 596.107636H354.629818l-10.24 35.048728H277.271273L357.096727 418.909091h71.493818l79.77891 212.247273H439.761455l-10.426182-35.048728z m-13.777455-45.893818l-23.412363-76.288-23.319273 76.334546h46.731636zM528.756364 418.909091h86.341818l33.28 129.117091L681.518545 418.909091h86.016v212.247273h-53.573818v-161.885091l-41.565091 161.885091h-48.500363l-41.425455-161.885091v161.885091h-53.666909V418.909091zM809.518545 418.909091H875.054545v159.976727H977.454545v52.270546h-167.936V418.909091z" fill="#17abe3" p-id="29262"></path></svg>