<?xml version="1.0" standalone="no"?><!DOCTYPE svg PUBLIC "-//W3C//DTD SVG 1.1//EN" "http://www.w3.org/Graphics/SVG/1.1/DTD/svg11.dtd"><svg t="1651939511412" class="icon" viewBox="0 0 1024 1024" version="1.1" xmlns="http://www.w3.org/2000/svg" p-id="7601" width="700" height="700" xmlns:xlink="http://www.w3.org/1999/xlink"><defs><style type="text/css"></style></defs><path d="M632 510.96a134.4 134.4 0 0 1-29.84 54v-119.2A16 16 0 0 0 584 430.88c-4.72 0-8.8 2.4-8.8 5.76a73.12 73.12 0 0 1 0.8 10.88v54.64c-4.08 24-14.24 45.84-27.84 45.84-9.84 0-16-9.84-16-28.16a246.08 246.08 0 0 1 9.84-68.56c1.36-5.12 11.2-18.64-5.44-18.64-18 0-16 6.8-18 12.56a331.6 331.6 0 0 0-11.36 76.4c0 29.52 12.4 48.88 35.12 48.88 14.56 0 25.12-9.84 33.28-23.44v43.12c-22.4 19.68-42.08 37.04-42.08 71.28 0 21.76 13.6 39.04 32.56 39.04 17.28 0 35.28-12.56 35.28-48v-58.96a147.36 147.36 0 0 0 49.6-75.36 16 16 0 0 0 0-3.36A14.96 14.96 0 0 0 640 500.8c-3.36 0-6.08 3.04-8 10.16z m-65.2 168c-5.44 0-8.8-8-8.8-18.64A59.28 59.28 0 0 1 576 616v36.32c0 6.48 1.36 26.8-9.52 26.8z" fill="#17abe3" p-id="7602" data-spm-anchor-id="a313x.7781069.0.i23" class="selected"></path><path d="M729.28 547.68c-8 0-11.52-8-11.52-16v-56a16 16 0 0 0-18.32-14.96c-4.72 0-8.8 2.4-8.8 5.76a73.12 73.12 0 0 1 1.36 10.88v52.32c-3.76 9.52-9.84 17.68-19.04 17.68-11.92 0-19.36-10.16-19.36-27.84 0-48.88 30.24-70.96 56-70.96 3.36 0 6.8 0.64 9.84 0.64s4.4-2 4.4-8a14.08 14.08 0 0 0-16-14.24c-41.44 0-80.8 34.64-80.8 91.36 0 28.88 13.92 51.28 40.4 51.28a37.76 37.76 0 0 0 29.2-13.92 30 30 0 0 0 26.16 13.92c29.2 0 42.8-30.56 48.56-52.96a8.96 8.96 0 0 0 0-2.4A14.96 14.96 0 0 0 760 500.8c-3.36 0-6.8 3.04-8 10.16-3.04 14.96-9.2 36.64-22.72 36.64z" fill="#17abe3" p-id="7603" data-spm-anchor-id="a313x.7781069.0.i22" class="selected"></path><path d="M827.44 570.08c29.2 0 42.48-30.56 48.56-52.96v-2.4a14.96 14.96 0 0 0-11.92-13.92c-3.36 0-6.8 3.04-8 10.16-3.04 14.96-8.8 36.64-24.48 36.64-9.2 0-13.6-8.8-13.6-18.32 0-33.92 15.28-74 15.28-78.08 1.36-8-12.24-19.04-16-19.04h-17.68a126.56 126.56 0 0 1-18-1.36 21.52 21.52 0 0 0-21.6-17.92 16 16 0 0 0-16.96 16 24.96 24.96 0 0 0 14.56 21.76 315.28 315.28 0 0 1-5.6 58.64c-3.04 11.52 14.56 24 19.04 9.52A272 272 0 0 0 779.92 456h29.52a220.24 220.24 0 0 0-16.96 75.04c0 29.84 19.04 38.72 34.96 38.72z" fill="#17abe3" p-id="7604" data-spm-anchor-id="a313x.7781069.0.i21" class="selected"></path><path d="M857.68 555.12a14.24 14.24 0 0 0 16 14.96c9.84 0 9.52-8 9.52-14.56v-49.6c2.4-26.8 23.44-56 33.28-56 6.48 0 7.12 8.8 7.12 19.36v68.96c0 17.28 10.56 32 28.56 32 29.2 0 43.6-30.56 49.44-52.96a8.96 8.96 0 0 0 0-2.4 14.96 14.96 0 0 0-11.92-13.92c-3.36 0-6.8 3.04-8 10.16-3.04 14.96-10 36.64-23.6 36.64-8.8 0-8.8-12.56-8.8-16v-70c0-16-5.44-34.32-28.16-34.32-16.64 0-28.88 14.56-38 33.6v-15.28a16 16 0 0 0-18.32-14.96c-4.72 0-8.8 2.4-8.8 5.76a73.12 73.12 0 0 1 1.36 10.88v107.68zM362.8 570.24a78.56 78.56 0 0 0-39.52 14.88c-20.96 12.96-31.36 12.08-31.36 12.08v-0.56c-1.44-2.32 6.64-23.28-2.4-48-9.84-27.28-25.44-33.84-24-35.92a129.6 129.6 0 0 0 24-50c3.2-16 2.32-42.8-4.8-56.72-1.36-2.56-13.2 4.32-13.2 4.32a169.68 169.68 0 0 0-14.16-26.72c-10-6.4-20.88 26.56-20.88 26.56a48.72 48.72 0 0 0-40.8 16 33.6 33.6 0 0 1-13.44 8c-1.44 0.48-3.2 0.4-7.52 12.08-6.64 17.84 11.28 37.68 11.28 37.68a96.56 96.56 0 0 0-29.28 33.84 86.32 86.32 0 0 0-6.08 40.72s-15.2 13.2-16 26.8a44.8 44.8 0 0 0 6.16 27.28 6.72 6.72 0 0 0 9.2 3.2s-10.08 11.76-0.64 16.8 23.12 7.12 30.8-0.64c5.6-5.6 6.64-18 8.72-23.12 0.48-1.2 2.16 2 3.76 3.6a34.8 34.8 0 0 0 4.72 3.52 14.56 14.56 0 0 0-8 19.2c1.84 4.4 8.4 7.28 19.2 7.2a575.44 575.44 0 0 0 59.6-5.36 15.12 15.12 0 0 0 9.12-5.12 219.6 219.6 0 0 0 53.92-24.4 97.04 97.04 0 0 1 36.64-16.88 10 10 0 0 0-5.04-20.32z" fill="#17abe3" p-id="7605" data-spm-anchor-id="a313x.7781069.0.i20" class="selected"></path><path d="M240 296a216 216 0 1 0 216 216 216 216 0 0 0-216-216z m129.92 306a86.64 86.64 0 0 0-32.8 15.2 233.44 233.44 0 0 1-54.24 25.04 30.32 30.32 0 0 1-12.64 6.16 546 546 0 0 1-62.4 5.68h-0.8a34.08 34.08 0 0 1-26.08-8.88 43.6 43.6 0 0 1-38.16-2.4 19.36 19.36 0 0 1-10.32-13.6 20.8 20.8 0 0 1 0-7.2 23.2 23.2 0 0 1-2.72-3.52 57.12 57.12 0 0 1-8-35.04 54.8 54.8 0 0 1 16-30.8 99.52 99.52 0 0 1 6.8-40.64 93.44 93.44 0 0 1 24-31.28 46.56 46.56 0 0 1-5.92-40c4.08-10.88 7.44-16.88 14.8-19.44a24 24 0 0 0 8.72-4.64 61.52 61.52 0 0 1 41.36-19.84c0.64-1.68 1.44-3.36 2.24-5.12A36.8 36.8 0 0 1 248 370.96a17.04 17.04 0 0 1 15.36 1.76c2.24 1.52 5.2 3.36 13.6 20.8a16 16 0 0 1 9.92 0 13.28 13.28 0 0 1 8 6.72c8.56 16.48 9.76 45.92 6 64.88a117.76 117.76 0 0 1-20.32 46.4A89.68 89.68 0 0 1 300.88 544a88.56 88.56 0 0 1 4.96 36.24 100 100 0 0 0 10.88-5.92 90.88 90.88 0 0 1 45.92-16.8 23.04 23.04 0 0 1 24 19.84 22.16 22.16 0 0 1-16.72 24.64z" fill="#17abe3" p-id="7606" data-spm-anchor-id="a313x.7781069.0.i19" class="selected"></path></svg>