<?xml version="1.0" standalone="no"?><!DOCTYPE svg PUBLIC "-//W3C//DTD SVG 1.1//EN" "http://www.w3.org/Graphics/SVG/1.1/DTD/svg11.dtd"><svg t="1653310695871" class="icon" viewBox="0 0 1024 1024" version="1.1" xmlns="http://www.w3.org/2000/svg" p-id="15947" xmlns:xlink="http://www.w3.org/1999/xlink" width="128" height="128"><defs><style type="text/css"></style></defs><path d="M760.4 404.2c-9.5-7.1-23.6-10.7-42.6-10.7h-36.3v101.3h36.3c18.9 0 33.1-3.6 42.6-10.7s14.2-20.4 14.2-39.9c0-19.6-4.8-32.9-14.2-40z m-246.5-338c-239.1 0-433 193.9-433 433s193.9 433 433 433 433-193.9 433-433-193.9-433-433-433zM404.1 626.6H235.4v-29.2l127.7-204.1H244.9v-29.2h154.5v29.2L271.7 597.5h132.4v29.1z m135.6 0h-36.3V364.3h36.3v262.3z m249.1-124.2c-14.7 14.3-35.2 21.5-61.5 21.5h-45.7v102.8h-36.3V364.3h82c26.3 0 46.8 7.2 61.5 21.5 14.7 14.3 22.1 33.8 22.1 58.3-0.1 24.5-7.4 43.9-22.1 58.3z" fill="#A67C52" p-id="15948"></path></svg>