<?xml version="1.0" standalone="no"?>
<!DOCTYPE svg PUBLIC "-//W3C//DTD SVG 1.1//EN" "http://www.w3.org/Graphics/SVG/1.1/DTD/svg11.dtd"><svg t="1734508495644"
    class="icon" viewBox="0 0 1024 1024" version="1.1" xmlns="http://www.w3.org/2000/svg" p-id="33277"
    xmlns:xlink="http://www.w3.org/1999/xlink" width="128" height="128">
    <path
        d="M996.512 223.904a14.08 14.08 0 0 1-13.696 14.4H292.032a14.048 14.048 0 0 1-13.696-14.4v-80.64a14.08 14.08 0 0 1 13.696-14.4H982.72c7.584 0 13.728 6.4 13.728 14.4v80.64h0.096z m0 346.976a14.08 14.08 0 0 1-13.696 14.4H292.032a14.08 14.08 0 0 1-13.696-14.4v-80.64a14.08 14.08 0 0 1 13.696-14.4H982.72c7.584 0 13.728 6.4 13.728 14.4v80.64h0.096z m0 321.056a14.08 14.08 0 0 1-13.696 14.4H292.032a14.048 14.048 0 0 1-13.696-14.4v-80.64c0-8 6.144-14.4 13.696-14.4H982.72c7.584 0 13.728 6.4 13.728 14.4v80.64h0.096zM122.08 570.144a14.24 14.24 0 0 1-14.016 14.4H30.368a14.144 14.144 0 0 1-14.048-14.4v-79.04c0-8 6.4-14.4 14.176-14.4h77.568c7.776 0 14.016 6.496 14.016 14.4v79.04z m0 321.056a14.24 14.24 0 0 1-14.016 14.4H30.368a14.144 14.144 0 0 1-14.048-14.4v-79.04a13.696 13.696 0 0 1 3.968-10.016 14.784 14.784 0 0 1 10.08-4.384h77.568c8 0.224 14.272 6.624 14.048 14.4v79.04h0.096z m0-668.064a14.24 14.24 0 0 1-14.016 14.4H30.368a14.144 14.144 0 0 1-14.048-14.4V144a13.696 13.696 0 0 1 3.968-10.016 14.784 14.784 0 0 1 10.08-4.384h77.568c8 0.224 14.272 6.624 14.048 14.4v79.136h0.096z"
        fill="#198DFC" p-id="33278"></path>
</svg>