<?xml version="1.0" encoding="UTF-8"?>
<svg width="18px" height="18px" viewBox="0 0 18 18" version="1.1" xmlns="http://www.w3.org/2000/svg" xmlns:xlink="http://www.w3.org/1999/xlink">
    <title>本地-蓝</title>
    <g id="页面-1" stroke="none" stroke-width="1" fill="none" fill-rule="evenodd">
        <g id="画板备份-3" transform="translate(-72.000000, -49.000000)">
            <g id="本地-蓝" transform="translate(72.000000, 49.000000)">
                <rect id="矩形" x="0" y="0" width="18" height="18"></rect>
                <path d="M8.23766864,2.97639816 L3.23766864,6.26264934 C3.09699547,6.35510681 3.01228891,6.51214456 3.01228891,6.68048149 L3.01228891,14.367261 C3.01228891,14.6434034 3.23614654,14.867261 3.51228891,14.867261 L13.5122889,14.867261 C13.7884313,14.867261 14.0122889,14.6434034 14.0122889,14.367261 L14.0122889,6.68048149 C14.0122889,6.51214456 13.9275824,6.35510681 13.7869092,6.26264934 L8.78690919,2.97639816 C8.62021905,2.86684102 8.40435878,2.86684102 8.23766864,2.97639816 Z M8.512,3.992 L13.012,6.95 L13.012,13.867 L4.012,13.867 L4.012,6.949 L8.512,3.992 Z" id="矩形" fill="#376BF3" fill-rule="nonzero"></path>
                <polygon id="路径" fill="#C3D2FA" fill-rule="nonzero" points="8.512 3.992 13.012 6.95 13.012 13.867 4.012 13.867 4.012 6.949"></polygon>
                <path d="M7.3103616,11.5755632 L9.3103616,11.5755632 C9.58650398,11.5755632 9.8103616,11.7994209 9.8103616,12.0755632 L9.8103616,13.8877446 L9.8103616,13.8877446 L6.8103616,13.8877446 L6.8103616,12.0755632 C6.8103616,11.7994209 7.03421923,11.5755632 7.3103616,11.5755632 Z" id="矩形备份-24" fill="#376BF3"></path>
                <path d="M13.8968867,8 C11.9638901,8 10.3968867,9.56700338 10.3968867,11.5 C10.3968867,12.7614532 11.3379464,14.2676828 13.1733128,16.1916659 C13.5672944,16.6046701 14.2264791,16.6046701 14.6204607,16.1916659 C16.4558271,14.2676828 17.3968867,12.7614532 17.3968867,11.5 C17.3968867,9.56700338 15.8298833,8 13.8968867,8 Z M13.8968867,9 C15.2775986,9 16.3968867,10.1192881 16.3968867,11.5 C16.3968867,12.4204746 15.5635534,13.7542809 13.8968867,15.5014191 C12.2302201,13.7542809 11.3968867,12.4204746 11.3968867,11.5 C11.3968867,10.1192881 12.5161748,9 13.8968867,9 Z" id="椭圆形备份-45" fill="#FFFFFF" fill-rule="nonzero"></path>
                <path d="M13.8968867,9 C15.2775986,9 16.3968867,10.1192881 16.3968867,11.5 C16.3968867,12.4204746 15.5635534,13.7542809 13.8968867,15.5014191 C12.2302201,13.7542809 11.3968867,12.4204746 11.3968867,11.5 C11.3968867,10.1192881 12.5161748,9 13.8968867,9 Z" id="路径" fill="#376BF3" fill-rule="nonzero"></path>
                <path d="M13.8968867,12.5755632 C14.4491715,12.5755632 14.8968867,12.127848 14.8968867,11.5755632 C14.8968867,11.0232785 14.4491715,10.5755632 13.8968867,10.5755632 C13.344602,10.5755632 12.8968867,11.0232785 12.8968867,11.5755632 C12.8968867,12.127848 13.344602,12.5755632 13.8968867,12.5755632 Z" id="椭圆形备份-46" fill="#FFFFFF"></path>
            </g>
        </g>
    </g>
</svg>