<?xml version="1.0" encoding="UTF-8"?>
<svg width="18px" height="18px" viewBox="0 0 18 18" version="1.1" xmlns="http://www.w3.org/2000/svg" xmlns:xlink="http://www.w3.org/1999/xlink">
    <title>本地-黑</title>
    <g id="页面-1" stroke="none" stroke-width="1" fill="none" fill-rule="evenodd">
        <g id="画板备份-3" transform="translate(-94.000000, -49.000000)">
            <g id="本地-黑" transform="translate(94.000000, 49.000000)">
                <rect id="矩形" x="0" y="0" width="18" height="18"></rect>
                <path d="M7.1,11.5755632 L9.1,11.5755632 C9.37614237,11.5755632 9.6,11.7994209 9.6,12.0755632 L9.6,14.5755632 L9.6,14.5755632 L6.6,14.5755632 L6.6,12.0755632 C6.6,11.7994209 6.82385763,11.5755632 7.1,11.5755632 Z" id="矩形备份-24" fill="#343434"></path>
                <path d="M8.23766864,2.97639816 L3.23766864,6.26264934 C3.09699547,6.35510681 3.01228891,6.51214456 3.01228891,6.68048149 L3.01228891,14.367261 C3.01228891,14.6434034 3.23614654,14.867261 3.51228891,14.867261 L13.5122889,14.867261 C13.7884313,14.867261 14.0122889,14.6434034 14.0122889,14.367261 L14.0122889,6.68048149 C14.0122889,6.51214456 13.9275824,6.35510681 13.7869092,6.26264934 L8.78690919,2.97639816 C8.62021905,2.86684102 8.40435878,2.86684102 8.23766864,2.97639816 Z M8.512,3.992 L13.012,6.95 L13.012,13.867 L4.012,13.867 L4.012,6.949 L8.512,3.992 Z" id="矩形" fill="#343434" fill-rule="nonzero"></path>
                <path d="M13.5,8.5 C11.8431458,8.5 10.5,9.84314575 10.5,11.5 C10.5,12.5909639 11.3871965,14.0109818 13.138213,15.8465425 C13.3352038,16.0530446 13.6647962,16.0530446 13.861787,15.8465425 C15.6128035,14.0109818 16.5,12.5909639 16.5,11.5 C16.5,9.84314575 15.1568542,8.5 13.5,8.5 Z M13.5,9.5 C14.6045695,9.5 15.5,10.3954305 15.5,11.5 L15.4951664,11.605347 C15.4375289,12.2515858 14.8641939,13.2239975 13.7626073,14.4761344 L13.499,14.768 L13.4501338,14.7141767 C12.1441902,13.2748571 11.5,12.1818048 11.5,11.5 C11.5,10.3954305 12.3954305,9.5 13.5,9.5 Z" id="椭圆形备份-45" fill="#343434" fill-rule="nonzero"></path>
                <path d="M13.5,9.5 C14.6045695,9.5 15.5,10.3954305 15.5,11.5 L15.4951664,11.605347 C15.4375289,12.2515858 14.8641939,13.2239975 13.7626073,14.4761344 L13.499,14.768 L13.4501338,14.7141767 C12.1441902,13.2748571 11.5,12.1818048 11.5,11.5 C11.5,10.3954305 12.3954305,9.5 13.5,9.5 Z" id="路径" fill="#FFFFFF" fill-rule="nonzero"></path>
                <path d="M13.5,12.5755632 C14.0522847,12.5755632 14.5,12.127848 14.5,11.5755632 C14.5,11.0232785 14.0522847,10.5755632 13.5,10.5755632 C12.9477153,10.5755632 12.5,11.0232785 12.5,11.5755632 C12.5,12.127848 12.9477153,12.5755632 13.5,12.5755632 Z" id="椭圆形备份-46" fill="#343434"></path>
            </g>
        </g>
    </g>
</svg>