<?xml version="1.0" encoding="UTF-8"?>
<svg width="18px" height="18px" viewBox="0 0 18 18" version="1.1" xmlns="http://www.w3.org/2000/svg" xmlns:xlink="http://www.w3.org/1999/xlink">
    <title>远程-黑</title>
    <g id="页面-1" stroke="none" stroke-width="1" fill="none" fill-rule="evenodd">
        <g id="画板备份-3" transform="translate(-94.000000, -22.000000)">
            <g id="远程-黑" transform="translate(94.000000, 22.000000)">
                <rect id="矩形" x="0" y="0" width="18" height="18"></rect>
                <path d="M4.40909091,7.0693405 L4.40909091,6.0693405 L3.40909091,6.0693405 L3.40909091,7.0693405 L4.40909091,7.0693405 Z M4.40909091,5.0693405 L4.40909091,4.0693405 L3.40909091,4.0693405 L3.40909091,5.0693405 L4.40909091,5.0693405 Z M4.62593476,3.58779196 C4.69291389,3.54160669 4.76976858,3.51252678 4.85136555,3.50324988 L5.4306506,3.49997385 L5.4204231,2.50002615 L4.78976983,2.50647649 C4.4924061,2.53761844 4.25959718,2.62570757 4.05826208,2.7645376 L4.62593476,3.58779196 Z M6.42553685,3.5 L7.42553685,3.5 L7.42553685,2.5 L6.42553685,2.5 L6.42553685,3.5 Z M8.42553685,3.5 L9.42553685,3.5 L9.42553685,2.5 L8.42553685,2.5 L8.42553685,3.5 Z M10.4255368,3.5 L11.4255368,3.5 L11.4255368,2.5 L10.4255368,2.5 L10.4255368,3.5 Z M12.4255368,3.5 L13.4255368,3.5 L13.4255368,2.5 L12.4255368,2.5 L12.4255368,3.5 Z M14.1581997,3.56628001 C14.2947217,3.64503112 14.3873046,3.78370171 14.4056583,3.94069014 L14.4093315,4.11774159 L15.4088503,4.08672316 L15.4020353,3.86712076 C15.3435382,3.35108881 15.0661054,2.93555011 14.657867,2.7000626 L14.1581997,3.56628001 Z M14.4090909,5.10223238 L14.4090909,6.10223238 L15.4090909,6.10223238 L15.4090909,5.10223238 L14.4090909,5.10223238 Z M14.4090909,7.10223238 L14.4090909,8.10223238 L15.4090909,8.10223238 L15.4090909,7.10223238 L14.4090909,7.10223238 Z M14.4090909,9.10223238 L14.4090909,10.1022324 L15.4090909,10.1022324 L15.4090909,9.10223238 L14.4090909,9.10223238 Z M14.4090909,11.1022324 L14.4090909,12.1022324 L15.4090909,12.1022324 L15.4090909,11.1022324 L14.4090909,11.1022324 Z M14.4064942,13.0516521 C14.3884758,13.229337 14.275535,13.3838114 14.1135036,13.4565777 L14.5231763,14.3688103 C15.0090496,14.1506104 15.3470633,13.6882935 15.4013919,13.1525408 L14.4064942,13.0516521 Z M13.2210721,13.5 L12.2210721,13.5 L12.2210721,14.5 L13.2210721,14.5 L13.2210721,13.5 Z M11.2210721,13.5 L10.3276878,13.5 L10.3276878,14.5 L11.2210721,14.5 L11.2210721,13.5 Z" id="路径" fill="#2A2A2A" fill-rule="nonzero"></path>
                <g id="编组-2" transform="translate(10.630173, 6.637348) rotate(35.000000) translate(-10.630173, -6.637348) translate(7.386397, 4.766919)" fill="#343434" fill-rule="nonzero">
                    <path d="M3.15999236,1.84293773 C3.96131081,1.84293773 4.67561766,2.31870763 4.9920667,3.03980821 C5.10303446,3.29267332 4.98800394,3.58761815 4.73513882,3.69858592 C4.51036983,3.79722393 4.25235268,3.71729539 4.11985425,3.52072049 L4.07636112,3.44165804 C3.91801067,3.0808208 3.56086007,2.84293773 3.15999236,2.84293773 C2.80617783,2.84293773 2.48630963,3.02823071 2.30717803,3.32015845 L2.24680928,3.43447623 C2.13384157,3.68645423 1.83799462,3.79914432 1.58601663,3.68617661 C1.33403864,3.5732089 1.22134854,3.27736196 1.33431625,3.02538397 C1.6541453,2.31199533 2.36435398,1.84293773 3.15999236,1.84293773 Z" id="路径"></path>
                    <path d="M3.23898307,7.27595761e-12 C4.6413946,7.27595761e-12 5.89143017,0.832596385 6.44527895,2.09466588 C6.55624672,2.34753099 6.44121619,2.64247582 6.18835107,2.75344359 C5.93548596,2.86441136 5.64054114,2.74938083 5.52957337,2.49651572 C5.13382318,1.59470956 4.24094385,1 3.23898307,1 C2.24410186,1 1.35638048,1.58629594 0.956370389,2.47853088 C0.843402679,2.73050887 0.547555735,2.84319897 0.295577744,2.73023126 C0.0435997534,2.61726355 -0.0690903445,2.32141661 0.0438773655,2.06943861 C0.60365279,0.82084212 1.84650483,7.27595761e-12 3.23898307,7.27595761e-12 Z" id="路径"></path>
                </g>
                <path d="M5.74724749,6.98049812 L1.74466768,9.97727336 C1.61857057,10.0716836 1.54433737,10.219997 1.54433737,10.3775209 L1.54433737,15.3807456 C1.54433737,15.656888 1.768195,15.8807456 2.04433737,15.8807456 L10.049497,15.8807456 C10.3256394,15.8807456 10.549497,15.656888 10.549497,15.3807456 L10.549497,10.3775209 C10.549497,10.219997 10.4752638,10.0716836 10.3491667,9.97727336 L6.34658687,6.98049812 C6.1689438,6.84749481 5.92489056,6.84749481 5.74724749,6.98049812 Z M6.047,8.004 L9.549,10.627 L9.549,14.88 L2.544,14.88 L2.544,10.627 L6.047,8.004 Z" id="矩形" fill="#343434" fill-rule="nonzero"></path>
                <path d="M5.27419007,12.8944792 L6.77419007,12.8944792 C7.05033245,12.8944792 7.27419007,13.1183368 7.27419007,13.3944792 L7.27419007,14.8944792 L7.27419007,14.8944792 L4.77419007,14.8944792 L4.77419007,13.3944792 C4.77419007,13.1183368 4.9980477,12.8944792 5.27419007,12.8944792 Z" id="矩形备份-18" fill="#343434"></path>
            </g>
        </g>
    </g>
</svg>