<?xml version="1.0" standalone="no"?>
<!DOCTYPE svg PUBLIC "-//W3C//DTD SVG 1.1//EN" "http://www.w3.org/Graphics/SVG/1.1/DTD/svg11.dtd"><svg t="1734508481390"
    class="icon" viewBox="0 0 1024 1024" version="1.1" xmlns="http://www.w3.org/2000/svg" p-id="32237"
    xmlns:xlink="http://www.w3.org/1999/xlink" width="128" height="128">
    <path
        d="M512 85.312c23.552 0 42.688 19.136 42.688 42.688v85.312A42.688 42.688 0 0 1 512 256H128a42.688 42.688 0 0 1-42.688-42.688V128c0-23.552 19.136-42.688 42.688-42.688h384z m-12.8 55.488H140.8v59.712h358.4V140.8zM853.312 384c23.616 0 42.688 19.072 42.688 42.688V512a42.688 42.688 0 0 1-42.688 42.688h-256A42.688 42.688 0 0 1 554.688 512V426.688c0-23.616 19.072-42.688 42.624-42.688h256z m-12.8 55.488h-230.4V499.2h230.4v-59.712zM853.312 725.312c23.616 0 42.688 19.136 42.688 42.688v85.312a42.688 42.688 0 0 1-42.688 42.688h-256a42.688 42.688 0 0 1-42.624-42.688V768c0-23.552 19.072-42.688 42.624-42.688h256z m-12.8 55.488h-230.4v59.712h230.4V780.8z"
        fill="#198DFC" p-id="32238"></path>
    <path
        d="M316.16 256v512c0 7.232 5.12 13.248 11.904 14.656l3.008 0.256h223.616v55.488H331.072a70.4 70.4 0 0 1-70.144-64.32L260.672 768V256h55.488z"
        fill="#198DFC" p-id="32239"></path>
    <path d="M554.624 462.528l0.064 63.488-277.312 0.512-0.064-63.552z" fill="#198DFC" p-id="32240"></path>
</svg>