<?xml version="1.0" encoding="UTF-8"?>
<svg width="18px" height="18px" viewBox="0 0 18 18" version="1.1" xmlns="http://www.w3.org/2000/svg" xmlns:xlink="http://www.w3.org/1999/xlink">
    <title>虚拟-黑</title>
    <g id="页面-1" stroke="none" stroke-width="1" fill="none" fill-rule="evenodd">
        <g id="画板备份-3" transform="translate(-94.000000, -78.000000)">
            <g id="虚拟-黑" transform="translate(94.000000, 78.000000)">
                <rect id="矩形" x="0" y="0" width="18" height="18"></rect>
                <path d="M16.298875,2.24938523 L15.4333664,2.75027916 C15.3442798,2.59634397 15.1807995,2.5 15,2.5 L15,1.5 C15.5413589,1.5 16.0327953,1.7896186 16.298875,2.24938523 Z M16.5,4.58578644 L15.5,4.58578644 L15.5,3.58578644 L16.5,3.58578644 L16.5,4.58578644 Z M16.5,6.58578644 L15.5,6.58578644 L15.5,5.58578644 L16.5,5.58578644 L16.5,6.58578644 Z M16.5,8.58578644 L15.5,8.58578644 L15.5,7.58578644 L16.5,7.58578644 L16.5,8.58578644 Z M16.5,10.5857864 L15.5,10.5857864 L15.5,9.58578644 L16.5,9.58578644 L16.5,10.5857864 Z M16.5,12.5857864 L15.5,12.5857864 L15.5,11.5857864 L16.5,11.5857864 L16.5,12.5857864 Z M16.5,14.5857864 L15.5,14.5857864 L15.5,13.5857864 L16.5,13.5857864 L16.5,14.5857864 Z M14.8409569,16.499843 L14.8158973,15.500157 L15.0615864,15.496296 C15.2051965,15.4788405 15.3335527,15.3992945 15.4145477,15.279733 L16.2424609,15.8405892 C16.000592,16.1976262 15.6153994,16.4363412 15.134446,16.4924859 L14.8409569,16.499843 Z M12.8284271,16.5 L12.8284271,15.5 L13.8284271,15.5 L13.8284271,16.5 L12.8284271,16.5 Z M10.8284271,16.5 L10.8284271,15.5 L11.8284271,15.5 L11.8284271,16.5 L10.8284271,16.5 Z M8.82842712,16.5 L8.82842712,15.5 L9.82842712,15.5 L9.82842712,16.5 L8.82842712,16.5 Z M6.82842712,16.5 L6.82842712,15.5 L7.82842712,15.5 L7.82842712,16.5 L6.82842712,16.5 Z M4.82842712,16.5 L4.82842712,15.5 L5.82842712,15.5 L5.82842712,16.5 L4.82842712,16.5 Z M2.7441002,16.4781761 L2.91390227,15.4926979 C2.94198777,15.4975371 2.97072458,15.5 3,15.5 L3.82842712,15.5 L3.82842712,16.5 L3,16.5 C2.91375321,16.5 2.82821062,16.4926687 2.7441002,16.4781761 Z M1.50000291,14.2443473 L2.50000291,14.2409341 L2.50143877,15.0385294 C2.5045058,15.0793459 2.51245408,15.1190182 2.52503558,15.1570981 L1.57551938,15.4708161 C1.53745033,15.3555942 1.51343875,15.235745 1.50284731,15.0777014 L1.50000291,14.2443473 Z M1.5,12.2426407 L2.5,12.2426407 L2.5,13.2426407 L1.5,13.2426407 L1.5,12.2426407 Z M1.5,10.2426407 L2.5,10.2426407 L2.5,11.2426407 L1.5,11.2426407 L1.5,10.2426407 Z M1.5,8.24264069 L2.5,8.24264069 L2.5,9.24264069 L1.5,9.24264069 L1.5,8.24264069 Z M1.5,6.24264069 L2.5,6.24264069 L2.5,7.24264069 L1.5,7.24264069 L1.5,6.24264069 Z M1.5,4.24264069 L2.5,4.24264069 L2.5,5.24264069 L1.5,5.24264069 L1.5,4.24264069 Z M1.93020345,1.94855526 L2.64337576,2.64954403 C2.55175994,2.74275218 2.5,2.866653 2.5,3 L2.5,3.24264069 L1.5,3.24264069 L1.5,3 C1.5,2.60174349 1.65657583,2.22693866 1.93020345,1.94855526 Z M4.34314575,1.5 L4.34314575,2.5 L3.34314575,2.5 L3.34314575,1.5 L4.34314575,1.5 Z M6.34314575,1.5 L6.34314575,2.5 L5.34314575,2.5 L5.34314575,1.5 L6.34314575,1.5 Z M8.34314575,1.5 L8.34314575,2.5 L7.34314575,2.5 L7.34314575,1.5 L8.34314575,1.5 Z M10.3431458,1.5 L10.3431458,2.5 L9.34314575,2.5 L9.34314575,1.5 L10.3431458,1.5 Z M12.3431458,1.5 L12.3431458,2.5 L11.3431458,2.5 L11.3431458,1.5 L12.3431458,1.5 Z M14.3431458,1.5 L14.3431458,2.5 L13.3431458,2.5 L13.3431458,1.5 L14.3431458,1.5 Z" id="矩形" fill="#2A2A2A" fill-rule="nonzero"></path>
                <path d="M9.55343905,3.40315261 L5.55343905,5.79902758 C5.40265184,5.88934441 5.3103616,6.05220243 5.3103616,6.22796907 L5.3103616,11.8320941 C5.3103616,12.1082365 5.53421923,12.3320941 5.8103616,12.3320941 L13.8103616,12.3320941 C14.086504,12.3320941 14.3103616,12.1082365 14.3103616,11.8320941 L14.3103616,6.22796907 C14.3103616,6.05220243 14.2180714,5.88934441 14.0672841,5.79902758 L10.0672841,3.40315261 C9.90910448,3.30840794 9.71161872,3.30840794 9.55343905,3.40315261 Z M9.81,4.415 L13.31,6.511 L13.31,11.332 L6.31,11.332 L6.31,6.511 L9.81,4.415 Z" id="矩形备份-25" fill="#343434" fill-rule="nonzero"></path>
                <polygon id="矩形备份-25" stroke="#343434" fill="#FFFFFF" stroke-linejoin="round" points="3.8103616 7.22796907 7.8103616 4.83209411 11.8103616 7.22796907 11.8103616 12.8320941 3.8103616 12.8320941"></polygon>
                <rect id="矩形备份-26" fill="#343434" x="6.06155779" y="8.5" width="3.38985735" height="1" rx="0.5"></rect>
            </g>
        </g>
    </g>
</svg>