<?xml version="1.0" standalone="no"?><!DOCTYPE svg PUBLIC "-//W3C//DTD SVG 1.1//EN" "http://www.w3.org/Graphics/SVG/1.1/DTD/svg11.dtd"><svg t="1713714178661" class="icon" viewBox="0 0 1024 1024" version="1.1" xmlns="http://www.w3.org/2000/svg" p-id="2145" xmlns:xlink="http://www.w3.org/1999/xlink" width="600" height="600"><path d="M0.844789 0.007914m221.366475 0l579.573363 0q221.366475 0 221.366475 221.366475l0 581.259136q0 221.366475-221.366475 221.366475l-579.573363 0q-221.366475 0-221.366475-221.366475l0-581.259136q0-221.366475 221.366475-221.366475Z" p-id="2146"></path><path d="M251.375921 234.251159h44.811476v91.823162h99.919619v-91.823162h44.811476v229.882397h-44.811476v-96.959624h-99.919619v96.95171h-44.811476zM561.740109 234.251159h44.154578l72.693996 121.684289h2.651333l72.693996-121.684289h44.47907v229.882397h-44.47907v-113.33457l2.659247-38.527422h-2.659247l-60.410808 103.061646h-26.885303l-60.743214-103.061646h-2.659247l2.659247 38.527422v113.33457h-44.154578z" fill="#FFFFFF" p-id="2147"></path><path d="M683.416483 794.450009q-15.615161 0-29.869041-4.178816t-26.133433-12.520621q-11.871638-8.349719-20.704136-20.229271-8.824584-12.204044-13.91356-28.254498l43.10196-16.050455q4.748655 17.332591 16.628208 28.887652 11.871638 11.238484 31.222408 11.238484 7.122983 0 13.573239-1.598714 6.790577-1.93112 11.871638-5.144376 5.43721-3.529834 8.492178-8.666296 3.054968-5.136462 3.054968-11.871638 0-6.426513-2.374327-11.55506-2.374328-5.144376-8.151858-9.63977-5.429296-4.495394-14.586286-8.666296-8.824584-4.178817-22.057503-8.666296l-14.934521-5.144376q-9.845545-3.205342-20.023496-8.666296-9.837631-5.460953-17.989488-13.161689-8.143944-7.70865-13.57324-17.981574-5.088975-10.589501-5.088975-23.759105 0-13.478266 5.429296-25.041242 5.77753-11.871638 15.947566-20.545848 10.526186-8.990787 24.772152-13.802757 14.5942-5.144376 32.243368-5.144377 18.329809 0 31.562728 4.819885 13.573239 4.495394 22.738144 11.871638 9.49731 7.067582 15.274841 15.741792 5.761702 8.666296 8.476349 16.374946l-40.379398 16.050454q-3.395288-9.631856-12.560192-17.332591-8.824584-7.70865-24.431831-7.70865-14.93452 0-24.772151 6.74309-9.845545 6.410684-9.845545 17.016015 0 10.272924 9.49731 17.649168 9.505225 7.067582 30.209361 13.810672l15.274841 4.819885q14.5942 4.811971 26.465838 11.238484 12.219873 6.094107 20.704137 14.760403 8.824584 8.67421 13.232919 19.912694 4.748655 10.913992 4.748655 25.357819 0 17.981574-7.803624 31.143263-7.463303 12.845112-19.342855 21.194831-11.871638 8.341804-26.806158 12.520621-14.93452 4.170902-29.188401 4.170902z" fill="#FFFFFF" p-id="2148"></path><path d="M346.277795 794.450009q-25.049156 0-46.655537-9.315278-21.289804-9.315279-36.936623-25.365733-15.654733-16.374946-24.732579-38.202931-8.769183-22.160391-8.769183-47.201632 0-25.041242 8.769183-46.869227 9.077846-22.160391 24.732579-38.210845 15.654733-16.374946 36.936623-25.68231 21.606381-9.315279 46.655537-9.315279 25.041242 0 46.331045 9.315279 21.606381 9.307364 37.2532 25.68231 15.654733 16.058369 24.423917 38.210845 9.077846 21.827985 9.077845 46.869227 0 25.041242-9.077845 47.201632-8.769183 21.827985-24.423917 38.202931-15.654733 16.050454-37.2532 25.365733-21.289804 9.307364-46.331045 9.307364z m0-41.09961q15.646819 0 29.109256-5.777531 13.7711-5.77753 23.798677-16.058369 10.328325-10.272924 15.963396-24.724664 5.951648-14.768318 5.951647-32.4254 0-17.649168-5.951647-32.100909-5.635071-14.768318-15.963396-25.049156-10.019662-10.272924-23.798677-16.050455-13.454523-5.77753-29.109256-5.77753t-29.433748 5.77753q-13.454523 5.77753-23.790762 16.050455-10.019662 10.280838-15.97131 25.049156-5.635071 14.443826-5.635071 32.100909t5.635071 32.4254q5.951648 14.451741 15.97131 24.724664 10.328325 10.272924 23.790762 16.050455 13.7711 5.77753 29.433748 5.77753z" fill="#FFFFFF" p-id="2149"></path><path d="M260.968205 816.190936h168.165708v39.128918h-168.165708z" fill="#5B8AEE" p-id="2150"></path></svg>