<?xml version="1.0" encoding="UTF-8"?>
<svg width="46px" height="46px" viewBox="0 0 46 46" version="1.1" xmlns="http://www.w3.org/2000/svg" xmlns:xlink="http://www.w3.org/1999/xlink">
    <title>icon/下载</title>
    <g id="页面-1" stroke="none" stroke-width="1" fill="none" fill-rule="evenodd">
        <g id="编组-3备份" transform="translate(-1104.000000, -264.000000)">
            <g id="编组" transform="translate(1104.000000, 264.000000)">
                <rect id="矩形" fill="#36C5F0" x="0" y="0" width="46" height="46" rx="6"></rect>
                <g transform="translate(13.000000, 10.000000)" stroke="#FFFFFF" stroke-linejoin="round" stroke-width="1.66666667">
                    <polygon id="矩形备份" points="0 6.15138282 10 12.4675898 10 24.108928 0 17.792721"></polygon>
                    <polyline id="路径" stroke-linecap="round" transform="translate(15.000000, 15.130155) scale(-1, 1) translate(-15.000000, -15.130155) " points="11.145807 18.5164364 10 17.792721 10 6.15138282 20 12.4675898 20 24.108928 17.548543 22.560537"></polyline>
                    <polygon id="矩形备份" transform="translate(10.000000, 6.233795) scale(-1, 1) translate(-10.000000, -6.233795) " points="10 -1.77250034e-15 20 6.15138282 10 12.4675898 1.84741111e-13 6.15138282"></polygon>
                    <line x1="13.3615259" y1="15.1301554" x2="17.2156337" y2="12.4675898" id="路径-6" stroke-linecap="round"></line>
                    <polyline id="路径-5" stroke-linecap="round" points="15.9579158 17.3713018 15.9579158 26 14.1666667 24.6460445"></polyline>
                    <line x1="15.9579158" y1="26" x2="17.7183279" y2="24.4286693" id="路径-7" stroke-linecap="round"></line>
                </g>
            </g>
        </g>
    </g>
</svg>